<mxfile host="drawio-plugin" modified="2022-05-02T08:39:56.876Z" agent="5.0 (Windows NT 6.2; Win64; x64) AppleWebKit/537.36 (KHTML, like Gecko) Chrome/89.0.4389.114 Safari/537.36" etag="Mh0uxbAwPXQxnUS9uDLT" version="15.5.4" type="embed" pages="10"><diagram id="Evr3rGovxmeYQ8fTQ8t3" name="relation-iga-mp"><mxGraphModel dx="1498" dy="1102" grid="1" gridSize="10" guides="1" tooltips="1" connect="1" arrows="1" fold="1" page="1" pageScale="1" pageWidth="827" pageHeight="1169" math="0" shadow="0"><root><mxCell id="0"/><mxCell id="1" parent="0"/><mxCell id="DPdM0cnk9vMgZYKzDZFl-34" value="&lt;font color=&quot;#1e3f78&quot; size=&quot;1&quot;&gt;&lt;span style=&quot;font-weight: 400 ; font-size: 12px&quot;&gt;Focus&lt;/span&gt;&lt;/font&gt;" style="rounded=0;whiteSpace=wrap;html=1;strokeWidth=3;perimeterSpacing=0;glass=0;strokeColor=#1E3F78;fontFamily=Roboto;fontSource=https%3A%2F%2Ffonts.googleapis.com%2Fcss%3Ffamily%3DRoboto;fontColor=#FFFFFF;fontSize=11;fontStyle=1;spacing=2;verticalAlign=middle;fillColor=#E6E6E6;" parent="1" vertex="1"><mxGeometry x="360" y="80" width="120" height="40" as="geometry"/></mxCell><mxCell id="DPdM0cnk9vMgZYKzDZFl-58" value="&lt;font color=&quot;#1e3f78&quot; size=&quot;1&quot;&gt;&lt;span style=&quot;font-weight: 400 ; font-size: 12px&quot;&gt;Role&lt;/span&gt;&lt;/font&gt;" style="rounded=0;whiteSpace=wrap;html=1;strokeWidth=3;perimeterSpacing=0;glass=0;strokeColor=#1E3F78;fontFamily=Roboto;fontSource=https%3A%2F%2Ffonts.googleapis.com%2Fcss%3Ffamily%3DRoboto;fontColor=#FFFFFF;fontSize=11;fontStyle=1;spacing=2;verticalAlign=middle;fillColor=#E6E6E6;" parent="1" vertex="1"><mxGeometry x="480" y="160" width="120" height="40" as="geometry"/></mxCell><mxCell id="DPdM0cnk9vMgZYKzDZFl-59" value="&lt;font color=&quot;#1e3f78&quot; size=&quot;1&quot;&gt;&lt;span style=&quot;font-weight: 400 ; font-size: 12px&quot;&gt;Resource&lt;/span&gt;&lt;/font&gt;" style="rounded=0;whiteSpace=wrap;html=1;strokeWidth=3;perimeterSpacing=0;glass=0;strokeColor=#1E3F78;fontFamily=Roboto;fontSource=https%3A%2F%2Ffonts.googleapis.com%2Fcss%3Ffamily%3DRoboto;fontColor=#FFFFFF;fontSize=11;fontStyle=1;spacing=2;verticalAlign=middle;fillColor=#E6E6E6;" parent="1" vertex="1"><mxGeometry x="660" y="320" width="120" height="40" as="geometry"/></mxCell><mxCell id="DPdM0cnk9vMgZYKzDZFl-60" value="&lt;font color=&quot;#1e3f78&quot; size=&quot;1&quot;&gt;&lt;span style=&quot;font-weight: 400 ; font-size: 12px&quot;&gt;Service&lt;/span&gt;&lt;/font&gt;" style="rounded=0;whiteSpace=wrap;html=1;strokeWidth=3;perimeterSpacing=0;glass=0;strokeColor=#1E3F78;fontFamily=Roboto;fontSource=https%3A%2F%2Ffonts.googleapis.com%2Fcss%3Ffamily%3DRoboto;fontColor=#FFFFFF;fontSize=11;fontStyle=1;spacing=2;verticalAlign=middle;fillColor=#E6E6E6;" parent="1" vertex="1"><mxGeometry x="598.5" y="239.5" width="120" height="40" as="geometry"/></mxCell><mxCell id="DPdM0cnk9vMgZYKzDZFl-62" value="&lt;font style=&quot;font-size: 14px&quot;&gt;Application (Where)&lt;/font&gt;" style="text;html=1;strokeColor=none;fillColor=none;align=center;verticalAlign=middle;whiteSpace=wrap;rounded=0;fontSize=12;" parent="1" vertex="1"><mxGeometry x="90" y="244.5" width="152.5" height="30" as="geometry"/></mxCell><mxCell id="DPdM0cnk9vMgZYKzDZFl-64" value="IGA representation" style="text;html=1;strokeColor=none;fillColor=none;align=center;verticalAlign=middle;whiteSpace=wrap;rounded=0;fontSize=14;fontStyle=1" parent="1" vertex="1"><mxGeometry x="90" y="30" width="152.5" height="30" as="geometry"/></mxCell><mxCell id="DPdM0cnk9vMgZYKzDZFl-65" value="Midpoint object" style="text;html=1;strokeColor=none;fillColor=none;align=center;verticalAlign=middle;whiteSpace=wrap;rounded=0;fontSize=14;fontStyle=1" parent="1" vertex="1"><mxGeometry x="438.75" y="30" width="152.5" height="30" as="geometry"/></mxCell><mxCell id="DPdM0cnk9vMgZYKzDZFl-66" value="" style="edgeStyle=elbowEdgeStyle;elbow=horizontal;endArrow=block;html=1;fontFamily=Roboto;fontSource=https%3A%2F%2Ffonts.googleapis.com%2Fcss2%3Ffamily%3DRoboto%3Aital%2Cwght%401%2C300%26display%3Dswapp;fontSize=9;fontColor=#FFFFFF;strokeColor=#1E3F78;strokeWidth=3;endFill=1;exitX=0.5;exitY=1;exitDx=0;exitDy=0;" parent="1" source="DPdM0cnk9vMgZYKzDZFl-34" target="DPdM0cnk9vMgZYKzDZFl-58" edge="1"><mxGeometry width="50" height="50" relative="1" as="geometry"><mxPoint x="380" y="140" as="sourcePoint"/><mxPoint x="440" y="180" as="targetPoint"/><Array as="points"><mxPoint x="420" y="150"/></Array></mxGeometry></mxCell><mxCell id="DPdM0cnk9vMgZYKzDZFl-67" value="" style="edgeStyle=elbowEdgeStyle;elbow=horizontal;endArrow=block;html=1;fontFamily=Roboto;fontSource=https%3A%2F%2Ffonts.googleapis.com%2Fcss2%3Ffamily%3DRoboto%3Aital%2Cwght%401%2C300%26display%3Dswapp;fontSize=9;fontColor=#FFFFFF;strokeColor=#1E3F78;strokeWidth=3;endFill=1;" parent="1" source="DPdM0cnk9vMgZYKzDZFl-58" target="DPdM0cnk9vMgZYKzDZFl-60" edge="1"><mxGeometry width="50" height="50" relative="1" as="geometry"><mxPoint x="538.5" y="200" as="sourcePoint"/><mxPoint x="598.5" y="260" as="targetPoint"/><Array as="points"><mxPoint x="538.5" y="230"/></Array></mxGeometry></mxCell><mxCell id="DPdM0cnk9vMgZYKzDZFl-68" value="" style="edgeStyle=elbowEdgeStyle;elbow=horizontal;endArrow=block;html=1;fontFamily=Roboto;fontSource=https%3A%2F%2Ffonts.googleapis.com%2Fcss2%3Ffamily%3DRoboto%3Aital%2Cwght%401%2C300%26display%3Dswapp;fontSize=9;fontColor=#FFFFFF;strokeColor=#1E3F78;strokeWidth=3;endFill=1;entryX=0;entryY=0.75;entryDx=0;entryDy=0;" parent="1" source="DPdM0cnk9vMgZYKzDZFl-58" target="DPdM0cnk9vMgZYKzDZFl-59" edge="1"><mxGeometry width="50" height="50" relative="1" as="geometry"><mxPoint x="520" y="200" as="sourcePoint"/><mxPoint x="580" y="260" as="targetPoint"/><Array as="points"><mxPoint x="520" y="230"/></Array></mxGeometry></mxCell><mxCell id="DPdM0cnk9vMgZYKzDZFl-70" value="&lt;font style=&quot;font-size: 14px&quot;&gt;Assignment (has access)&lt;/font&gt;" style="text;html=1;strokeColor=none;fillColor=none;align=center;verticalAlign=middle;whiteSpace=wrap;rounded=0;fontSize=12;" parent="1" vertex="1"><mxGeometry x="81.25" y="165" width="170" height="30" as="geometry"/></mxCell><mxCell id="DPdM0cnk9vMgZYKzDZFl-73" value="&lt;font style=&quot;font-size: 14px&quot;&gt;User (Who)&lt;/font&gt;" style="text;html=1;align=center;verticalAlign=middle;whiteSpace=wrap;rounded=0;fontSize=12;" parent="1" vertex="1"><mxGeometry x="90" y="85" width="152.5" height="30" as="geometry"/></mxCell><mxCell id="QDJTnk0sXfpLc2qdWkQg-1" value="" style="edgeStyle=elbowEdgeStyle;elbow=horizontal;endArrow=block;html=1;fontFamily=Roboto;fontSource=https%3A%2F%2Ffonts.googleapis.com%2Fcss2%3Ffamily%3DRoboto%3Aital%2Cwght%401%2C300%26display%3Dswapp;fontSize=9;fontColor=#FFFFFF;strokeColor=#1E3F78;strokeWidth=3;endFill=1;entryX=0;entryY=0.25;entryDx=0;entryDy=0;exitX=0.25;exitY=1;exitDx=0;exitDy=0;" parent="1" source="DPdM0cnk9vMgZYKzDZFl-60" target="DPdM0cnk9vMgZYKzDZFl-59" edge="1"><mxGeometry width="50" height="50" relative="1" as="geometry"><mxPoint x="530" y="209.9999999999999" as="sourcePoint"/><mxPoint x="670" y="360" as="targetPoint"/><Array as="points"><mxPoint x="629" y="300"/></Array></mxGeometry></mxCell><mxCell id="B0rbGXUJ5WSA5VS-FQ4Z-1" value="" style="endArrow=classic;html=1;rounded=0;" parent="1" edge="1"><mxGeometry width="50" height="50" relative="1" as="geometry"><mxPoint x="260" y="99.5" as="sourcePoint"/><mxPoint x="330" y="99.5" as="targetPoint"/></mxGeometry></mxCell><mxCell id="WbEllDLNBm1xafIjS9mH-1" value="" style="endArrow=classic;html=1;rounded=0;" parent="1" edge="1"><mxGeometry width="50" height="50" relative="1" as="geometry"><mxPoint x="260" y="179.5" as="sourcePoint"/><mxPoint x="380" y="180" as="targetPoint"/></mxGeometry></mxCell><mxCell id="WbEllDLNBm1xafIjS9mH-2" value="" style="endArrow=classic;html=1;rounded=0;" parent="1" edge="1"><mxGeometry width="50" height="50" relative="1" as="geometry"><mxPoint x="260" y="259" as="sourcePoint"/><mxPoint x="440" y="260" as="targetPoint"/></mxGeometry></mxCell></root></mxGraphModel></diagram><diagram id="a68ZwKpCFoZ8d-2yNR9V" name="Roly a vztahy"><mxGraphModel dx="1498" dy="1102" grid="1" gridSize="10" guides="1" tooltips="1" connect="1" arrows="1" fold="1" page="1" pageScale="1" pageWidth="827" pageHeight="1169" math="0" shadow="0"><root><mxCell id="u0wpHIxiv6gXQi1KZQFq-0"/><mxCell id="u0wpHIxiv6gXQi1KZQFq-1" parent="u0wpHIxiv6gXQi1KZQFq-0"/><mxCell id="ClTXV9ZvpC8qZldGeHIE-1" value="&lt;font color=&quot;#1e3f78&quot; size=&quot;1&quot;&gt;&lt;span style=&quot;font-weight: 400 ; font-size: 14px&quot;&gt;Business Role&lt;/span&gt;&lt;/font&gt;" style="rounded=0;whiteSpace=wrap;html=1;strokeWidth=3;perimeterSpacing=0;glass=0;strokeColor=#1E3F78;fontFamily=Roboto;fontSource=https%3A%2F%2Ffonts.googleapis.com%2Fcss%3Ffamily%3DRoboto;fontColor=#FFFFFF;fontSize=11;fontStyle=1;spacing=2;verticalAlign=middle;fillColor=#E6E6E6;" parent="u0wpHIxiv6gXQi1KZQFq-1" vertex="1"><mxGeometry x="110" y="70" width="120" height="40" as="geometry"/></mxCell><mxCell id="ClTXV9ZvpC8qZldGeHIE-2" value="&lt;font color=&quot;#1e3f78&quot; size=&quot;1&quot;&gt;&lt;span style=&quot;font-weight: 400 ; font-size: 14px&quot;&gt;Application role&lt;/span&gt;&lt;/font&gt;" style="rounded=0;whiteSpace=wrap;html=1;strokeWidth=3;perimeterSpacing=0;glass=0;strokeColor=#1E3F78;fontFamily=Roboto;fontSource=https%3A%2F%2Ffonts.googleapis.com%2Fcss%3Ffamily%3DRoboto;fontColor=#FFFFFF;fontSize=11;fontStyle=1;spacing=2;verticalAlign=middle;fillColor=#E6E6E6;" parent="u0wpHIxiv6gXQi1KZQFq-1" vertex="1"><mxGeometry x="196" y="140" width="120" height="40" as="geometry"/></mxCell><mxCell id="ClTXV9ZvpC8qZldGeHIE-3" value="&lt;font color=&quot;#1e3f78&quot; size=&quot;1&quot;&gt;&lt;span style=&quot;font-weight: 400 ; font-size: 14px&quot;&gt;Application role&lt;/span&gt;&lt;/font&gt;" style="rounded=0;whiteSpace=wrap;html=1;strokeWidth=3;perimeterSpacing=0;glass=0;strokeColor=#1E3F78;fontFamily=Roboto;fontSource=https%3A%2F%2Ffonts.googleapis.com%2Fcss%3Ffamily%3DRoboto;fontColor=#FFFFFF;fontSize=11;fontStyle=1;spacing=2;verticalAlign=middle;fillColor=#E6E6E6;" parent="u0wpHIxiv6gXQi1KZQFq-1" vertex="1"><mxGeometry x="206" y="150" width="120" height="40" as="geometry"/></mxCell><mxCell id="m5_1FU_Xa_TPCXb8fhVa-0" value="" style="edgeStyle=elbowEdgeStyle;elbow=horizontal;endArrow=block;html=1;fontFamily=Roboto;fontSource=https%3A%2F%2Ffonts.googleapis.com%2Fcss2%3Ffamily%3DRoboto%3Aital%2Cwght%401%2C300%26display%3Dswapp;fontSize=9;fontColor=#FFFFFF;strokeColor=#1E3F78;strokeWidth=3;endFill=1;entryX=0;entryY=0.5;entryDx=0;entryDy=0;" parent="u0wpHIxiv6gXQi1KZQFq-1" source="ClTXV9ZvpC8qZldGeHIE-1" target="ClTXV9ZvpC8qZldGeHIE-2" edge="1"><mxGeometry width="50" height="50" relative="1" as="geometry"><mxPoint x="-164" y="109.99999999999989" as="sourcePoint"/><mxPoint x="-104" y="169.9999999999999" as="targetPoint"/><Array as="points"><mxPoint x="166" y="130"/></Array></mxGeometry></mxCell><mxCell id="m5_1FU_Xa_TPCXb8fhVa-1" value="&lt;font color=&quot;#1e3f78&quot; size=&quot;1&quot;&gt;&lt;span style=&quot;font-weight: 400 ; font-size: 14px&quot;&gt;IT role&lt;/span&gt;&lt;/font&gt;" style="rounded=0;whiteSpace=wrap;html=1;strokeWidth=3;perimeterSpacing=0;glass=0;strokeColor=#1E3F78;fontFamily=Roboto;fontSource=https%3A%2F%2Ffonts.googleapis.com%2Fcss%3Ffamily%3DRoboto;fontColor=#FFFFFF;fontSize=11;fontStyle=1;spacing=2;verticalAlign=middle;fillColor=#E6E6E6;" parent="u0wpHIxiv6gXQi1KZQFq-1" vertex="1"><mxGeometry x="196" y="210" width="120" height="40" as="geometry"/></mxCell><mxCell id="m5_1FU_Xa_TPCXb8fhVa-2" value="&lt;font color=&quot;#1e3f78&quot; size=&quot;1&quot;&gt;&lt;span style=&quot;font-weight: 400 ; font-size: 14px&quot;&gt;IT role&lt;/span&gt;&lt;/font&gt;" style="rounded=0;whiteSpace=wrap;html=1;strokeWidth=3;perimeterSpacing=0;glass=0;strokeColor=#1E3F78;fontFamily=Roboto;fontSource=https%3A%2F%2Ffonts.googleapis.com%2Fcss%3Ffamily%3DRoboto;fontColor=#FFFFFF;fontSize=11;fontStyle=1;spacing=2;verticalAlign=middle;fillColor=#E6E6E6;" parent="u0wpHIxiv6gXQi1KZQFq-1" vertex="1"><mxGeometry x="206" y="220" width="120" height="40" as="geometry"/></mxCell><mxCell id="m5_1FU_Xa_TPCXb8fhVa-3" value="" style="edgeStyle=elbowEdgeStyle;elbow=horizontal;endArrow=block;html=1;fontFamily=Roboto;fontSource=https%3A%2F%2Ffonts.googleapis.com%2Fcss2%3Ffamily%3DRoboto%3Aital%2Cwght%401%2C300%26display%3Dswapp;fontSize=9;fontColor=#FFFFFF;strokeColor=#1E3F78;strokeWidth=3;endFill=1;entryX=0;entryY=0.5;entryDx=0;entryDy=0;" parent="u0wpHIxiv6gXQi1KZQFq-1" source="ClTXV9ZvpC8qZldGeHIE-1" target="m5_1FU_Xa_TPCXb8fhVa-1" edge="1"><mxGeometry width="50" height="50" relative="1" as="geometry"><mxPoint x="155" y="120" as="sourcePoint"/><mxPoint x="185" y="170" as="targetPoint"/><Array as="points"><mxPoint x="155" y="140"/></Array></mxGeometry></mxCell></root></mxGraphModel></diagram><diagram id="7sqHJf2ZclEu7t2P2vzU" name="role-engineering"><mxGraphModel dx="1498" dy="1102" grid="1" gridSize="10" guides="1" tooltips="1" connect="1" arrows="1" fold="1" page="1" pageScale="1" pageWidth="827" pageHeight="1169" math="0" shadow="0"><root><mxCell id="K_-cwMoslHfAYzDbfeD2-0"/><mxCell id="K_-cwMoslHfAYzDbfeD2-1" parent="K_-cwMoslHfAYzDbfeD2-0"/><mxCell id="K_-cwMoslHfAYzDbfeD2-4" value="Preparation" style="rounded=1;whiteSpace=wrap;html=1;fontSize=14;fillColor=#dae8fc;strokeColor=#000000;strokeWidth=2;" parent="K_-cwMoslHfAYzDbfeD2-1" vertex="1"><mxGeometry x="240" y="140" width="100" height="30" as="geometry"/></mxCell><mxCell id="K_-cwMoslHfAYzDbfeD2-5" value="Approval" style="rounded=1;whiteSpace=wrap;html=1;fontSize=14;fillColor=#FFF2CC;fontColor=#333333;strokeColor=#000000;strokeWidth=2;" parent="K_-cwMoslHfAYzDbfeD2-1" vertex="1"><mxGeometry x="240" y="280" width="100" height="30" as="geometry"/></mxCell><mxCell id="K_-cwMoslHfAYzDbfeD2-6" value="Active" style="rounded=1;whiteSpace=wrap;html=1;fontSize=14;fontStyle=1;fillColor=#97D077;strokeColor=#000000;strokeWidth=2;" parent="K_-cwMoslHfAYzDbfeD2-1" vertex="1"><mxGeometry x="240" y="380" width="100" height="30" as="geometry"/></mxCell><mxCell id="K_-cwMoslHfAYzDbfeD2-7" value="Deprecated" style="rounded=1;whiteSpace=wrap;html=1;fontSize=14;fillColor=#C0C0C0;fontColor=#333333;strokeColor=#000000;strokeWidth=2;" parent="K_-cwMoslHfAYzDbfeD2-1" vertex="1"><mxGeometry x="240" y="450" width="100" height="30" as="geometry"/></mxCell><mxCell id="K_-cwMoslHfAYzDbfeD2-8" value="Archived" style="rounded=1;whiteSpace=wrap;html=1;fontSize=14;fillColor=#f5f5f5;fontColor=#333333;strokeColor=#000000;strokeWidth=2;" parent="K_-cwMoslHfAYzDbfeD2-1" vertex="1"><mxGeometry x="240" y="520" width="100" height="30" as="geometry"/></mxCell><mxCell id="K_-cwMoslHfAYzDbfeD2-12" value="&lt;font style=&quot;font-size: 10px&quot;&gt;Send for approval&lt;/font&gt;" style="endArrow=classic;html=1;rounded=0;fontSize=14;" parent="K_-cwMoslHfAYzDbfeD2-1" target="K_-cwMoslHfAYzDbfeD2-5" edge="1"><mxGeometry width="50" height="50" relative="1" as="geometry"><mxPoint x="290" y="230" as="sourcePoint"/><mxPoint x="440" y="320" as="targetPoint"/></mxGeometry></mxCell><mxCell id="K_-cwMoslHfAYzDbfeD2-13" value="&lt;font style=&quot;font-size: 11px&quot;&gt;Approve&lt;/font&gt;" style="endArrow=classic;html=1;rounded=0;fontSize=14;" parent="K_-cwMoslHfAYzDbfeD2-1" source="K_-cwMoslHfAYzDbfeD2-5" target="K_-cwMoslHfAYzDbfeD2-6" edge="1"><mxGeometry x="-0.4286" width="50" height="50" relative="1" as="geometry"><mxPoint x="289.65999999999997" y="309.9999999999999" as="sourcePoint"/><mxPoint x="289.65999999999997" y="349.9999999999999" as="targetPoint"/><mxPoint as="offset"/></mxGeometry></mxCell><mxCell id="K_-cwMoslHfAYzDbfeD2-14" value="&lt;font style=&quot;font-size: 10px;&quot;&gt;Deprecate&lt;/font&gt;" style="endArrow=classic;html=1;rounded=0;fontSize=10;" parent="K_-cwMoslHfAYzDbfeD2-1" source="K_-cwMoslHfAYzDbfeD2-6" target="K_-cwMoslHfAYzDbfeD2-7" edge="1"><mxGeometry width="50" height="50" relative="1" as="geometry"><mxPoint x="289.65999999999997" y="409.9999999999999" as="sourcePoint"/><mxPoint x="289.65999999999997" y="449.9999999999999" as="targetPoint"/></mxGeometry></mxCell><mxCell id="K_-cwMoslHfAYzDbfeD2-15" value="&lt;font style=&quot;font-size: 10px&quot;&gt;Archive&lt;/font&gt;" style="endArrow=classic;html=1;rounded=0;fontSize=14;" parent="K_-cwMoslHfAYzDbfeD2-1" source="K_-cwMoslHfAYzDbfeD2-7" target="K_-cwMoslHfAYzDbfeD2-8" edge="1"><mxGeometry width="50" height="50" relative="1" as="geometry"><mxPoint x="289.65999999999997" y="479.9999999999999" as="sourcePoint"/><mxPoint x="290" y="520" as="targetPoint"/></mxGeometry></mxCell><mxCell id="K_-cwMoslHfAYzDbfeD2-16" value="" style="endArrow=classic;html=1;rounded=1;fontSize=14;edgeStyle=orthogonalEdgeStyle;startArrow=none;startFill=0;exitX=1;exitY=0.75;exitDx=0;exitDy=0;entryX=1;entryY=0.5;entryDx=0;entryDy=0;" parent="K_-cwMoslHfAYzDbfeD2-1" source="K_-cwMoslHfAYzDbfeD2-5" target="K_-cwMoslHfAYzDbfeD2-8" edge="1"><mxGeometry width="50" height="50" relative="1" as="geometry"><mxPoint x="300" y="249.9999999999999" as="sourcePoint"/><mxPoint x="432.4000000000001" y="520.6000000000001" as="targetPoint"/><Array as="points"><mxPoint x="410" y="303"/><mxPoint x="410" y="535"/></Array></mxGeometry></mxCell><mxCell id="K_-cwMoslHfAYzDbfeD2-35" value="Reject" style="edgeLabel;html=1;align=center;verticalAlign=middle;resizable=0;points=[];fontSize=10;fontColor=#000000;" parent="K_-cwMoslHfAYzDbfeD2-16" vertex="1" connectable="0"><mxGeometry x="0.2336" relative="1" as="geometry"><mxPoint as="offset"/></mxGeometry></mxCell><mxCell id="K_-cwMoslHfAYzDbfeD2-17" value="" style="endArrow=classic;html=1;rounded=1;fontSize=14;edgeStyle=orthogonalEdgeStyle;startArrow=none;startFill=0;exitX=0;exitY=0.75;exitDx=0;exitDy=0;" parent="K_-cwMoslHfAYzDbfeD2-1" source="K_-cwMoslHfAYzDbfeD2-5" target="K_-cwMoslHfAYzDbfeD2-4" edge="1"><mxGeometry width="50" height="50" relative="1" as="geometry"><mxPoint x="240" y="295" as="sourcePoint"/><mxPoint x="240" y="155" as="targetPoint"/><Array as="points"><mxPoint x="140" y="303"/><mxPoint x="140" y="155"/></Array></mxGeometry></mxCell><mxCell id="K_-cwMoslHfAYzDbfeD2-36" value="Return &lt;br style=&quot;font-size: 10px;&quot;&gt;to requestor" style="edgeLabel;html=1;align=center;verticalAlign=middle;resizable=0;points=[];fontSize=10;fontColor=#000000;" parent="K_-cwMoslHfAYzDbfeD2-17" vertex="1" connectable="0"><mxGeometry x="-0.2272" y="-2" relative="1" as="geometry"><mxPoint x="-2" y="-43" as="offset"/></mxGeometry></mxCell><mxCell id="K_-cwMoslHfAYzDbfeD2-37" value="" style="endArrow=classic;html=1;rounded=1;fontSize=14;edgeStyle=orthogonalEdgeStyle;entryX=1;entryY=0.25;entryDx=0;entryDy=0;" parent="K_-cwMoslHfAYzDbfeD2-1" source="K_-cwMoslHfAYzDbfeD2-6" target="K_-cwMoslHfAYzDbfeD2-8" edge="1"><mxGeometry width="50" height="50" relative="1" as="geometry"><mxPoint x="300" y="420" as="sourcePoint"/><mxPoint x="300" y="460" as="targetPoint"/><Array as="points"><mxPoint x="380" y="395"/><mxPoint x="380" y="528"/><mxPoint x="340" y="528"/></Array></mxGeometry></mxCell><mxCell id="K_-cwMoslHfAYzDbfeD2-38" value="Archive" style="edgeLabel;html=1;align=center;verticalAlign=middle;resizable=0;points=[];fontSize=10;fontColor=#000000;" parent="K_-cwMoslHfAYzDbfeD2-37" vertex="1" connectable="0"><mxGeometry x="-0.1483" relative="1" as="geometry"><mxPoint as="offset"/></mxGeometry></mxCell><mxCell id="1Tq5ZZKNPozCnI0yfUYy-0" value="" style="endArrow=classic;html=1;rounded=1;fontSize=14;edgeStyle=orthogonalEdgeStyle;exitX=0;exitY=0.25;exitDx=0;exitDy=0;" parent="K_-cwMoslHfAYzDbfeD2-1" source="K_-cwMoslHfAYzDbfeD2-6" edge="1"><mxGeometry width="50" height="50" relative="1" as="geometry"><mxPoint x="350" y="405.0000000000001" as="sourcePoint"/><mxPoint x="260" y="380" as="targetPoint"/><Array as="points"><mxPoint x="200" y="387"/><mxPoint x="200" y="340"/><mxPoint x="260" y="340"/><mxPoint x="260" y="380"/></Array></mxGeometry></mxCell><mxCell id="1Tq5ZZKNPozCnI0yfUYy-1" value="Update" style="edgeLabel;html=1;align=center;verticalAlign=middle;resizable=0;points=[];fontSize=10;fontColor=#000000;" parent="1Tq5ZZKNPozCnI0yfUYy-0" vertex="1" connectable="0"><mxGeometry x="-0.1483" relative="1" as="geometry"><mxPoint y="16" as="offset"/></mxGeometry></mxCell><mxCell id="1Tq5ZZKNPozCnI0yfUYy-10" value="Admin review" style="rounded=1;whiteSpace=wrap;html=1;fontSize=14;fillColor=#FFE6CC;fontColor=#333333;strokeColor=#000000;strokeWidth=2;" parent="K_-cwMoslHfAYzDbfeD2-1" vertex="1"><mxGeometry x="240" y="210" width="100" height="30" as="geometry"/></mxCell><mxCell id="1Tq5ZZKNPozCnI0yfUYy-11" value="" style="endArrow=classic;html=1;rounded=1;fontSize=14;edgeStyle=orthogonalEdgeStyle;startArrow=none;startFill=0;exitX=0.5;exitY=1;exitDx=0;exitDy=0;entryX=0.5;entryY=0;entryDx=0;entryDy=0;" parent="K_-cwMoslHfAYzDbfeD2-1" source="K_-cwMoslHfAYzDbfeD2-4" target="1Tq5ZZKNPozCnI0yfUYy-10" edge="1"><mxGeometry width="50" height="50" relative="1" as="geometry"><mxPoint x="350" y="297.4999999999999" as="sourcePoint"/><mxPoint x="180" y="200" as="targetPoint"/><Array as="points"/></mxGeometry></mxCell><mxCell id="1Tq5ZZKNPozCnI0yfUYy-12" value="Send for &lt;br style=&quot;font-size: 10px;&quot;&gt;admin review" style="edgeLabel;html=1;align=center;verticalAlign=middle;resizable=0;points=[];fontSize=10;fontColor=#000000;" parent="1Tq5ZZKNPozCnI0yfUYy-11" vertex="1" connectable="0"><mxGeometry x="-0.2272" y="-2" relative="1" as="geometry"><mxPoint x="2" y="5" as="offset"/></mxGeometry></mxCell><mxCell id="1Tq5ZZKNPozCnI0yfUYy-13" value="" style="endArrow=classic;html=1;rounded=1;fontSize=14;edgeStyle=orthogonalEdgeStyle;startArrow=none;startFill=0;entryX=0;entryY=0.5;entryDx=0;entryDy=0;" parent="K_-cwMoslHfAYzDbfeD2-1" target="1Tq5ZZKNPozCnI0yfUYy-10" edge="1"><mxGeometry width="50" height="50" relative="1" as="geometry"><mxPoint x="240" y="287" as="sourcePoint"/><mxPoint x="350" y="165" as="targetPoint"/><Array as="points"><mxPoint x="180" y="287"/><mxPoint x="180" y="225"/></Array></mxGeometry></mxCell><mxCell id="1Tq5ZZKNPozCnI0yfUYy-14" value="Return &lt;br style=&quot;font-size: 10px;&quot;&gt;for review" style="edgeLabel;html=1;align=center;verticalAlign=middle;resizable=0;points=[];fontSize=10;fontColor=#000000;" parent="1Tq5ZZKNPozCnI0yfUYy-13" vertex="1" connectable="0"><mxGeometry x="-0.2272" y="-2" relative="1" as="geometry"><mxPoint x="-2" y="-13" as="offset"/></mxGeometry></mxCell><mxCell id="1Tq5ZZKNPozCnI0yfUYy-15" value="" style="ellipse;whiteSpace=wrap;html=1;aspect=fixed;fontSize=14;strokeWidth=2;" parent="K_-cwMoslHfAYzDbfeD2-1" vertex="1"><mxGeometry x="275" y="70" width="30" height="30" as="geometry"/></mxCell><mxCell id="1Tq5ZZKNPozCnI0yfUYy-16" value="" style="endArrow=classic;html=1;rounded=1;fontSize=14;edgeStyle=orthogonalEdgeStyle;startArrow=none;startFill=0;exitX=0.5;exitY=1;exitDx=0;exitDy=0;entryX=0.5;entryY=0;entryDx=0;entryDy=0;" parent="K_-cwMoslHfAYzDbfeD2-1" edge="1"><mxGeometry width="50" height="50" relative="1" as="geometry"><mxPoint x="289.66" y="99.99999999999989" as="sourcePoint"/><mxPoint x="289.66" y="139.9999999999999" as="targetPoint"/><Array as="points"/></mxGeometry></mxCell><mxCell id="1Tq5ZZKNPozCnI0yfUYy-17" value="Create role" style="edgeLabel;html=1;align=center;verticalAlign=middle;resizable=0;points=[];fontSize=10;fontColor=#000000;" parent="1Tq5ZZKNPozCnI0yfUYy-16" vertex="1" connectable="0"><mxGeometry x="-0.2272" y="-2" relative="1" as="geometry"><mxPoint x="2" y="-2" as="offset"/></mxGeometry></mxCell><mxCell id="1Tq5ZZKNPozCnI0yfUYy-18" value="" style="endArrow=classic;html=1;rounded=1;fontSize=14;edgeStyle=orthogonalEdgeStyle;startArrow=none;startFill=0;exitX=1;exitY=0.5;exitDx=0;exitDy=0;entryX=1;entryY=0.75;entryDx=0;entryDy=0;" parent="K_-cwMoslHfAYzDbfeD2-1" source="1Tq5ZZKNPozCnI0yfUYy-10" target="K_-cwMoslHfAYzDbfeD2-8" edge="1"><mxGeometry width="50" height="50" relative="1" as="geometry"><mxPoint x="350" y="312.4999999999999" as="sourcePoint"/><mxPoint x="450" y="520" as="targetPoint"/><Array as="points"><mxPoint x="440" y="225"/><mxPoint x="440" y="543"/></Array></mxGeometry></mxCell><mxCell id="1Tq5ZZKNPozCnI0yfUYy-19" value="Reject" style="edgeLabel;html=1;align=center;verticalAlign=middle;resizable=0;points=[];fontSize=10;fontColor=#000000;" parent="1Tq5ZZKNPozCnI0yfUYy-18" vertex="1" connectable="0"><mxGeometry x="0.2336" relative="1" as="geometry"><mxPoint as="offset"/></mxGeometry></mxCell><mxCell id="1Tq5ZZKNPozCnI0yfUYy-20" value="" style="endArrow=classic;html=1;rounded=1;fontSize=14;edgeStyle=orthogonalEdgeStyle;startArrow=none;startFill=0;" parent="K_-cwMoslHfAYzDbfeD2-1" edge="1"><mxGeometry width="50" height="50" relative="1" as="geometry"><mxPoint x="240" y="217" as="sourcePoint"/><mxPoint x="240" y="163" as="targetPoint"/><Array as="points"><mxPoint x="180" y="217"/><mxPoint x="180" y="163"/></Array></mxGeometry></mxCell><mxCell id="1Tq5ZZKNPozCnI0yfUYy-21" value="Return &lt;br&gt;to requestor" style="edgeLabel;html=1;align=center;verticalAlign=middle;resizable=0;points=[];fontSize=10;fontColor=#000000;" parent="1Tq5ZZKNPozCnI0yfUYy-20" vertex="1" connectable="0"><mxGeometry x="0.2336" relative="1" as="geometry"><mxPoint x="5" y="20" as="offset"/></mxGeometry></mxCell><mxCell id="1Tq5ZZKNPozCnI0yfUYy-22" value="" style="ellipse;whiteSpace=wrap;html=1;aspect=fixed;fontSize=14;strokeWidth=2;" parent="K_-cwMoslHfAYzDbfeD2-1" vertex="1"><mxGeometry x="435" y="140" width="30" height="30" as="geometry"/></mxCell><mxCell id="1Tq5ZZKNPozCnI0yfUYy-23" value="" style="endArrow=classic;html=1;rounded=1;fontSize=14;edgeStyle=orthogonalEdgeStyle;startArrow=none;startFill=0;exitX=1;exitY=0.5;exitDx=0;exitDy=0;entryX=0;entryY=0.5;entryDx=0;entryDy=0;" parent="K_-cwMoslHfAYzDbfeD2-1" source="K_-cwMoslHfAYzDbfeD2-4" target="1Tq5ZZKNPozCnI0yfUYy-22" edge="1"><mxGeometry width="50" height="50" relative="1" as="geometry"><mxPoint x="350" y="227.4999999999999" as="sourcePoint"/><mxPoint x="350" y="172.5" as="targetPoint"/><Array as="points"><mxPoint x="390" y="155"/><mxPoint x="390" y="155"/></Array></mxGeometry></mxCell><mxCell id="1Tq5ZZKNPozCnI0yfUYy-25" value="Delete" style="edgeLabel;html=1;align=center;verticalAlign=middle;resizable=0;points=[];fontSize=10;" parent="1Tq5ZZKNPozCnI0yfUYy-23" vertex="1" connectable="0"><mxGeometry x="0.1489" y="1" relative="1" as="geometry"><mxPoint as="offset"/></mxGeometry></mxCell><mxCell id="ATCPVdUiX6EjJX3o3e24-2" value="" style="endArrow=classic;html=1;rounded=1;fontSize=14;edgeStyle=orthogonalEdgeStyle;entryX=0;entryY=0.75;entryDx=0;entryDy=0;exitX=0;exitY=0.5;exitDx=0;exitDy=0;" parent="K_-cwMoslHfAYzDbfeD2-1" source="K_-cwMoslHfAYzDbfeD2-7" target="K_-cwMoslHfAYzDbfeD2-6" edge="1"><mxGeometry width="50" height="50" relative="1" as="geometry"><mxPoint x="250" y="405" as="sourcePoint"/><mxPoint x="190" y="405" as="targetPoint"/><Array as="points"><mxPoint x="200" y="465"/><mxPoint x="200" y="403"/></Array></mxGeometry></mxCell><mxCell id="ATCPVdUiX6EjJX3o3e24-3" value="Reactivate" style="edgeLabel;html=1;align=center;verticalAlign=middle;resizable=0;points=[];fontSize=10;fontColor=#000000;" parent="ATCPVdUiX6EjJX3o3e24-2" vertex="1" connectable="0"><mxGeometry x="-0.1483" relative="1" as="geometry"><mxPoint y="-14" as="offset"/></mxGeometry></mxCell></root></mxGraphModel></diagram><diagram id="2rrWdgwm1vRXBZgM5LFF" name="access-request"><mxGraphModel dx="1498" dy="1102" grid="1" gridSize="10" guides="1" tooltips="1" connect="1" arrows="1" fold="1" page="1" pageScale="1" pageWidth="827" pageHeight="1169" math="0" shadow="0"><root><mxCell id="ZnPZW8ERFfVDkA3C8rOW-0"/><mxCell id="ZnPZW8ERFfVDkA3C8rOW-1" parent="ZnPZW8ERFfVDkA3C8rOW-0"/><mxCell id="LImzA5qOuWzDYKQ17AI--0" value="" style="rounded=0;whiteSpace=wrap;html=1;labelBackgroundColor=none;strokeColor=#000000;strokeWidth=1;fillColor=none;gradientColor=#B3B3B3;" parent="ZnPZW8ERFfVDkA3C8rOW-1" vertex="1"><mxGeometry x="100" y="30" width="440" height="470" as="geometry"/></mxCell><mxCell id="yhnhy1JBY2Z6DfDRTKV9-40" value="" style="edgeStyle=orthogonalEdgeStyle;rounded=0;orthogonalLoop=1;jettySize=auto;html=1;" parent="ZnPZW8ERFfVDkA3C8rOW-1" target="yhnhy1JBY2Z6DfDRTKV9-23" edge="1"><mxGeometry relative="1" as="geometry"><mxPoint x="270" y="160" as="sourcePoint"/></mxGeometry></mxCell><mxCell id="yhnhy1JBY2Z6DfDRTKV9-1" value="Processing" style="rounded=1;whiteSpace=wrap;html=1;fontSize=14;fillColor=#FFF4C3;strokeColor=#000000;strokeWidth=2;" parent="ZnPZW8ERFfVDkA3C8rOW-1" vertex="1"><mxGeometry x="220" y="335" width="100" height="30" as="geometry"/></mxCell><mxCell id="yhnhy1JBY2Z6DfDRTKV9-6" value="&lt;font style=&quot;font-size: 10px&quot;&gt;Approve&lt;/font&gt;" style="endArrow=classic;html=1;rounded=0;fontSize=14;exitX=0.5;exitY=1;exitDx=0;exitDy=0;" parent="ZnPZW8ERFfVDkA3C8rOW-1" source="yhnhy1JBY2Z6DfDRTKV9-23" target="yhnhy1JBY2Z6DfDRTKV9-1" edge="1"><mxGeometry x="-0.0769" width="50" height="50" relative="1" as="geometry"><mxPoint x="270" y="239.9999999999999" as="sourcePoint"/><mxPoint x="420" y="330" as="targetPoint"/><mxPoint as="offset"/></mxGeometry></mxCell><mxCell id="yhnhy1JBY2Z6DfDRTKV9-12" value="" style="endArrow=classic;html=1;rounded=1;fontSize=14;edgeStyle=orthogonalEdgeStyle;startArrow=none;startFill=0;exitX=0.25;exitY=1;exitDx=0;exitDy=0;entryX=0;entryY=0.5;entryDx=0;entryDy=0;" parent="ZnPZW8ERFfVDkA3C8rOW-1" source="yhnhy1JBY2Z6DfDRTKV9-23" target="yhnhy1JBY2Z6DfDRTKV9-23" edge="1"><mxGeometry width="50" height="50" relative="1" as="geometry"><mxPoint x="220" y="305" as="sourcePoint"/><mxPoint x="220" y="165" as="targetPoint"/><Array as="points"><mxPoint x="245" y="290"/><mxPoint x="160" y="290"/><mxPoint x="160" y="255"/></Array></mxGeometry></mxCell><mxCell id="yhnhy1JBY2Z6DfDRTKV9-13" value="Approve" style="edgeLabel;html=1;align=center;verticalAlign=middle;resizable=0;points=[];fontSize=10;fontColor=#000000;" parent="yhnhy1JBY2Z6DfDRTKV9-12" vertex="1" connectable="0"><mxGeometry x="-0.2272" y="-2" relative="1" as="geometry"><mxPoint x="10" y="2" as="offset"/></mxGeometry></mxCell><mxCell id="yhnhy1JBY2Z6DfDRTKV9-23" value="Approval" style="rounded=1;whiteSpace=wrap;html=1;fontSize=14;fillColor=#ffe6cc;strokeColor=#000000;strokeWidth=2;" parent="ZnPZW8ERFfVDkA3C8rOW-1" vertex="1"><mxGeometry x="220" y="240" width="100" height="30" as="geometry"/></mxCell><mxCell id="yhnhy1JBY2Z6DfDRTKV9-24" value="" style="endArrow=classic;html=1;rounded=1;fontSize=14;edgeStyle=orthogonalEdgeStyle;startArrow=none;startFill=0;exitX=0.5;exitY=1;exitDx=0;exitDy=0;entryX=0.5;entryY=0;entryDx=0;entryDy=0;" parent="ZnPZW8ERFfVDkA3C8rOW-1" target="yhnhy1JBY2Z6DfDRTKV9-23" edge="1"><mxGeometry width="50" height="50" relative="1" as="geometry"><mxPoint x="270" y="160" as="sourcePoint"/><mxPoint x="160" y="210" as="targetPoint"/><Array as="points"/></mxGeometry></mxCell><mxCell id="yhnhy1JBY2Z6DfDRTKV9-25" value="Send for approval" style="edgeLabel;html=1;align=center;verticalAlign=middle;resizable=0;points=[];fontSize=10;fontColor=#000000;" parent="yhnhy1JBY2Z6DfDRTKV9-24" vertex="1" connectable="0"><mxGeometry x="-0.2272" y="-2" relative="1" as="geometry"><mxPoint x="2" y="14" as="offset"/></mxGeometry></mxCell><mxCell id="yhnhy1JBY2Z6DfDRTKV9-41" value="" style="endArrow=classic;html=1;rounded=0;fontSize=14;exitX=0.5;exitY=1;exitDx=0;exitDy=0;entryX=0.5;entryY=0;entryDx=0;entryDy=0;" parent="ZnPZW8ERFfVDkA3C8rOW-1" source="yhnhy1JBY2Z6DfDRTKV9-1" target="yhnhy1JBY2Z6DfDRTKV9-42" edge="1"><mxGeometry width="50" height="50" relative="1" as="geometry"><mxPoint x="280" y="259.9999999999999" as="sourcePoint"/><mxPoint x="270" y="370" as="targetPoint"/></mxGeometry></mxCell><mxCell id="yhnhy1JBY2Z6DfDRTKV9-42" value="Access granted" style="rounded=1;whiteSpace=wrap;html=1;fontSize=14;fillColor=#97D077;strokeColor=#000000;strokeWidth=2;" parent="ZnPZW8ERFfVDkA3C8rOW-1" vertex="1"><mxGeometry x="215" y="430" width="110" height="30" as="geometry"/></mxCell><mxCell id="yhnhy1JBY2Z6DfDRTKV9-43" value="Rejected" style="rounded=1;whiteSpace=wrap;html=1;fontSize=14;fillColor=#f5f5f5;strokeColor=#000000;fontColor=#333333;strokeWidth=2;" parent="ZnPZW8ERFfVDkA3C8rOW-1" vertex="1"><mxGeometry x="395" y="285" width="110" height="30" as="geometry"/></mxCell><mxCell id="yhnhy1JBY2Z6DfDRTKV9-44" value="" style="endArrow=classic;html=1;rounded=1;fontSize=14;edgeStyle=orthogonalEdgeStyle;startArrow=none;startFill=0;exitX=1;exitY=0.75;exitDx=0;exitDy=0;entryX=0;entryY=0.5;entryDx=0;entryDy=0;" parent="ZnPZW8ERFfVDkA3C8rOW-1" source="yhnhy1JBY2Z6DfDRTKV9-23" target="yhnhy1JBY2Z6DfDRTKV9-43" edge="1"><mxGeometry width="50" height="50" relative="1" as="geometry"><mxPoint x="330" y="174.9999999999999" as="sourcePoint"/><mxPoint x="425" y="174.9999999999999" as="targetPoint"/><Array as="points"><mxPoint x="340" y="263"/><mxPoint x="340" y="300"/></Array></mxGeometry></mxCell><mxCell id="yhnhy1JBY2Z6DfDRTKV9-45" value="Reject" style="edgeLabel;html=1;align=center;verticalAlign=middle;resizable=0;points=[];fontSize=10;" parent="yhnhy1JBY2Z6DfDRTKV9-44" vertex="1" connectable="0"><mxGeometry x="0.1489" y="1" relative="1" as="geometry"><mxPoint x="13" y="1" as="offset"/></mxGeometry></mxCell><mxCell id="yhnhy1JBY2Z6DfDRTKV9-28" value="" style="ellipse;whiteSpace=wrap;html=1;aspect=fixed;fontSize=14;strokeWidth=2;" parent="ZnPZW8ERFfVDkA3C8rOW-1" vertex="1"><mxGeometry x="255" y="50" width="30" height="30" as="geometry"/></mxCell><mxCell id="yvAX6OYrc9NkQTI55d1u-4" value="" style="endArrow=classic;html=1;rounded=1;fontSize=14;edgeStyle=orthogonalEdgeStyle;startArrow=none;startFill=0;exitX=1;exitY=0.75;exitDx=0;exitDy=0;" parent="ZnPZW8ERFfVDkA3C8rOW-1" source="yhnhy1JBY2Z6DfDRTKV9-1" edge="1"><mxGeometry width="50" height="50" relative="1" as="geometry"><mxPoint x="422.5" y="406" as="sourcePoint"/><mxPoint x="300" y="430" as="targetPoint"/><Array as="points"><mxPoint x="360" y="358"/><mxPoint x="360" y="390"/><mxPoint x="300" y="390"/></Array></mxGeometry></mxCell><mxCell id="yvAX6OYrc9NkQTI55d1u-5" value="&lt;font style=&quot;font-size: 10px&quot;&gt;Manually &lt;br&gt;resolve&lt;/font&gt;" style="edgeLabel;html=1;align=center;verticalAlign=middle;resizable=0;points=[];" parent="yvAX6OYrc9NkQTI55d1u-4" vertex="1" connectable="0"><mxGeometry x="-0.352" y="1" relative="1" as="geometry"><mxPoint x="-1" y="-8" as="offset"/></mxGeometry></mxCell><mxCell id="izdWVv9usmySIPn4VMGK-0" value="Request failed" style="rounded=1;whiteSpace=wrap;html=1;fontSize=14;fillColor=#f5f5f5;strokeColor=#000000;fontColor=#333333;strokeWidth=2;" parent="ZnPZW8ERFfVDkA3C8rOW-1" vertex="1"><mxGeometry x="395" y="430" width="110" height="30" as="geometry"/></mxCell><mxCell id="c-t1UNjV2rh_oR2VDZMG-0" value="Cancelled" style="rounded=1;whiteSpace=wrap;html=1;fontSize=14;fillColor=#f5f5f5;strokeColor=#000000;fontColor=#333333;strokeWidth=2;" parent="ZnPZW8ERFfVDkA3C8rOW-1" vertex="1"><mxGeometry x="395" y="210" width="110" height="30" as="geometry"/></mxCell><mxCell id="c-t1UNjV2rh_oR2VDZMG-1" value="" style="endArrow=classic;html=1;rounded=1;fontSize=14;edgeStyle=orthogonalEdgeStyle;startArrow=none;startFill=0;exitX=1;exitY=0.25;exitDx=0;exitDy=0;entryX=0;entryY=0.5;entryDx=0;entryDy=0;" parent="ZnPZW8ERFfVDkA3C8rOW-1" source="yhnhy1JBY2Z6DfDRTKV9-23" target="c-t1UNjV2rh_oR2VDZMG-0" edge="1"><mxGeometry width="50" height="50" relative="1" as="geometry"><mxPoint x="330" y="245" as="sourcePoint"/><mxPoint x="380" y="285" as="targetPoint"/><Array as="points"><mxPoint x="340" y="248"/><mxPoint x="340" y="225"/></Array></mxGeometry></mxCell><mxCell id="c-t1UNjV2rh_oR2VDZMG-2" value="Cancel" style="edgeLabel;html=1;align=center;verticalAlign=middle;resizable=0;points=[];fontSize=10;" parent="c-t1UNjV2rh_oR2VDZMG-1" vertex="1" connectable="0"><mxGeometry x="0.1489" y="1" relative="1" as="geometry"><mxPoint x="7" y="1" as="offset"/></mxGeometry></mxCell><mxCell id="HAX3b2RXy0-F-XARj15B-0" value="Preparation" style="rounded=1;whiteSpace=wrap;html=1;fontSize=14;fillColor=#dae8fc;strokeColor=#000000;strokeWidth=2;" parent="ZnPZW8ERFfVDkA3C8rOW-1" vertex="1"><mxGeometry x="220" y="145" width="100" height="30" as="geometry"/></mxCell><mxCell id="HAX3b2RXy0-F-XARj15B-1" value="" style="endArrow=classic;html=1;rounded=1;fontSize=14;edgeStyle=orthogonalEdgeStyle;startArrow=none;startFill=0;exitX=0.5;exitY=1;exitDx=0;exitDy=0;" parent="ZnPZW8ERFfVDkA3C8rOW-1" source="yhnhy1JBY2Z6DfDRTKV9-28" target="HAX3b2RXy0-F-XARj15B-0" edge="1"><mxGeometry width="50" height="50" relative="1" as="geometry"><mxPoint x="280" y="169.9999999999999" as="sourcePoint"/><mxPoint x="270" y="130" as="targetPoint"/><Array as="points"/></mxGeometry></mxCell><mxCell id="HAX3b2RXy0-F-XARj15B-2" value="Request access" style="edgeLabel;html=1;align=center;verticalAlign=middle;resizable=0;points=[];fontSize=10;fontColor=#000000;" parent="HAX3b2RXy0-F-XARj15B-1" vertex="1" connectable="0"><mxGeometry x="-0.2272" y="-2" relative="1" as="geometry"><mxPoint x="2" y="5" as="offset"/></mxGeometry></mxCell><mxCell id="JT26mddG-Bi1TbCayqYw-0" value="" style="swimlane;childLayout=stackLayout;horizontal=1;fillColor=none;horizontalStack=1;resizeParent=1;resizeParentMax=0;resizeLast=0;collapsible=0;strokeColor=none;stackBorder=10;stackSpacing=-12;resizable=1;align=center;points=[];fontColor=#000000;startSize=0;" parent="ZnPZW8ERFfVDkA3C8rOW-1" vertex="1"><mxGeometry x="40" y="650" width="630" height="60" as="geometry"/></mxCell><mxCell id="JT26mddG-Bi1TbCayqYw-1" value="PREPARATION" style="shape=step;perimeter=stepPerimeter;fixedSize=1;points=[];strokeWidth=2;fillColor=#DAE8FC;fontColor=#333333;strokeColor=#000000;fontStyle=1" parent="JT26mddG-Bi1TbCayqYw-0" vertex="1"><mxGeometry x="10" y="10" width="160" height="40" as="geometry"/></mxCell><mxCell id="JT26mddG-Bi1TbCayqYw-2" value="APPROVAL" style="shape=step;perimeter=stepPerimeter;fixedSize=1;points=[];strokeWidth=2;fillColor=#ffe6cc;strokeColor=#000000;fontStyle=1" parent="JT26mddG-Bi1TbCayqYw-0" vertex="1"><mxGeometry x="158" y="10" width="162" height="40" as="geometry"/></mxCell><mxCell id="JT26mddG-Bi1TbCayqYw-3" value="PROCESSING" style="shape=step;perimeter=stepPerimeter;fixedSize=1;points=[];strokeWidth=2;fillColor=#fff2cc;strokeColor=#000000;fontStyle=1" parent="JT26mddG-Bi1TbCayqYw-0" vertex="1"><mxGeometry x="308" y="10" width="162" height="40" as="geometry"/></mxCell><mxCell id="JT26mddG-Bi1TbCayqYw-4" value="ACCESS GRANTED" style="shape=step;perimeter=stepPerimeter;fixedSize=1;points=[];strokeWidth=2;fillColor=#97D077;fontStyle=1;strokeColor=#000000;" parent="JT26mddG-Bi1TbCayqYw-0" vertex="1"><mxGeometry x="458" y="10" width="162" height="40" as="geometry"/></mxCell><mxCell id="vNdnI_GXuXKqMtT2TYju-0" value="" style="endArrow=classic;html=1;rounded=1;fontSize=14;edgeStyle=orthogonalEdgeStyle;startArrow=none;startFill=0;exitX=1;exitY=0.25;exitDx=0;exitDy=0;entryX=0.5;entryY=0;entryDx=0;entryDy=0;" parent="ZnPZW8ERFfVDkA3C8rOW-1" source="yhnhy1JBY2Z6DfDRTKV9-1" target="izdWVv9usmySIPn4VMGK-0" edge="1"><mxGeometry width="50" height="50" relative="1" as="geometry"><mxPoint x="330" y="345.02857142857135" as="sourcePoint"/><mxPoint x="310" y="500" as="targetPoint"/><Array as="points"><mxPoint x="450" y="343"/></Array></mxGeometry></mxCell><mxCell id="vNdnI_GXuXKqMtT2TYju-1" value="&lt;font style=&quot;font-size: 10px&quot;&gt;Manually close&lt;/font&gt;" style="edgeLabel;html=1;align=center;verticalAlign=middle;resizable=0;points=[];" parent="vNdnI_GXuXKqMtT2TYju-0" vertex="1" connectable="0"><mxGeometry x="-0.352" y="1" relative="1" as="geometry"><mxPoint x="-12" y="-1" as="offset"/></mxGeometry></mxCell></root></mxGraphModel></diagram><diagram id="-TSbSJsuzxtSXF5zM_H7" name="re-new-app-role"><mxGraphModel dx="1498" dy="1102" grid="1" gridSize="10" guides="1" tooltips="1" connect="1" arrows="1" fold="1" page="1" pageScale="1" pageWidth="827" pageHeight="1169" math="0" shadow="0"><root><mxCell id="qix-_nt3cbAHhIGzgQ8Q-0"/><mxCell id="qix-_nt3cbAHhIGzgQ8Q-1" parent="qix-_nt3cbAHhIGzgQ8Q-0"/><mxCell id="Q8P7ARmtrYTvhya-Lae8-6" value="" style="swimlane;childLayout=stackLayout;horizontal=1;fillColor=none;horizontalStack=1;resizeParent=1;resizeParentMax=0;resizeLast=0;collapsible=0;strokeColor=none;stackBorder=10;stackSpacing=-12;resizable=1;align=center;points=[];fontColor=#000000;startSize=0;" parent="qix-_nt3cbAHhIGzgQ8Q-1" vertex="1"><mxGeometry x="100" y="840" width="478" height="60" as="geometry"/></mxCell><mxCell id="Q8P7ARmtrYTvhya-Lae8-7" value="PREPARATION" style="shape=step;perimeter=stepPerimeter;fixedSize=1;points=[];strokeWidth=2;fillColor=#DAE8FC;fontColor=#333333;strokeColor=#000000;fontStyle=1" parent="Q8P7ARmtrYTvhya-Lae8-6" vertex="1"><mxGeometry x="10" y="10" width="130" height="40" as="geometry"/></mxCell><mxCell id="Q8P7ARmtrYTvhya-Lae8-8" value="ADMIN REVIEW" style="shape=step;perimeter=stepPerimeter;fixedSize=1;points=[];strokeWidth=2;fillColor=#ffe6cc;strokeColor=#000000;fontStyle=1" parent="Q8P7ARmtrYTvhya-Lae8-6" vertex="1"><mxGeometry x="128" y="10" width="142" height="40" as="geometry"/></mxCell><mxCell id="Q8P7ARmtrYTvhya-Lae8-9" value="APPROVAL" style="shape=step;perimeter=stepPerimeter;fixedSize=1;points=[];strokeWidth=2;fillColor=#fff2cc;strokeColor=#000000;fontStyle=1" parent="Q8P7ARmtrYTvhya-Lae8-6" vertex="1"><mxGeometry x="258" y="10" width="122" height="40" as="geometry"/></mxCell><mxCell id="Q8P7ARmtrYTvhya-Lae8-10" value="ACTIVE" style="shape=step;perimeter=stepPerimeter;fixedSize=1;points=[];strokeWidth=2;fillColor=#97D077;fontStyle=1" parent="Q8P7ARmtrYTvhya-Lae8-6" vertex="1"><mxGeometry x="368" y="10" width="100" height="40" as="geometry"/></mxCell><mxCell id="Q8P7ARmtrYTvhya-Lae8-14" value="" style="swimlane;childLayout=stackLayout;horizontal=1;fillColor=none;horizontalStack=1;resizeParent=1;resizeParentMax=0;resizeLast=0;collapsible=0;strokeColor=none;stackBorder=10;stackSpacing=-12;resizable=1;align=center;points=[];fontColor=#000000;startSize=3;" parent="qix-_nt3cbAHhIGzgQ8Q-1" vertex="1"><mxGeometry x="100" y="930" width="348" height="63" as="geometry"/></mxCell><mxCell id="Q8P7ARmtrYTvhya-Lae8-18" value="ACTIVE" style="shape=step;perimeter=stepPerimeter;fixedSize=1;points=[];strokeWidth=2;fillColor=#97D077;fontStyle=1" parent="Q8P7ARmtrYTvhya-Lae8-14" vertex="1"><mxGeometry x="10" y="13" width="100" height="40" as="geometry"/></mxCell><mxCell id="Q8P7ARmtrYTvhya-Lae8-19" value="ACTIVE-UPDATED" style="shape=step;perimeter=stepPerimeter;fixedSize=1;points=[];strokeWidth=2;fillColor=#D5E8D4;fontStyle=1;strokeColor=#000000;" parent="Q8P7ARmtrYTvhya-Lae8-14" vertex="1"><mxGeometry x="98" y="13" width="152" height="40" as="geometry"/></mxCell><mxCell id="Q8P7ARmtrYTvhya-Lae8-20" value="ACTIVE" style="shape=step;perimeter=stepPerimeter;fixedSize=1;points=[];strokeWidth=2;fillColor=#97D077;fontStyle=1" parent="Q8P7ARmtrYTvhya-Lae8-14" vertex="1"><mxGeometry x="238" y="13" width="100" height="40" as="geometry"/></mxCell><mxCell id="FoM3eLjValjQDBPsjcQ3-0" value="" style="swimlane;childLayout=stackLayout;horizontal=1;fillColor=none;horizontalStack=1;resizeParent=1;resizeParentMax=0;resizeLast=0;collapsible=0;strokeColor=none;stackBorder=10;stackSpacing=-12;resizable=1;align=center;points=[];fontColor=default;startSize=0;" parent="qix-_nt3cbAHhIGzgQ8Q-1" vertex="1"><mxGeometry x="100" y="1020" width="340" height="60" as="geometry"/></mxCell><mxCell id="FoM3eLjValjQDBPsjcQ3-6" value="ACTIVE" style="shape=step;perimeter=stepPerimeter;fixedSize=1;points=[];strokeWidth=2;fillColor=#97D077;fontStyle=1" parent="FoM3eLjValjQDBPsjcQ3-0" vertex="1"><mxGeometry x="10" y="10" width="100" height="40" as="geometry"/></mxCell><mxCell id="FoM3eLjValjQDBPsjcQ3-7" value="DEPRECATED" style="shape=step;perimeter=stepPerimeter;fixedSize=1;points=[];strokeWidth=2;fillColor=#D0D0D0;fontStyle=1;fontColor=#333333;strokeColor=#000000;" parent="FoM3eLjValjQDBPsjcQ3-0" vertex="1"><mxGeometry x="98" y="10" width="132" height="40" as="geometry"/></mxCell><mxCell id="FoM3eLjValjQDBPsjcQ3-8" value="ARCHIVED" style="shape=step;perimeter=stepPerimeter;fixedSize=1;points=[];strokeWidth=2;fillColor=#f5f5f5;fontStyle=1;gradientColor=none;strokeColor=#000000;" parent="FoM3eLjValjQDBPsjcQ3-0" vertex="1"><mxGeometry x="218" y="10" width="112" height="40" as="geometry"/></mxCell><mxCell id="FoM3eLjValjQDBPsjcQ3-9" value="NEW ROLE" style="shape=table;childLayout=tableLayout;startSize=40;collapsible=0;recursiveResize=0;expand=0;fontStyle=1;" parent="qix-_nt3cbAHhIGzgQ8Q-1" vertex="1"><mxGeometry x="40" y="40" width="720" height="290" as="geometry"/></mxCell><mxCell id="FoM3eLjValjQDBPsjcQ3-10" value="Author" style="shape=tableRow;horizontal=0;startSize=80;swimlaneHead=0;swimlaneBody=0;top=0;left=0;bottom=0;right=0;dropTarget=0;fillColor=none;collapsible=0;recursiveResize=0;expand=0;fontStyle=1;" parent="FoM3eLjValjQDBPsjcQ3-9" vertex="1"><mxGeometry y="40" width="720" height="110" as="geometry"/></mxCell><mxCell id="FoM3eLjValjQDBPsjcQ3-11" value="PREPARATION" style="swimlane;swimlaneHead=0;swimlaneBody=0;fontStyle=0;connectable=0;fillColor=#DAE8FC;startSize=40;collapsible=0;recursiveResize=0;expand=0;fontStyle=1;" parent="FoM3eLjValjQDBPsjcQ3-10" vertex="1"><mxGeometry x="80" width="160" height="110" as="geometry"><mxRectangle width="160" height="110" as="alternateBounds"/></mxGeometry></mxCell><mxCell id="FoM3eLjValjQDBPsjcQ3-12" value="Create Role" style="rounded=0;whiteSpace=wrap;html=1;strokeWidth=2;" parent="FoM3eLjValjQDBPsjcQ3-11" vertex="1"><mxGeometry x="30" y="60" width="100" height="30" as="geometry"/></mxCell><mxCell id="FoM3eLjValjQDBPsjcQ3-13" value="ADMIN REVIEW" style="swimlane;swimlaneHead=0;swimlaneBody=0;fontStyle=0;connectable=0;fillColor=#FFE6CC;startSize=40;collapsible=0;recursiveResize=0;expand=0;fontStyle=1;" parent="FoM3eLjValjQDBPsjcQ3-10" vertex="1"><mxGeometry x="240" width="160" height="110" as="geometry"><mxRectangle width="160" height="110" as="alternateBounds"/></mxGeometry></mxCell><mxCell id="FoM3eLjValjQDBPsjcQ3-14" value="APPROVAL" style="swimlane;swimlaneHead=0;swimlaneBody=0;fontStyle=0;connectable=0;fillColor=#FFF2CC;startSize=40;collapsible=0;recursiveResize=0;expand=0;fontStyle=1;" parent="FoM3eLjValjQDBPsjcQ3-10" vertex="1"><mxGeometry x="400" width="160" height="110" as="geometry"><mxRectangle width="160" height="110" as="alternateBounds"/></mxGeometry></mxCell><mxCell id="FoM3eLjValjQDBPsjcQ3-15" value="ACTIVE" style="swimlane;swimlaneHead=0;swimlaneBody=0;fontStyle=0;connectable=0;fillColor=#97D077;startSize=40;collapsible=0;recursiveResize=0;expand=0;fontStyle=1;labelBackgroundColor=none;" parent="FoM3eLjValjQDBPsjcQ3-10" vertex="1"><mxGeometry x="560" width="160" height="110" as="geometry"><mxRectangle width="160" height="110" as="alternateBounds"/></mxGeometry></mxCell><mxCell id="FoM3eLjValjQDBPsjcQ3-16" value="IGA &#10;Admin." style="shape=tableRow;horizontal=0;startSize=80;swimlaneHead=0;swimlaneBody=0;top=0;left=0;bottom=0;right=0;dropTarget=0;fillColor=none;collapsible=0;recursiveResize=0;expand=0;fontStyle=1;" parent="FoM3eLjValjQDBPsjcQ3-9" vertex="1"><mxGeometry y="150" width="720" height="70" as="geometry"/></mxCell><mxCell id="FoM3eLjValjQDBPsjcQ3-17" value="" style="swimlane;swimlaneHead=0;swimlaneBody=0;fontStyle=0;connectable=0;fillColor=none;startSize=0;collapsible=0;recursiveResize=0;expand=0;fontStyle=1;" parent="FoM3eLjValjQDBPsjcQ3-16" vertex="1"><mxGeometry x="80" width="160" height="70" as="geometry"><mxRectangle width="160" height="70" as="alternateBounds"/></mxGeometry></mxCell><mxCell id="FoM3eLjValjQDBPsjcQ3-18" value="" style="swimlane;swimlaneHead=0;swimlaneBody=0;fontStyle=0;connectable=0;fillColor=none;startSize=0;collapsible=0;recursiveResize=0;expand=0;fontStyle=1;" parent="FoM3eLjValjQDBPsjcQ3-17" vertex="1"><mxGeometry x="6.5" y="-30" width="201" height="70" as="geometry"><mxRectangle width="201" height="70" as="alternateBounds"/></mxGeometry></mxCell><mxCell id="FoM3eLjValjQDBPsjcQ3-19" value="" style="swimlane;swimlaneHead=0;swimlaneBody=0;fontStyle=0;connectable=0;fillColor=none;startSize=0;collapsible=0;recursiveResize=0;expand=0;fontStyle=1;" parent="FoM3eLjValjQDBPsjcQ3-16" vertex="1"><mxGeometry x="240" width="160" height="70" as="geometry"><mxRectangle width="160" height="70" as="alternateBounds"/></mxGeometry></mxCell><mxCell id="FoM3eLjValjQDBPsjcQ3-20" value="Review Role" style="rounded=0;whiteSpace=wrap;html=1;strokeWidth=2;" parent="FoM3eLjValjQDBPsjcQ3-19" vertex="1"><mxGeometry x="30" y="20" width="100" height="30" as="geometry"/></mxCell><mxCell id="FoM3eLjValjQDBPsjcQ3-21" value="" style="swimlane;swimlaneHead=0;swimlaneBody=0;fontStyle=0;connectable=0;fillColor=none;startSize=0;collapsible=0;recursiveResize=0;expand=0;fontStyle=1;" parent="FoM3eLjValjQDBPsjcQ3-16" vertex="1"><mxGeometry x="400" width="160" height="70" as="geometry"><mxRectangle width="160" height="70" as="alternateBounds"/></mxGeometry></mxCell><mxCell id="FoM3eLjValjQDBPsjcQ3-22" style="swimlane;swimlaneHead=0;swimlaneBody=0;fontStyle=0;connectable=0;fillColor=none;startSize=0;collapsible=0;recursiveResize=0;expand=0;fontStyle=1;" parent="FoM3eLjValjQDBPsjcQ3-16" vertex="1"><mxGeometry x="560" width="160" height="70" as="geometry"><mxRectangle width="160" height="70" as="alternateBounds"/></mxGeometry></mxCell><mxCell id="FoM3eLjValjQDBPsjcQ3-23" value="Role &#10;Manager" style="shape=tableRow;horizontal=0;startSize=80;swimlaneHead=0;swimlaneBody=0;top=0;left=0;bottom=0;right=0;dropTarget=0;fillColor=none;collapsible=0;recursiveResize=0;expand=0;fontStyle=1;" parent="FoM3eLjValjQDBPsjcQ3-9" vertex="1"><mxGeometry y="220" width="720" height="70" as="geometry"/></mxCell><mxCell id="FoM3eLjValjQDBPsjcQ3-24" value="" style="swimlane;swimlaneHead=0;swimlaneBody=0;fontStyle=0;connectable=0;fillColor=none;startSize=0;collapsible=0;recursiveResize=0;expand=0;fontStyle=1;" parent="FoM3eLjValjQDBPsjcQ3-23" vertex="1"><mxGeometry x="80" width="160" height="70" as="geometry"><mxRectangle width="160" height="70" as="alternateBounds"/></mxGeometry></mxCell><mxCell id="FoM3eLjValjQDBPsjcQ3-25" value="" style="swimlane;swimlaneHead=0;swimlaneBody=0;fontStyle=0;connectable=0;fillColor=none;startSize=0;collapsible=0;recursiveResize=0;expand=0;fontStyle=1;" parent="FoM3eLjValjQDBPsjcQ3-23" vertex="1"><mxGeometry x="240" width="160" height="70" as="geometry"><mxRectangle width="160" height="70" as="alternateBounds"/></mxGeometry></mxCell><mxCell id="FoM3eLjValjQDBPsjcQ3-26" value="" style="swimlane;swimlaneHead=0;swimlaneBody=0;fontStyle=0;connectable=0;fillColor=none;startSize=0;collapsible=0;recursiveResize=0;expand=0;fontStyle=1;" parent="FoM3eLjValjQDBPsjcQ3-23" vertex="1"><mxGeometry x="400" width="160" height="70" as="geometry"><mxRectangle width="160" height="70" as="alternateBounds"/></mxGeometry></mxCell><mxCell id="FoM3eLjValjQDBPsjcQ3-27" value="Aprove Role" style="rounded=0;whiteSpace=wrap;html=1;strokeWidth=2;" parent="FoM3eLjValjQDBPsjcQ3-26" vertex="1"><mxGeometry x="30" y="20" width="100" height="30" as="geometry"/></mxCell><mxCell id="FoM3eLjValjQDBPsjcQ3-28" style="swimlane;swimlaneHead=0;swimlaneBody=0;fontStyle=0;connectable=0;fillColor=none;startSize=0;collapsible=0;recursiveResize=0;expand=0;fontStyle=1;" parent="FoM3eLjValjQDBPsjcQ3-23" vertex="1"><mxGeometry x="560" width="160" height="70" as="geometry"><mxRectangle width="160" height="70" as="alternateBounds"/></mxGeometry></mxCell><mxCell id="FoM3eLjValjQDBPsjcQ3-29" value="" style="group" parent="FoM3eLjValjQDBPsjcQ3-28" vertex="1" connectable="0"><mxGeometry x="62.5" y="20" width="35" height="30" as="geometry"/></mxCell><mxCell id="FoM3eLjValjQDBPsjcQ3-30" value="" style="strokeWidth=1;html=1;shape=mxgraph.flowchart.terminator;whiteSpace=wrap;fillColor=#d5e8d4;strokeColor=#82b366;" parent="FoM3eLjValjQDBPsjcQ3-29" vertex="1"><mxGeometry width="35" height="30" as="geometry"/></mxCell><mxCell id="FoM3eLjValjQDBPsjcQ3-31" value="" style="group" parent="FoM3eLjValjQDBPsjcQ3-29" vertex="1" connectable="0"><mxGeometry x="7.5" y="5" width="20" height="20" as="geometry"/></mxCell><mxCell id="FoM3eLjValjQDBPsjcQ3-32" value="" style="endArrow=none;html=1;rounded=0;strokeWidth=2;" parent="FoM3eLjValjQDBPsjcQ3-31" edge="1"><mxGeometry width="50" height="50" relative="1" as="geometry"><mxPoint x="10" y="20" as="sourcePoint"/><mxPoint x="20" as="targetPoint"/></mxGeometry></mxCell><mxCell id="FoM3eLjValjQDBPsjcQ3-33" value="" style="endArrow=none;html=1;rounded=0;strokeWidth=2;" parent="FoM3eLjValjQDBPsjcQ3-31" edge="1"><mxGeometry width="50" height="50" relative="1" as="geometry"><mxPoint x="10" y="20" as="sourcePoint"/><mxPoint x="10" y="20" as="targetPoint"/><Array as="points"><mxPoint y="10"/></Array></mxGeometry></mxCell><mxCell id="FoM3eLjValjQDBPsjcQ3-34" value="" style="endArrow=classic;html=1;rounded=1;fontSize=14;edgeStyle=orthogonalEdgeStyle;entryX=0;entryY=0.5;entryDx=0;entryDy=0;strokeWidth=2;entryPerimeter=0;exitX=1;exitY=0.5;exitDx=0;exitDy=0;" parent="FoM3eLjValjQDBPsjcQ3-23" source="FoM3eLjValjQDBPsjcQ3-27" target="FoM3eLjValjQDBPsjcQ3-30" edge="1"><mxGeometry width="50" height="50" relative="1" as="geometry"><mxPoint x="660" as="sourcePoint"/><mxPoint x="542" y="45" as="targetPoint"/><Array as="points"><mxPoint x="580" y="35"/><mxPoint x="580" y="35"/></Array></mxGeometry></mxCell><mxCell id="FoM3eLjValjQDBPsjcQ3-35" value="" style="endArrow=classic;html=1;rounded=1;fontSize=14;edgeStyle=orthogonalEdgeStyle;exitX=1;exitY=0.5;exitDx=0;exitDy=0;entryX=0;entryY=0.5;entryDx=0;entryDy=0;strokeWidth=2;" parent="FoM3eLjValjQDBPsjcQ3-9" source="FoM3eLjValjQDBPsjcQ3-12" target="FoM3eLjValjQDBPsjcQ3-20" edge="1"><mxGeometry width="50" height="50" relative="1" as="geometry"><mxPoint x="240" y="315" as="sourcePoint"/><mxPoint x="240" y="455" as="targetPoint"/><Array as="points"><mxPoint x="230" y="115"/><mxPoint x="230" y="185"/></Array></mxGeometry></mxCell><mxCell id="FoM3eLjValjQDBPsjcQ3-36" value="" style="endArrow=classic;html=1;rounded=1;fontSize=14;edgeStyle=orthogonalEdgeStyle;exitX=1;exitY=0.5;exitDx=0;exitDy=0;entryX=0;entryY=0.5;entryDx=0;entryDy=0;strokeWidth=2;" parent="FoM3eLjValjQDBPsjcQ3-9" source="FoM3eLjValjQDBPsjcQ3-20" target="FoM3eLjValjQDBPsjcQ3-27" edge="1"><mxGeometry width="50" height="50" relative="1" as="geometry"><mxPoint x="457" y="190" as="sourcePoint"/><mxPoint x="532" y="260" as="targetPoint"/><Array as="points"><mxPoint x="390" y="185"/><mxPoint x="390" y="255"/></Array></mxGeometry></mxCell><mxCell id="R5eQ2g8AAfFGerI9nCmR-0" value="NEW APPLICATION DEPLOYMENT" style="shape=table;childLayout=tableLayout;startSize=40;collapsible=0;recursiveResize=0;expand=0;fontStyle=1;" parent="qix-_nt3cbAHhIGzgQ8Q-1" vertex="1"><mxGeometry x="40" y="400" width="720" height="330" as="geometry"/></mxCell><mxCell id="R5eQ2g8AAfFGerI9nCmR-1" value="Author" style="shape=tableRow;horizontal=0;startSize=80;swimlaneHead=0;swimlaneBody=0;top=0;left=0;bottom=0;right=0;dropTarget=0;fillColor=none;collapsible=0;recursiveResize=0;expand=0;fontStyle=1;" parent="R5eQ2g8AAfFGerI9nCmR-0" vertex="1"><mxGeometry y="40" width="720" height="150" as="geometry"/></mxCell><mxCell id="R5eQ2g8AAfFGerI9nCmR-2" value="PREPARATION" style="swimlane;swimlaneHead=0;swimlaneBody=0;fontStyle=0;connectable=0;fillColor=#DAE8FC;startSize=40;collapsible=0;recursiveResize=0;expand=0;fontStyle=1;" parent="R5eQ2g8AAfFGerI9nCmR-1" vertex="1"><mxGeometry x="80" width="200" height="150" as="geometry"><mxRectangle width="200" height="150" as="alternateBounds"/></mxGeometry></mxCell><mxCell id="R5eQ2g8AAfFGerI9nCmR-34" value="Create Application" style="rounded=0;whiteSpace=wrap;html=1;strokeWidth=2;" parent="R5eQ2g8AAfFGerI9nCmR-2" vertex="1"><mxGeometry x="10" y="60" width="100" height="30" as="geometry"/></mxCell><mxCell id="FoM3eLjValjQDBPsjcQ3-67" value="Create roles for the application" style="rounded=0;whiteSpace=wrap;html=1;strokeWidth=2;" parent="R5eQ2g8AAfFGerI9nCmR-2" vertex="1"><mxGeometry x="78" y="110" width="100" height="30" as="geometry"/></mxCell><mxCell id="Q8P7ARmtrYTvhya-Lae8-0" value="" style="endArrow=classic;html=1;rounded=1;fontSize=14;edgeStyle=orthogonalEdgeStyle;exitX=1;exitY=0.5;exitDx=0;exitDy=0;strokeWidth=2;" parent="R5eQ2g8AAfFGerI9nCmR-2" source="R5eQ2g8AAfFGerI9nCmR-34" target="FoM3eLjValjQDBPsjcQ3-67" edge="1"><mxGeometry width="50" height="50" relative="1" as="geometry"><mxPoint x="160" y="275" as="sourcePoint"/><mxPoint x="78" y="125" as="targetPoint"/><Array as="points"><mxPoint x="120" y="75"/><mxPoint x="120" y="100"/><mxPoint x="30" y="100"/><mxPoint x="30" y="125"/></Array></mxGeometry></mxCell><mxCell id="R5eQ2g8AAfFGerI9nCmR-3" value="ADMIN REVIEW" style="swimlane;swimlaneHead=0;swimlaneBody=0;fontStyle=0;connectable=0;fillColor=#FFE6CC;startSize=40;collapsible=0;recursiveResize=0;expand=0;fontStyle=1;" parent="R5eQ2g8AAfFGerI9nCmR-1" vertex="1"><mxGeometry x="280" width="140" height="150" as="geometry"><mxRectangle width="140" height="150" as="alternateBounds"/></mxGeometry></mxCell><mxCell id="R5eQ2g8AAfFGerI9nCmR-4" value="APPROVAL" style="swimlane;swimlaneHead=0;swimlaneBody=0;fontStyle=0;connectable=0;fillColor=#FFF2CC;startSize=40;collapsible=0;recursiveResize=0;expand=0;fontStyle=1;" parent="R5eQ2g8AAfFGerI9nCmR-1" vertex="1"><mxGeometry x="420" width="140" height="150" as="geometry"><mxRectangle width="140" height="150" as="alternateBounds"/></mxGeometry></mxCell><mxCell id="R5eQ2g8AAfFGerI9nCmR-31" value="ACTIVE" style="swimlane;swimlaneHead=0;swimlaneBody=0;fontStyle=0;connectable=0;fillColor=#97D077;startSize=40;collapsible=0;recursiveResize=0;expand=0;fontStyle=1;labelBackgroundColor=none;" parent="R5eQ2g8AAfFGerI9nCmR-1" vertex="1"><mxGeometry x="560" width="160" height="150" as="geometry"><mxRectangle width="160" height="150" as="alternateBounds"/></mxGeometry></mxCell><mxCell id="R5eQ2g8AAfFGerI9nCmR-5" value="IGA &#10;Admin." style="shape=tableRow;horizontal=0;startSize=80;swimlaneHead=0;swimlaneBody=0;top=0;left=0;bottom=0;right=0;dropTarget=0;fillColor=none;collapsible=0;recursiveResize=0;expand=0;fontStyle=1;" parent="R5eQ2g8AAfFGerI9nCmR-0" vertex="1"><mxGeometry y="190" width="720" height="70" as="geometry"/></mxCell><mxCell id="R5eQ2g8AAfFGerI9nCmR-6" value="" style="swimlane;swimlaneHead=0;swimlaneBody=0;fontStyle=0;connectable=0;fillColor=none;startSize=0;collapsible=0;recursiveResize=0;expand=0;fontStyle=1;" parent="R5eQ2g8AAfFGerI9nCmR-5" vertex="1"><mxGeometry x="80" width="200" height="70" as="geometry"><mxRectangle width="200" height="70" as="alternateBounds"/></mxGeometry></mxCell><mxCell id="R5eQ2g8AAfFGerI9nCmR-7" value="" style="swimlane;swimlaneHead=0;swimlaneBody=0;fontStyle=0;connectable=0;fillColor=none;startSize=0;collapsible=0;recursiveResize=0;expand=0;fontStyle=1;" parent="R5eQ2g8AAfFGerI9nCmR-5" vertex="1"><mxGeometry x="280" width="140" height="70" as="geometry"><mxRectangle width="140" height="70" as="alternateBounds"/></mxGeometry></mxCell><mxCell id="R5eQ2g8AAfFGerI9nCmR-35" value="Review app. &lt;br&gt;and roles" style="rounded=0;whiteSpace=wrap;html=1;strokeWidth=2;" parent="R5eQ2g8AAfFGerI9nCmR-7" vertex="1"><mxGeometry x="20" y="20" width="100" height="30" as="geometry"/></mxCell><mxCell id="R5eQ2g8AAfFGerI9nCmR-8" value="" style="swimlane;swimlaneHead=0;swimlaneBody=0;fontStyle=0;connectable=0;fillColor=none;startSize=0;collapsible=0;recursiveResize=0;expand=0;fontStyle=1;" parent="R5eQ2g8AAfFGerI9nCmR-5" vertex="1"><mxGeometry x="420" width="140" height="70" as="geometry"><mxRectangle width="140" height="70" as="alternateBounds"/></mxGeometry></mxCell><mxCell id="R5eQ2g8AAfFGerI9nCmR-32" style="swimlane;swimlaneHead=0;swimlaneBody=0;fontStyle=0;connectable=0;fillColor=none;startSize=0;collapsible=0;recursiveResize=0;expand=0;fontStyle=1;" parent="R5eQ2g8AAfFGerI9nCmR-5" vertex="1"><mxGeometry x="560" width="160" height="70" as="geometry"><mxRectangle width="160" height="70" as="alternateBounds"/></mxGeometry></mxCell><mxCell id="R5eQ2g8AAfFGerI9nCmR-9" value="Role &#10;Manager" style="shape=tableRow;horizontal=0;startSize=80;swimlaneHead=0;swimlaneBody=0;top=0;left=0;bottom=0;right=0;dropTarget=0;fillColor=none;collapsible=0;recursiveResize=0;expand=0;fontStyle=1;" parent="R5eQ2g8AAfFGerI9nCmR-0" vertex="1"><mxGeometry y="260" width="720" height="70" as="geometry"/></mxCell><mxCell id="R5eQ2g8AAfFGerI9nCmR-10" value="" style="swimlane;swimlaneHead=0;swimlaneBody=0;fontStyle=0;connectable=0;fillColor=none;startSize=0;collapsible=0;recursiveResize=0;expand=0;fontStyle=1;" parent="R5eQ2g8AAfFGerI9nCmR-9" vertex="1"><mxGeometry x="80" width="200" height="70" as="geometry"><mxRectangle width="200" height="70" as="alternateBounds"/></mxGeometry></mxCell><mxCell id="R5eQ2g8AAfFGerI9nCmR-11" value="" style="swimlane;swimlaneHead=0;swimlaneBody=0;fontStyle=0;connectable=0;fillColor=none;startSize=0;collapsible=0;recursiveResize=0;expand=0;fontStyle=1;" parent="R5eQ2g8AAfFGerI9nCmR-9" vertex="1"><mxGeometry x="280" width="140" height="70" as="geometry"><mxRectangle width="140" height="70" as="alternateBounds"/></mxGeometry></mxCell><mxCell id="R5eQ2g8AAfFGerI9nCmR-12" value="" style="swimlane;swimlaneHead=0;swimlaneBody=0;fontStyle=0;connectable=0;fillColor=none;startSize=0;collapsible=0;recursiveResize=0;expand=0;fontStyle=1;" parent="R5eQ2g8AAfFGerI9nCmR-9" vertex="1"><mxGeometry x="420" width="140" height="70" as="geometry"><mxRectangle width="140" height="70" as="alternateBounds"/></mxGeometry></mxCell><mxCell id="R5eQ2g8AAfFGerI9nCmR-36" value="Approve app.&lt;br&gt;and roles" style="rounded=0;whiteSpace=wrap;html=1;strokeWidth=2;" parent="R5eQ2g8AAfFGerI9nCmR-12" vertex="1"><mxGeometry x="30" y="20" width="100" height="30" as="geometry"/></mxCell><mxCell id="R5eQ2g8AAfFGerI9nCmR-33" style="swimlane;swimlaneHead=0;swimlaneBody=0;fontStyle=0;connectable=0;fillColor=none;startSize=0;collapsible=0;recursiveResize=0;expand=0;fontStyle=1;" parent="R5eQ2g8AAfFGerI9nCmR-9" vertex="1"><mxGeometry x="560" width="160" height="70" as="geometry"><mxRectangle width="160" height="70" as="alternateBounds"/></mxGeometry></mxCell><mxCell id="R5eQ2g8AAfFGerI9nCmR-42" value="" style="group" parent="R5eQ2g8AAfFGerI9nCmR-33" vertex="1" connectable="0"><mxGeometry x="62.5" y="20" width="35" height="30" as="geometry"/></mxCell><mxCell id="R5eQ2g8AAfFGerI9nCmR-37" value="" style="strokeWidth=1;html=1;shape=mxgraph.flowchart.terminator;whiteSpace=wrap;fillColor=#d5e8d4;strokeColor=#82b366;" parent="R5eQ2g8AAfFGerI9nCmR-42" vertex="1"><mxGeometry width="35" height="30" as="geometry"/></mxCell><mxCell id="R5eQ2g8AAfFGerI9nCmR-41" value="" style="group" parent="R5eQ2g8AAfFGerI9nCmR-42" vertex="1" connectable="0"><mxGeometry x="7.5" y="5" width="20" height="20" as="geometry"/></mxCell><mxCell id="R5eQ2g8AAfFGerI9nCmR-39" value="" style="endArrow=none;html=1;rounded=0;strokeWidth=2;" parent="R5eQ2g8AAfFGerI9nCmR-41" edge="1"><mxGeometry width="50" height="50" relative="1" as="geometry"><mxPoint x="10" y="20" as="sourcePoint"/><mxPoint x="20" as="targetPoint"/></mxGeometry></mxCell><mxCell id="R5eQ2g8AAfFGerI9nCmR-40" value="" style="endArrow=none;html=1;rounded=0;strokeWidth=2;" parent="R5eQ2g8AAfFGerI9nCmR-41" edge="1"><mxGeometry width="50" height="50" relative="1" as="geometry"><mxPoint x="10" y="20" as="sourcePoint"/><mxPoint x="10" y="20" as="targetPoint"/><Array as="points"><mxPoint y="10"/></Array></mxGeometry></mxCell><mxCell id="Q8P7ARmtrYTvhya-Lae8-3" value="" style="endArrow=classic;html=1;rounded=1;fontSize=14;edgeStyle=orthogonalEdgeStyle;entryX=0;entryY=0.5;entryDx=0;entryDy=0;strokeWidth=2;entryPerimeter=0;exitX=1;exitY=0.5;exitDx=0;exitDy=0;" parent="R5eQ2g8AAfFGerI9nCmR-9" source="R5eQ2g8AAfFGerI9nCmR-36" target="R5eQ2g8AAfFGerI9nCmR-37" edge="1"><mxGeometry width="50" height="50" relative="1" as="geometry"><mxPoint x="660" as="sourcePoint"/><mxPoint x="542" y="45" as="targetPoint"/><Array as="points"><mxPoint x="580" y="35"/><mxPoint x="580" y="35"/></Array></mxGeometry></mxCell><mxCell id="Q8P7ARmtrYTvhya-Lae8-2" value="" style="endArrow=classic;html=1;rounded=1;fontSize=14;edgeStyle=orthogonalEdgeStyle;exitX=1;exitY=0.5;exitDx=0;exitDy=0;entryX=0;entryY=0.5;entryDx=0;entryDy=0;strokeWidth=2;" parent="R5eQ2g8AAfFGerI9nCmR-0" source="R5eQ2g8AAfFGerI9nCmR-35" target="R5eQ2g8AAfFGerI9nCmR-36" edge="1"><mxGeometry width="50" height="50" relative="1" as="geometry"><mxPoint x="457" y="190" as="sourcePoint"/><mxPoint x="532" y="260" as="targetPoint"/><Array as="points"><mxPoint x="410" y="225"/><mxPoint x="410" y="295"/></Array></mxGeometry></mxCell><mxCell id="FoM3eLjValjQDBPsjcQ3-68" value="" style="endArrow=classic;html=1;rounded=1;fontSize=14;edgeStyle=orthogonalEdgeStyle;exitX=1;exitY=0.5;exitDx=0;exitDy=0;strokeWidth=2;entryX=0;entryY=0.5;entryDx=0;entryDy=0;" parent="R5eQ2g8AAfFGerI9nCmR-0" source="FoM3eLjValjQDBPsjcQ3-67" target="R5eQ2g8AAfFGerI9nCmR-35" edge="1"><mxGeometry width="50" height="50" relative="1" as="geometry"><mxPoint x="200" y="125" as="sourcePoint"/><mxPoint x="168" y="175" as="targetPoint"/><Array as="points"><mxPoint x="270" y="165"/><mxPoint x="270" y="225"/></Array></mxGeometry></mxCell></root></mxGraphModel></diagram><diagram id="bVZ0RSN36jq2RgSsl_mQ" name="re-update-and-decom"><mxGraphModel dx="1498" dy="1102" grid="1" gridSize="10" guides="1" tooltips="1" connect="1" arrows="1" fold="1" page="1" pageScale="1" pageWidth="827" pageHeight="1169" math="0" shadow="0"><root><mxCell id="l4cDapwnNsKWZIV8bWFR-0"/><mxCell id="l4cDapwnNsKWZIV8bWFR-1" parent="l4cDapwnNsKWZIV8bWFR-0"/><mxCell id="6X-bYf5D5h-iiWsrX3UB-0" value="MODIFY ROLE" style="shape=table;childLayout=tableLayout;startSize=40;collapsible=0;recursiveResize=0;expand=0;fontStyle=1;" parent="l4cDapwnNsKWZIV8bWFR-1" vertex="1"><mxGeometry x="40" y="40" width="560" height="220" as="geometry"/></mxCell><mxCell id="6X-bYf5D5h-iiWsrX3UB-1" value="Role Owner,&#10;(IGA Engineer,&#10;Role Manager)" style="shape=tableRow;horizontal=0;startSize=80;swimlaneHead=0;swimlaneBody=0;top=0;left=0;bottom=0;right=0;dropTarget=0;fillColor=none;collapsible=0;recursiveResize=0;expand=0;fontStyle=1;" parent="6X-bYf5D5h-iiWsrX3UB-0" vertex="1"><mxGeometry y="40" width="560" height="110" as="geometry"/></mxCell><mxCell id="6X-bYf5D5h-iiWsrX3UB-2" value="ACTIVE" style="swimlane;swimlaneHead=0;swimlaneBody=0;fontStyle=0;connectable=0;fillColor=#97D077;startSize=40;collapsible=0;recursiveResize=0;expand=0;fontStyle=1;" parent="6X-bYf5D5h-iiWsrX3UB-1" vertex="1"><mxGeometry x="80" width="160" height="110" as="geometry"><mxRectangle width="160" height="110" as="alternateBounds"/></mxGeometry></mxCell><mxCell id="6X-bYf5D5h-iiWsrX3UB-3" value="Update Role" style="rounded=0;whiteSpace=wrap;html=1;strokeWidth=2;" parent="6X-bYf5D5h-iiWsrX3UB-2" vertex="1"><mxGeometry x="30" y="60" width="100" height="30" as="geometry"/></mxCell><mxCell id="6X-bYf5D5h-iiWsrX3UB-4" value="ACTIVE-UPDATED" style="swimlane;swimlaneHead=0;swimlaneBody=0;fontStyle=0;connectable=0;fillColor=#D5E8D4;startSize=40;collapsible=0;recursiveResize=0;expand=0;fontStyle=1;" parent="6X-bYf5D5h-iiWsrX3UB-1" vertex="1"><mxGeometry x="240" width="160" height="110" as="geometry"><mxRectangle width="160" height="110" as="alternateBounds"/></mxGeometry></mxCell><mxCell id="6X-bYf5D5h-iiWsrX3UB-5" value="ACTIVE" style="swimlane;swimlaneHead=0;swimlaneBody=0;fontStyle=0;connectable=0;fillColor=#97D077;startSize=40;collapsible=0;recursiveResize=0;expand=0;fontStyle=1;" parent="6X-bYf5D5h-iiWsrX3UB-1" vertex="1"><mxGeometry x="400" width="160" height="110" as="geometry"><mxRectangle width="160" height="110" as="alternateBounds"/></mxGeometry></mxCell><mxCell id="6X-bYf5D5h-iiWsrX3UB-14" value="Role &#10;Manager" style="shape=tableRow;horizontal=0;startSize=80;swimlaneHead=0;swimlaneBody=0;top=0;left=0;bottom=0;right=0;dropTarget=0;fillColor=none;collapsible=0;recursiveResize=0;expand=0;fontStyle=1;" parent="6X-bYf5D5h-iiWsrX3UB-0" vertex="1"><mxGeometry y="150" width="560" height="70" as="geometry"/></mxCell><mxCell id="6X-bYf5D5h-iiWsrX3UB-15" value="" style="swimlane;swimlaneHead=0;swimlaneBody=0;fontStyle=0;connectable=0;fillColor=none;startSize=0;collapsible=0;recursiveResize=0;expand=0;fontStyle=1;" parent="6X-bYf5D5h-iiWsrX3UB-14" vertex="1"><mxGeometry x="80" width="160" height="70" as="geometry"><mxRectangle width="160" height="70" as="alternateBounds"/></mxGeometry></mxCell><mxCell id="6X-bYf5D5h-iiWsrX3UB-16" value="" style="swimlane;swimlaneHead=0;swimlaneBody=0;fontStyle=0;connectable=0;fillColor=none;startSize=0;collapsible=0;recursiveResize=0;expand=0;fontStyle=1;" parent="6X-bYf5D5h-iiWsrX3UB-14" vertex="1"><mxGeometry x="240" width="160" height="70" as="geometry"><mxRectangle width="160" height="70" as="alternateBounds"/></mxGeometry></mxCell><mxCell id="6X-bYf5D5h-iiWsrX3UB-18" value="Aprove Role" style="rounded=0;whiteSpace=wrap;html=1;strokeWidth=2;" parent="6X-bYf5D5h-iiWsrX3UB-16" vertex="1"><mxGeometry x="34" y="20" width="100" height="30" as="geometry"/></mxCell><mxCell id="6X-bYf5D5h-iiWsrX3UB-17" value="" style="swimlane;swimlaneHead=0;swimlaneBody=0;fontStyle=0;connectable=0;fillColor=none;startSize=0;collapsible=0;recursiveResize=0;expand=0;fontStyle=1;" parent="6X-bYf5D5h-iiWsrX3UB-14" vertex="1"><mxGeometry x="400" width="160" height="70" as="geometry"><mxRectangle width="160" height="70" as="alternateBounds"/></mxGeometry></mxCell><mxCell id="6X-bYf5D5h-iiWsrX3UB-20" value="" style="group" parent="6X-bYf5D5h-iiWsrX3UB-17" vertex="1" connectable="0"><mxGeometry x="62.5" y="20" width="35" height="30" as="geometry"/></mxCell><mxCell id="6X-bYf5D5h-iiWsrX3UB-21" value="" style="strokeWidth=1;html=1;shape=mxgraph.flowchart.terminator;whiteSpace=wrap;fillColor=#97D077;strokeColor=#000000;" parent="6X-bYf5D5h-iiWsrX3UB-20" vertex="1"><mxGeometry width="35" height="30" as="geometry"/></mxCell><mxCell id="6X-bYf5D5h-iiWsrX3UB-22" value="" style="group" parent="6X-bYf5D5h-iiWsrX3UB-20" vertex="1" connectable="0"><mxGeometry x="7.5" y="5" width="20" height="20" as="geometry"/></mxCell><mxCell id="6X-bYf5D5h-iiWsrX3UB-23" value="" style="endArrow=none;html=1;rounded=0;strokeWidth=2;" parent="6X-bYf5D5h-iiWsrX3UB-22" edge="1"><mxGeometry width="50" height="50" relative="1" as="geometry"><mxPoint x="10" y="20" as="sourcePoint"/><mxPoint x="20" as="targetPoint"/></mxGeometry></mxCell><mxCell id="6X-bYf5D5h-iiWsrX3UB-24" value="" style="endArrow=none;html=1;rounded=0;strokeWidth=2;" parent="6X-bYf5D5h-iiWsrX3UB-22" edge="1"><mxGeometry width="50" height="50" relative="1" as="geometry"><mxPoint x="10" y="20" as="sourcePoint"/><mxPoint x="10" y="20" as="targetPoint"/><Array as="points"><mxPoint y="10"/></Array></mxGeometry></mxCell><mxCell id="6X-bYf5D5h-iiWsrX3UB-25" value="" style="endArrow=classic;html=1;rounded=1;fontSize=14;edgeStyle=orthogonalEdgeStyle;entryX=0;entryY=0.5;entryDx=0;entryDy=0;strokeWidth=2;entryPerimeter=0;" parent="6X-bYf5D5h-iiWsrX3UB-14" target="6X-bYf5D5h-iiWsrX3UB-21" edge="1"><mxGeometry width="50" height="50" relative="1" as="geometry"><mxPoint x="380" y="35" as="sourcePoint"/><mxPoint x="542" y="65" as="targetPoint"/><Array as="points"><mxPoint x="370" y="35"/><mxPoint x="370" y="35"/></Array></mxGeometry></mxCell><mxCell id="6X-bYf5D5h-iiWsrX3UB-26" value="" style="endArrow=classic;html=1;rounded=1;fontSize=14;edgeStyle=orthogonalEdgeStyle;exitX=1;exitY=0.5;exitDx=0;exitDy=0;entryX=0;entryY=0.5;entryDx=0;entryDy=0;strokeWidth=2;" parent="6X-bYf5D5h-iiWsrX3UB-0" source="6X-bYf5D5h-iiWsrX3UB-3" target="6X-bYf5D5h-iiWsrX3UB-18" edge="1"><mxGeometry width="50" height="50" relative="1" as="geometry"><mxPoint x="240" y="315" as="sourcePoint"/><mxPoint x="270" y="185" as="targetPoint"/><Array as="points"><mxPoint x="230" y="115"/><mxPoint x="230" y="185"/></Array></mxGeometry></mxCell><mxCell id="LrKUynLsYdyF1-BDT7OU-1" value="DECOMMISSION ROLE" style="shape=table;childLayout=tableLayout;startSize=40;collapsible=0;recursiveResize=0;expand=0;fontStyle=1;" parent="l4cDapwnNsKWZIV8bWFR-1" vertex="1"><mxGeometry x="40" y="320" width="560" height="250" as="geometry"/></mxCell><mxCell id="LrKUynLsYdyF1-BDT7OU-2" value="Role Owner,&#10;(IGA Engineer,&#10;Role Manager)" style="shape=tableRow;horizontal=0;startSize=80;swimlaneHead=0;swimlaneBody=0;top=0;left=0;bottom=0;right=0;dropTarget=0;fillColor=none;collapsible=0;recursiveResize=0;expand=0;fontStyle=1;" parent="LrKUynLsYdyF1-BDT7OU-1" vertex="1"><mxGeometry y="40" width="560" height="140" as="geometry"/></mxCell><mxCell id="LrKUynLsYdyF1-BDT7OU-3" value="ACTIVE" style="swimlane;swimlaneHead=0;swimlaneBody=0;fontStyle=0;connectable=0;fillColor=#97D077;startSize=40;collapsible=0;recursiveResize=0;expand=0;fontStyle=1;" parent="LrKUynLsYdyF1-BDT7OU-2" vertex="1"><mxGeometry x="80" width="160" height="140" as="geometry"><mxRectangle width="160" height="140" as="alternateBounds"/></mxGeometry></mxCell><mxCell id="LrKUynLsYdyF1-BDT7OU-4" value="Deprecate Role" style="rounded=0;whiteSpace=wrap;html=1;strokeWidth=2;" parent="LrKUynLsYdyF1-BDT7OU-3" vertex="1"><mxGeometry x="30" y="100" width="100" height="30" as="geometry"/></mxCell><mxCell id="k-DDmUD9PcvogFsf6Sn8-0" value="Archive Role" style="rounded=0;whiteSpace=wrap;html=1;strokeWidth=2;" parent="LrKUynLsYdyF1-BDT7OU-3" vertex="1"><mxGeometry x="30" y="55" width="100" height="30" as="geometry"/></mxCell><mxCell id="LrKUynLsYdyF1-BDT7OU-5" value="DEPRECATED" style="swimlane;swimlaneHead=0;swimlaneBody=0;fontStyle=0;connectable=0;fillColor=#D0D0D0;startSize=40;collapsible=0;recursiveResize=0;expand=0;fontStyle=1;" parent="LrKUynLsYdyF1-BDT7OU-2" vertex="1"><mxGeometry x="240" width="160" height="140" as="geometry"><mxRectangle width="160" height="140" as="alternateBounds"/></mxGeometry></mxCell><mxCell id="LrKUynLsYdyF1-BDT7OU-6" value="ARCHIVED" style="swimlane;swimlaneHead=0;swimlaneBody=0;fontStyle=0;connectable=0;fillColor=#F5F5F5;startSize=40;collapsible=0;recursiveResize=0;expand=0;fontStyle=1;gradientColor=none;" parent="LrKUynLsYdyF1-BDT7OU-2" vertex="1"><mxGeometry x="400" width="160" height="140" as="geometry"><mxRectangle width="160" height="140" as="alternateBounds"/></mxGeometry></mxCell><mxCell id="LrKUynLsYdyF1-BDT7OU-7" value="Role &#10;Manager" style="shape=tableRow;horizontal=0;startSize=80;swimlaneHead=0;swimlaneBody=0;top=0;left=0;bottom=0;right=0;dropTarget=0;fillColor=none;collapsible=0;recursiveResize=0;expand=0;fontStyle=1;" parent="LrKUynLsYdyF1-BDT7OU-1" vertex="1"><mxGeometry y="180" width="560" height="70" as="geometry"/></mxCell><mxCell id="LrKUynLsYdyF1-BDT7OU-8" value="" style="swimlane;swimlaneHead=0;swimlaneBody=0;fontStyle=0;connectable=0;fillColor=none;startSize=0;collapsible=0;recursiveResize=0;expand=0;fontStyle=1;" parent="LrKUynLsYdyF1-BDT7OU-7" vertex="1"><mxGeometry x="80" width="160" height="70" as="geometry"><mxRectangle width="160" height="70" as="alternateBounds"/></mxGeometry></mxCell><mxCell id="LrKUynLsYdyF1-BDT7OU-9" value="" style="swimlane;swimlaneHead=0;swimlaneBody=0;fontStyle=0;connectable=0;fillColor=none;startSize=0;collapsible=0;recursiveResize=0;expand=0;fontStyle=1;" parent="LrKUynLsYdyF1-BDT7OU-7" vertex="1"><mxGeometry x="240" width="160" height="70" as="geometry"><mxRectangle width="160" height="70" as="alternateBounds"/></mxGeometry></mxCell><mxCell id="LrKUynLsYdyF1-BDT7OU-10" value="Archive Role" style="rounded=0;whiteSpace=wrap;html=1;strokeWidth=2;" parent="LrKUynLsYdyF1-BDT7OU-9" vertex="1"><mxGeometry x="34" y="20" width="100" height="30" as="geometry"/></mxCell><mxCell id="LrKUynLsYdyF1-BDT7OU-11" value="" style="swimlane;swimlaneHead=0;swimlaneBody=0;fontStyle=0;connectable=0;fillColor=none;startSize=0;collapsible=0;recursiveResize=0;expand=0;fontStyle=1;" parent="LrKUynLsYdyF1-BDT7OU-7" vertex="1"><mxGeometry x="400" width="160" height="70" as="geometry"><mxRectangle width="160" height="70" as="alternateBounds"/></mxGeometry></mxCell><mxCell id="-pqguud3BaTr_Yl9McST-1" value="" style="group" parent="LrKUynLsYdyF1-BDT7OU-11" vertex="1" connectable="0"><mxGeometry x="62.5" y="20" width="35" height="30" as="geometry"/></mxCell><mxCell id="LrKUynLsYdyF1-BDT7OU-13" value="" style="strokeWidth=1;html=1;shape=mxgraph.flowchart.terminator;whiteSpace=wrap;fillColor=#F5F5F5;strokeColor=#000000;gradientColor=#B3B3B3;" parent="-pqguud3BaTr_Yl9McST-1" vertex="1"><mxGeometry width="35" height="30" as="geometry"/></mxCell><mxCell id="LrKUynLsYdyF1-BDT7OU-14" value="" style="group" parent="-pqguud3BaTr_Yl9McST-1" vertex="1" connectable="0"><mxGeometry x="7.5" y="5" width="20" height="20" as="geometry"/></mxCell><mxCell id="LrKUynLsYdyF1-BDT7OU-15" value="" style="endArrow=none;html=1;rounded=0;strokeWidth=2;" parent="LrKUynLsYdyF1-BDT7OU-14" edge="1"><mxGeometry width="50" height="50" relative="1" as="geometry"><mxPoint x="10" y="20" as="sourcePoint"/><mxPoint x="20" as="targetPoint"/></mxGeometry></mxCell><mxCell id="LrKUynLsYdyF1-BDT7OU-16" value="" style="endArrow=none;html=1;rounded=0;strokeWidth=2;" parent="LrKUynLsYdyF1-BDT7OU-14" edge="1"><mxGeometry width="50" height="50" relative="1" as="geometry"><mxPoint x="10" y="20" as="sourcePoint"/><mxPoint x="10" y="20" as="targetPoint"/><Array as="points"><mxPoint y="10"/></Array></mxGeometry></mxCell><mxCell id="LrKUynLsYdyF1-BDT7OU-17" value="" style="endArrow=classic;html=1;rounded=1;fontSize=14;edgeStyle=orthogonalEdgeStyle;entryX=0;entryY=0.5;entryDx=0;entryDy=0;strokeWidth=2;entryPerimeter=0;" parent="LrKUynLsYdyF1-BDT7OU-7" target="LrKUynLsYdyF1-BDT7OU-13" edge="1"><mxGeometry width="50" height="50" relative="1" as="geometry"><mxPoint x="380" y="35" as="sourcePoint"/><mxPoint x="542" y="65" as="targetPoint"/><Array as="points"><mxPoint x="370" y="35"/><mxPoint x="370" y="35"/></Array></mxGeometry></mxCell><mxCell id="LrKUynLsYdyF1-BDT7OU-18" value="" style="endArrow=classic;html=1;rounded=1;fontSize=14;edgeStyle=orthogonalEdgeStyle;exitX=1;exitY=0.5;exitDx=0;exitDy=0;entryX=0;entryY=0.5;entryDx=0;entryDy=0;strokeWidth=2;" parent="LrKUynLsYdyF1-BDT7OU-1" source="LrKUynLsYdyF1-BDT7OU-4" target="LrKUynLsYdyF1-BDT7OU-10" edge="1"><mxGeometry width="50" height="50" relative="1" as="geometry"><mxPoint x="240" y="315" as="sourcePoint"/><mxPoint x="270" y="185" as="targetPoint"/><Array as="points"><mxPoint x="230" y="155"/><mxPoint x="230" y="215"/></Array></mxGeometry></mxCell><mxCell id="-pqguud3BaTr_Yl9McST-2" value="" style="endArrow=classic;html=1;rounded=1;fontSize=14;edgeStyle=orthogonalEdgeStyle;exitX=1;exitY=0.5;exitDx=0;exitDy=0;strokeWidth=2;" parent="LrKUynLsYdyF1-BDT7OU-1" source="k-DDmUD9PcvogFsf6Sn8-0" edge="1"><mxGeometry width="50" height="50" relative="1" as="geometry"><mxPoint x="220" y="125" as="sourcePoint"/><mxPoint x="480" y="200" as="targetPoint"/><Array as="points"><mxPoint x="480" y="110"/></Array></mxGeometry></mxCell></root></mxGraphModel></diagram><diagram id="UAdrXD9ATbV7TE7V7EU8" name="app-role-design"><mxGraphModel dx="1498" dy="1102" grid="1" gridSize="10" guides="1" tooltips="1" connect="1" arrows="1" fold="1" page="1" pageScale="1" pageWidth="827" pageHeight="1169" math="0" shadow="0"><root><mxCell id="Ov14lhYo1bep5EIF34hr-0"/><mxCell id="Ov14lhYo1bep5EIF34hr-1" parent="Ov14lhYo1bep5EIF34hr-0"/><mxCell id="Ov14lhYo1bep5EIF34hr-100" value="" style="rounded=0;whiteSpace=wrap;html=1;fontSize=14;fillColor=#D4E1F5;" parent="Ov14lhYo1bep5EIF34hr-1" vertex="1"><mxGeometry x="28.63" y="1410" width="480" height="40" as="geometry"/></mxCell><mxCell id="Ov14lhYo1bep5EIF34hr-84" value="" style="rounded=0;whiteSpace=wrap;html=1;fontSize=14;fillColor=#D4E1F5;" parent="Ov14lhYo1bep5EIF34hr-1" vertex="1"><mxGeometry x="28.63" y="1010" width="480" height="390" as="geometry"/></mxCell><mxCell id="Ov14lhYo1bep5EIF34hr-36" value="" style="rounded=0;whiteSpace=wrap;html=1;fontSize=14;fillColor=#D4E1F5;" parent="Ov14lhYo1bep5EIF34hr-1" vertex="1"><mxGeometry x="30" y="40" width="480" height="470" as="geometry"/></mxCell><mxCell id="Ov14lhYo1bep5EIF34hr-2" value="" style="rounded=0;whiteSpace=wrap;html=1;" parent="Ov14lhYo1bep5EIF34hr-1" vertex="1"><mxGeometry x="200" y="70" width="280" height="20" as="geometry"/></mxCell><mxCell id="Ov14lhYo1bep5EIF34hr-3" value="&lt;font style=&quot;font-size: 14px&quot;&gt;Role name&lt;/font&gt;" style="text;html=1;strokeColor=none;fillColor=none;align=left;verticalAlign=middle;whiteSpace=wrap;rounded=0;" parent="Ov14lhYo1bep5EIF34hr-1" vertex="1"><mxGeometry x="80" y="70" width="110" height="20" as="geometry"/></mxCell><mxCell id="Ov14lhYo1bep5EIF34hr-4" value="" style="rounded=0;whiteSpace=wrap;html=1;" parent="Ov14lhYo1bep5EIF34hr-1" vertex="1"><mxGeometry x="200" y="100" width="280" height="70" as="geometry"/></mxCell><mxCell id="Ov14lhYo1bep5EIF34hr-5" value="&lt;font style=&quot;font-size: 14px&quot;&gt;Description&lt;/font&gt;" style="text;html=1;strokeColor=none;fillColor=none;align=left;verticalAlign=middle;whiteSpace=wrap;rounded=0;" parent="Ov14lhYo1bep5EIF34hr-1" vertex="1"><mxGeometry x="80" y="100" width="110" height="20" as="geometry"/></mxCell><mxCell id="Ov14lhYo1bep5EIF34hr-6" value="&lt;font style=&quot;font-size: 14px&quot;&gt;Application&lt;/font&gt;" style="text;html=1;strokeColor=none;fillColor=none;align=left;verticalAlign=middle;whiteSpace=wrap;rounded=0;" parent="Ov14lhYo1bep5EIF34hr-1" vertex="1"><mxGeometry x="80" y="180" width="110" height="20" as="geometry"/></mxCell><mxCell id="Ov14lhYo1bep5EIF34hr-7" value="" style="rounded=0;whiteSpace=wrap;html=1;" parent="Ov14lhYo1bep5EIF34hr-1" vertex="1"><mxGeometry x="200" y="180" width="280" height="20" as="geometry"/></mxCell><mxCell id="Ov14lhYo1bep5EIF34hr-8" value="&lt;font style=&quot;font-size: 14px&quot;&gt;Environment&lt;/font&gt;" style="text;html=1;strokeColor=none;fillColor=none;align=left;verticalAlign=middle;whiteSpace=wrap;rounded=0;" parent="Ov14lhYo1bep5EIF34hr-1" vertex="1"><mxGeometry x="80" y="210" width="110" height="20" as="geometry"/></mxCell><mxCell id="Ov14lhYo1bep5EIF34hr-9" value="&lt;font style=&quot;font-size: 14px&quot;&gt;Owner&lt;/font&gt;" style="text;html=1;strokeColor=none;fillColor=none;align=left;verticalAlign=middle;whiteSpace=wrap;rounded=0;" parent="Ov14lhYo1bep5EIF34hr-1" vertex="1"><mxGeometry x="80" y="240" width="110" height="20" as="geometry"/></mxCell><mxCell id="Ov14lhYo1bep5EIF34hr-10" value="&lt;font style=&quot;font-size: 14px&quot;&gt;Access level&lt;/font&gt;" style="text;html=1;strokeColor=none;fillColor=none;align=left;verticalAlign=middle;whiteSpace=wrap;rounded=0;" parent="Ov14lhYo1bep5EIF34hr-1" vertex="1"><mxGeometry x="80" y="270" width="110" height="20" as="geometry"/></mxCell><mxCell id="Ov14lhYo1bep5EIF34hr-11" value="&lt;font style=&quot;font-size: 14px&quot;&gt;Risk level&lt;/font&gt;" style="text;html=1;strokeColor=none;fillColor=none;align=left;verticalAlign=middle;whiteSpace=wrap;rounded=0;" parent="Ov14lhYo1bep5EIF34hr-1" vertex="1"><mxGeometry x="80" y="300" width="110" height="20" as="geometry"/></mxCell><mxCell id="Ov14lhYo1bep5EIF34hr-13" value="" style="rounded=0;whiteSpace=wrap;html=1;" parent="Ov14lhYo1bep5EIF34hr-1" vertex="1"><mxGeometry x="200" y="240" width="280" height="20" as="geometry"/></mxCell><mxCell id="Ov14lhYo1bep5EIF34hr-15" value="" style="rounded=0;whiteSpace=wrap;html=1;" parent="Ov14lhYo1bep5EIF34hr-1" vertex="1"><mxGeometry x="200" y="300" width="40" height="20" as="geometry"/></mxCell><mxCell id="Ov14lhYo1bep5EIF34hr-18" value="&lt;span style=&quot;font-size: 14px&quot;&gt;Business description&lt;/span&gt;" style="text;html=1;strokeColor=none;fillColor=none;align=left;verticalAlign=middle;whiteSpace=wrap;rounded=0;fontStyle=1" parent="Ov14lhYo1bep5EIF34hr-1" vertex="1"><mxGeometry x="40" y="40" width="180" height="20" as="geometry"/></mxCell><mxCell id="Ov14lhYo1bep5EIF34hr-24" value="&lt;font style=&quot;font-size: 14px&quot;&gt;Approval policy&lt;/font&gt;" style="text;html=1;strokeColor=none;fillColor=none;align=left;verticalAlign=middle;whiteSpace=wrap;rounded=0;" parent="Ov14lhYo1bep5EIF34hr-1" vertex="1"><mxGeometry x="80" y="360" width="110" height="20" as="geometry"/></mxCell><mxCell id="Ov14lhYo1bep5EIF34hr-25" value="&lt;font style=&quot;font-size: 14px&quot;&gt;Requestable&lt;/font&gt;" style="text;html=1;strokeColor=none;fillColor=none;align=left;verticalAlign=middle;whiteSpace=wrap;rounded=0;" parent="Ov14lhYo1bep5EIF34hr-1" vertex="1"><mxGeometry x="80" y="330" width="110" height="20" as="geometry"/></mxCell><mxCell id="Ov14lhYo1bep5EIF34hr-27" value="" style="group" parent="Ov14lhYo1bep5EIF34hr-1" vertex="1" connectable="0"><mxGeometry x="200" y="330" width="80" height="20" as="geometry"/></mxCell><mxCell id="Ov14lhYo1bep5EIF34hr-22" value="&lt;font style=&quot;font-size: 11px&quot;&gt;Yes / No&lt;/font&gt;" style="rounded=0;whiteSpace=wrap;html=1;align=left;" parent="Ov14lhYo1bep5EIF34hr-27" vertex="1"><mxGeometry width="80" height="20" as="geometry"/></mxCell><mxCell id="Ov14lhYo1bep5EIF34hr-23" value="" style="triangle;whiteSpace=wrap;html=1;fontSize=14;rotation=90;fillColor=#4D4D4D;" parent="Ov14lhYo1bep5EIF34hr-27" vertex="1"><mxGeometry x="65" y="5" width="10" height="10" as="geometry"/></mxCell><mxCell id="Ov14lhYo1bep5EIF34hr-28" value="" style="group;align=left;" parent="Ov14lhYo1bep5EIF34hr-1" vertex="1" connectable="0"><mxGeometry x="200" y="270" width="280" height="20" as="geometry"/></mxCell><mxCell id="Ov14lhYo1bep5EIF34hr-14" value="Standard user / Power user / Privileged user&amp;nbsp;" style="rounded=0;whiteSpace=wrap;html=1;align=left;" parent="Ov14lhYo1bep5EIF34hr-28" vertex="1"><mxGeometry width="280" height="20" as="geometry"/></mxCell><mxCell id="Ov14lhYo1bep5EIF34hr-16" value="" style="triangle;whiteSpace=wrap;html=1;fontSize=14;rotation=90;fillColor=#4D4D4D;" parent="Ov14lhYo1bep5EIF34hr-28" vertex="1"><mxGeometry x="265" y="5" width="10" height="10" as="geometry"/></mxCell><mxCell id="Ov14lhYo1bep5EIF34hr-44" value="" style="shape=curlyBracket;whiteSpace=wrap;html=1;rounded=1;fontSize=14;fillColor=none;" parent="Ov14lhYo1bep5EIF34hr-1" vertex="1"><mxGeometry x="520" y="385" width="20" height="30" as="geometry"/></mxCell><mxCell id="Ov14lhYo1bep5EIF34hr-60" value="&lt;span style=&quot;font-size: 14px&quot;&gt;Technical details - manual provisioning&lt;/span&gt;" style="text;html=1;strokeColor=none;fillColor=none;align=left;verticalAlign=middle;whiteSpace=wrap;rounded=0;fontStyle=1" parent="Ov14lhYo1bep5EIF34hr-1" vertex="1"><mxGeometry x="38.63" y="1015" width="310" height="20" as="geometry"/></mxCell><mxCell id="Ov14lhYo1bep5EIF34hr-61" value="&lt;span style=&quot;font-size: 14px&quot;&gt;Manual task 1&lt;/span&gt;" style="text;html=1;strokeColor=default;fillColor=none;align=center;verticalAlign=middle;whiteSpace=wrap;rounded=0;fontStyle=1;rotation=-90;" parent="Ov14lhYo1bep5EIF34hr-1" vertex="1"><mxGeometry x="-93.87" y="1187.5" width="305" height="20" as="geometry"/></mxCell><mxCell id="Ov14lhYo1bep5EIF34hr-62" value="&lt;font style=&quot;font-size: 14px&quot;&gt;Resource&lt;/font&gt;" style="text;html=1;strokeColor=none;fillColor=none;align=left;verticalAlign=middle;whiteSpace=wrap;rounded=0;" parent="Ov14lhYo1bep5EIF34hr-1" vertex="1"><mxGeometry x="78.63" y="1040" width="110" height="20" as="geometry"/></mxCell><mxCell id="Ov14lhYo1bep5EIF34hr-63" value="" style="shape=curlyBracket;whiteSpace=wrap;html=1;rounded=1;fontSize=14;fillColor=none;" parent="Ov14lhYo1bep5EIF34hr-1" vertex="1"><mxGeometry x="518.63" y="1040" width="20" height="25" as="geometry"/></mxCell><mxCell id="Ov14lhYo1bep5EIF34hr-64" value="Selection of manual resource" style="text;html=1;strokeColor=none;fillColor=none;align=left;verticalAlign=middle;whiteSpace=wrap;rounded=0;fontSize=10;" parent="Ov14lhYo1bep5EIF34hr-1" vertex="1"><mxGeometry x="538.63" y="1040" width="240" height="20" as="geometry"/></mxCell><mxCell id="Ov14lhYo1bep5EIF34hr-69" value="" style="shape=curlyBracket;whiteSpace=wrap;html=1;rounded=1;fontSize=14;fillColor=none;" parent="Ov14lhYo1bep5EIF34hr-1" vertex="1"><mxGeometry x="518.63" y="560" width="20" height="40" as="geometry"/></mxCell><mxCell id="Ov14lhYo1bep5EIF34hr-71" value="" style="shape=curlyBracket;whiteSpace=wrap;html=1;rounded=1;fontSize=14;fillColor=none;" parent="Ov14lhYo1bep5EIF34hr-1" vertex="1"><mxGeometry x="516.63" y="894" width="20" height="36" as="geometry"/></mxCell><mxCell id="Ov14lhYo1bep5EIF34hr-73" value="&lt;b&gt;Add manual task&lt;/b&gt;" style="rounded=1;whiteSpace=wrap;html=1;fontSize=14;fillColor=none;" parent="Ov14lhYo1bep5EIF34hr-1" vertex="1"><mxGeometry x="76.63" y="1370" width="130" height="20" as="geometry"/></mxCell><mxCell id="Ov14lhYo1bep5EIF34hr-74" value="&lt;font style=&quot;font-size: 14px&quot;&gt;Realization team&lt;/font&gt;" style="text;html=1;strokeColor=none;fillColor=none;align=left;verticalAlign=middle;whiteSpace=wrap;rounded=0;" parent="Ov14lhYo1bep5EIF34hr-1" vertex="1"><mxGeometry x="78.63" y="1100" width="110" height="20" as="geometry"/></mxCell><mxCell id="Ov14lhYo1bep5EIF34hr-75" value="" style="rounded=0;whiteSpace=wrap;html=1;" parent="Ov14lhYo1bep5EIF34hr-1" vertex="1"><mxGeometry x="198.63" y="1100" width="280" height="20" as="geometry"/></mxCell><mxCell id="Ov14lhYo1bep5EIF34hr-76" value="&lt;font style=&quot;font-size: 14px&quot;&gt;Task name&lt;/font&gt;" style="text;html=1;strokeColor=none;fillColor=none;align=left;verticalAlign=middle;whiteSpace=wrap;rounded=0;" parent="Ov14lhYo1bep5EIF34hr-1" vertex="1"><mxGeometry x="78.63" y="1130" width="110" height="20" as="geometry"/></mxCell><mxCell id="Ov14lhYo1bep5EIF34hr-77" value="&lt;font style=&quot;font-size: 14px&quot;&gt;Provisioning text&lt;/font&gt;" style="text;html=1;strokeColor=none;fillColor=none;align=left;verticalAlign=middle;whiteSpace=wrap;rounded=0;" parent="Ov14lhYo1bep5EIF34hr-1" vertex="1"><mxGeometry x="78.63" y="1160" width="110" height="20" as="geometry"/></mxCell><mxCell id="Ov14lhYo1bep5EIF34hr-78" value="&lt;font style=&quot;font-size: 14px&quot;&gt;Deprovisioning text&lt;/font&gt;" style="text;html=1;strokeColor=none;fillColor=none;align=left;verticalAlign=middle;whiteSpace=wrap;rounded=0;" parent="Ov14lhYo1bep5EIF34hr-1" vertex="1"><mxGeometry x="78.63" y="1220" width="110" height="20" as="geometry"/></mxCell><mxCell id="Ov14lhYo1bep5EIF34hr-79" value="" style="rounded=0;whiteSpace=wrap;html=1;" parent="Ov14lhYo1bep5EIF34hr-1" vertex="1"><mxGeometry x="198.63" y="1130" width="280" height="20" as="geometry"/></mxCell><mxCell id="Ov14lhYo1bep5EIF34hr-80" value="" style="rounded=0;whiteSpace=wrap;html=1;" parent="Ov14lhYo1bep5EIF34hr-1" vertex="1"><mxGeometry x="198.63" y="1160" width="280" height="40" as="geometry"/></mxCell><mxCell id="Ov14lhYo1bep5EIF34hr-81" value="" style="rounded=0;whiteSpace=wrap;html=1;" parent="Ov14lhYo1bep5EIF34hr-1" vertex="1"><mxGeometry x="198.63" y="1210" width="280" height="40" as="geometry"/></mxCell><mxCell id="Ov14lhYo1bep5EIF34hr-82" value="" style="endArrow=none;html=1;rounded=0;fontSize=14;dashed=1;" parent="Ov14lhYo1bep5EIF34hr-1" edge="1"><mxGeometry width="50" height="50" relative="1" as="geometry"><mxPoint x="36.63" y="1360" as="sourcePoint"/><mxPoint x="496.63" y="1360" as="targetPoint"/></mxGeometry></mxCell><mxCell id="Ov14lhYo1bep5EIF34hr-86" value="Technical description of inducements. This is designed to be filled by application engineer." style="text;html=1;strokeColor=none;fillColor=none;align=left;verticalAlign=middle;whiteSpace=wrap;rounded=0;fontSize=10;fontStyle=1" parent="Ov14lhYo1bep5EIF34hr-1" vertex="1"><mxGeometry x="528.63" y="520" width="260" height="20" as="geometry"/></mxCell><mxCell id="Ov14lhYo1bep5EIF34hr-87" value="&lt;span style=&quot;font-size: 14px&quot;&gt;Additional role configuration&lt;/span&gt;" style="text;html=1;strokeColor=none;fillColor=none;align=left;verticalAlign=middle;whiteSpace=wrap;rounded=0;fontStyle=1" parent="Ov14lhYo1bep5EIF34hr-1" vertex="1"><mxGeometry x="38.63" y="1420" width="210" height="20" as="geometry"/></mxCell><mxCell id="Ov14lhYo1bep5EIF34hr-88" value="&lt;b&gt;...&lt;/b&gt;" style="rounded=1;whiteSpace=wrap;html=1;fontSize=14;fillColor=none;" parent="Ov14lhYo1bep5EIF34hr-1" vertex="1"><mxGeometry x="238.63" y="1420" width="40" height="20" as="geometry"/></mxCell><mxCell id="Ov14lhYo1bep5EIF34hr-95" value="&lt;font style=&quot;font-size: 14px&quot;&gt;Lifecycle state&lt;/font&gt;" style="text;html=1;strokeColor=none;fillColor=none;align=left;verticalAlign=middle;whiteSpace=wrap;rounded=0;" parent="Ov14lhYo1bep5EIF34hr-1" vertex="1"><mxGeometry x="80" y="390" width="110" height="20" as="geometry"/></mxCell><mxCell id="Ov14lhYo1bep5EIF34hr-96" value="Lifecycle state of the Role object. It will be read only." style="text;html=1;strokeColor=none;fillColor=none;align=left;verticalAlign=middle;whiteSpace=wrap;rounded=0;fontSize=10;" parent="Ov14lhYo1bep5EIF34hr-1" vertex="1"><mxGeometry x="540" y="390" width="260" height="20" as="geometry"/></mxCell><mxCell id="Ov14lhYo1bep5EIF34hr-101" value="Link to operation team in ITSM&amp;nbsp; who performs administration tasks." style="text;html=1;strokeColor=none;fillColor=none;align=left;verticalAlign=middle;whiteSpace=wrap;rounded=0;fontSize=10;" parent="Ov14lhYo1bep5EIF34hr-1" vertex="1"><mxGeometry x="538.63" y="1105" width="210" height="20" as="geometry"/></mxCell><mxCell id="Ov14lhYo1bep5EIF34hr-102" value="" style="shape=curlyBracket;whiteSpace=wrap;html=1;rounded=1;fontSize=14;fillColor=none;" parent="Ov14lhYo1bep5EIF34hr-1" vertex="1"><mxGeometry x="518.63" y="1100" width="20" height="30" as="geometry"/></mxCell><mxCell id="Ov14lhYo1bep5EIF34hr-103" value="" style="shape=curlyBracket;whiteSpace=wrap;html=1;rounded=1;fontSize=14;fillColor=none;" parent="Ov14lhYo1bep5EIF34hr-1" vertex="1"><mxGeometry x="518.63" y="1130" width="20" height="30" as="geometry"/></mxCell><mxCell id="Ov14lhYo1bep5EIF34hr-104" value="Task identification in ITSM - subject of the task." style="text;html=1;strokeColor=none;fillColor=none;align=left;verticalAlign=middle;whiteSpace=wrap;rounded=0;fontSize=10;" parent="Ov14lhYo1bep5EIF34hr-1" vertex="1"><mxGeometry x="538.63" y="1135" width="210" height="20" as="geometry"/></mxCell><mxCell id="Ov14lhYo1bep5EIF34hr-105" value="" style="shape=curlyBracket;whiteSpace=wrap;html=1;rounded=1;fontSize=14;fillColor=none;" parent="Ov14lhYo1bep5EIF34hr-1" vertex="1"><mxGeometry x="518.63" y="1160" width="20" height="30" as="geometry"/></mxCell><mxCell id="Ov14lhYo1bep5EIF34hr-106" value="" style="shape=curlyBracket;whiteSpace=wrap;html=1;rounded=1;fontSize=14;fillColor=none;" parent="Ov14lhYo1bep5EIF34hr-1" vertex="1"><mxGeometry x="518.63" y="1210" width="20" height="30" as="geometry"/></mxCell><mxCell id="Ov14lhYo1bep5EIF34hr-107" value="Working procedure for manual provisioning (or link to some wiki)" style="text;html=1;strokeColor=none;fillColor=none;align=left;verticalAlign=middle;whiteSpace=wrap;rounded=0;fontSize=10;" parent="Ov14lhYo1bep5EIF34hr-1" vertex="1"><mxGeometry x="538.63" y="1165" width="210" height="20" as="geometry"/></mxCell><mxCell id="Ov14lhYo1bep5EIF34hr-109" value="&lt;font style=&quot;font-size: 14px&quot;&gt;Additional configuration&lt;/font&gt;" style="text;html=1;strokeColor=none;fillColor=none;align=left;verticalAlign=middle;whiteSpace=wrap;rounded=0;" parent="Ov14lhYo1bep5EIF34hr-1" vertex="1"><mxGeometry x="76.63" y="1330" width="150" height="20" as="geometry"/></mxCell><mxCell id="Ov14lhYo1bep5EIF34hr-110" value="&lt;b&gt;...&lt;/b&gt;" style="rounded=1;whiteSpace=wrap;html=1;fontSize=14;fillColor=none;" parent="Ov14lhYo1bep5EIF34hr-1" vertex="1"><mxGeometry x="236.63" y="1330" width="40" height="20" as="geometry"/></mxCell><mxCell id="Ov14lhYo1bep5EIF34hr-111" value="&amp;lt;Additional configuration is present&amp;gt;" style="text;html=1;strokeColor=none;fillColor=none;align=left;verticalAlign=middle;whiteSpace=wrap;rounded=0;fontSize=10;" parent="Ov14lhYo1bep5EIF34hr-1" vertex="1"><mxGeometry x="286.63" y="1330" width="210" height="20" as="geometry"/></mxCell><mxCell id="rho3SbjvTa7DO_q7kkdx-0" value="" style="group" parent="Ov14lhYo1bep5EIF34hr-1" vertex="1" connectable="0"><mxGeometry x="200" y="210" width="280" height="20" as="geometry"/></mxCell><mxCell id="rho3SbjvTa7DO_q7kkdx-1" value="" style="rounded=0;whiteSpace=wrap;html=1;" parent="rho3SbjvTa7DO_q7kkdx-0" vertex="1"><mxGeometry width="280" height="20" as="geometry"/></mxCell><mxCell id="rho3SbjvTa7DO_q7kkdx-2" value="" style="triangle;whiteSpace=wrap;html=1;fontSize=14;rotation=90;fillColor=#4D4D4D;" parent="rho3SbjvTa7DO_q7kkdx-0" vertex="1"><mxGeometry x="265" y="5" width="10" height="10" as="geometry"/></mxCell><mxCell id="rho3SbjvTa7DO_q7kkdx-3" value="" style="rounded=0;whiteSpace=wrap;html=1;" parent="Ov14lhYo1bep5EIF34hr-1" vertex="1"><mxGeometry x="198.63" y="1260" width="280" height="40" as="geometry"/></mxCell><mxCell id="rho3SbjvTa7DO_q7kkdx-4" value="&lt;font style=&quot;font-size: 14px&quot;&gt;Modification text&lt;/font&gt;" style="text;html=1;strokeColor=none;fillColor=none;align=left;verticalAlign=middle;whiteSpace=wrap;rounded=0;" parent="Ov14lhYo1bep5EIF34hr-1" vertex="1"><mxGeometry x="78.63" y="1270" width="110" height="20" as="geometry"/></mxCell><mxCell id="rho3SbjvTa7DO_q7kkdx-5" value="&amp;lt;Additional configuration is present&amp;gt;" style="text;html=1;strokeColor=none;fillColor=none;align=left;verticalAlign=middle;whiteSpace=wrap;rounded=0;fontSize=10;" parent="Ov14lhYo1bep5EIF34hr-1" vertex="1"><mxGeometry x="286.63" y="1420" width="210" height="20" as="geometry"/></mxCell><mxCell id="rho3SbjvTa7DO_q7kkdx-7" value="" style="shape=curlyBracket;whiteSpace=wrap;html=1;rounded=1;fontSize=14;fillColor=none;" parent="Ov14lhYo1bep5EIF34hr-1" vertex="1"><mxGeometry x="516.63" y="942.5" width="20" height="25" as="geometry"/></mxCell><mxCell id="rho3SbjvTa7DO_q7kkdx-8" value="Add additional resource - if there are multiple resources managed by 1 role." style="text;html=1;strokeColor=none;fillColor=none;align=left;verticalAlign=middle;whiteSpace=wrap;rounded=0;fontSize=10;" parent="Ov14lhYo1bep5EIF34hr-1" vertex="1"><mxGeometry x="536.63" y="947.5" width="260" height="20" as="geometry"/></mxCell><mxCell id="rho3SbjvTa7DO_q7kkdx-9" value="Additional advanced configuration of the role object. E.g. SoD policies here.&lt;br&gt;Probably full display of XML here." style="text;html=1;strokeColor=none;fillColor=none;align=left;verticalAlign=middle;whiteSpace=wrap;rounded=0;fontSize=10;" parent="Ov14lhYo1bep5EIF34hr-1" vertex="1"><mxGeometry x="538.63" y="1420" width="260" height="20" as="geometry"/></mxCell><mxCell id="rho3SbjvTa7DO_q7kkdx-10" value="" style="shape=curlyBracket;whiteSpace=wrap;html=1;rounded=1;fontSize=14;fillColor=none;" parent="Ov14lhYo1bep5EIF34hr-1" vertex="1"><mxGeometry x="518.63" y="1415" width="20" height="30" as="geometry"/></mxCell><mxCell id="rho3SbjvTa7DO_q7kkdx-11" value="" style="shape=curlyBracket;whiteSpace=wrap;html=1;rounded=1;fontSize=14;fillColor=none;" parent="Ov14lhYo1bep5EIF34hr-1" vertex="1"><mxGeometry x="518.63" y="1270" width="20" height="30" as="geometry"/></mxCell><mxCell id="rho3SbjvTa7DO_q7kkdx-14" value="" style="rounded=0;whiteSpace=wrap;html=1;" parent="Ov14lhYo1bep5EIF34hr-1" vertex="1"><mxGeometry x="198.63" y="1070" width="280" height="20" as="geometry"/></mxCell><mxCell id="rho3SbjvTa7DO_q7kkdx-15" value="&lt;font style=&quot;font-size: 14px&quot;&gt;Documentation&lt;/font&gt;" style="text;html=1;strokeColor=none;fillColor=none;align=left;verticalAlign=middle;whiteSpace=wrap;rounded=0;" parent="Ov14lhYo1bep5EIF34hr-1" vertex="1"><mxGeometry x="78.63" y="1070" width="110" height="20" as="geometry"/></mxCell><mxCell id="rho3SbjvTa7DO_q7kkdx-16" value="" style="shape=curlyBracket;whiteSpace=wrap;html=1;rounded=1;fontSize=14;fillColor=none;" parent="Ov14lhYo1bep5EIF34hr-1" vertex="1"><mxGeometry x="516.63" y="1065" width="20" height="30" as="geometry"/></mxCell><mxCell id="rho3SbjvTa7DO_q7kkdx-17" value="Note, what is happening in this operation.&amp;nbsp;&lt;br&gt;E.g.: Manual creation of account in component XYZ." style="text;html=1;strokeColor=none;fillColor=none;align=left;verticalAlign=middle;whiteSpace=wrap;rounded=0;fontSize=10;" parent="Ov14lhYo1bep5EIF34hr-1" vertex="1"><mxGeometry x="538.63" y="1070" width="240" height="20" as="geometry"/></mxCell><mxCell id="rho3SbjvTa7DO_q7kkdx-20" value="" style="shape=curlyBracket;whiteSpace=wrap;html=1;rounded=1;fontSize=14;fillColor=none;size=0.5;" parent="Ov14lhYo1bep5EIF34hr-1" vertex="1"><mxGeometry x="518" y="175" width="20" height="30" as="geometry"/></mxCell><mxCell id="rho3SbjvTa7DO_q7kkdx-21" value="" style="shape=curlyBracket;whiteSpace=wrap;html=1;rounded=1;fontSize=14;fillColor=none;size=0.5;" parent="Ov14lhYo1bep5EIF34hr-1" vertex="1"><mxGeometry x="520" y="205" width="20" height="30" as="geometry"/></mxCell><mxCell id="rho3SbjvTa7DO_q7kkdx-22" value="" style="shape=curlyBracket;whiteSpace=wrap;html=1;rounded=1;fontSize=14;fillColor=none;size=0.5;" parent="Ov14lhYo1bep5EIF34hr-1" vertex="1"><mxGeometry x="518" y="235" width="20" height="30" as="geometry"/></mxCell><mxCell id="rho3SbjvTa7DO_q7kkdx-23" value="" style="shape=curlyBracket;whiteSpace=wrap;html=1;rounded=1;fontSize=14;fillColor=none;size=0.5;" parent="Ov14lhYo1bep5EIF34hr-1" vertex="1"><mxGeometry x="520" y="265" width="20" height="30" as="geometry"/></mxCell><mxCell id="rho3SbjvTa7DO_q7kkdx-24" value="" style="shape=curlyBracket;whiteSpace=wrap;html=1;rounded=1;fontSize=14;fillColor=none;size=0.5;" parent="Ov14lhYo1bep5EIF34hr-1" vertex="1"><mxGeometry x="520" y="295" width="20" height="30" as="geometry"/></mxCell><mxCell id="rho3SbjvTa7DO_q7kkdx-26" value="" style="shape=curlyBracket;whiteSpace=wrap;html=1;rounded=1;fontSize=14;fillColor=none;size=0.5;" parent="Ov14lhYo1bep5EIF34hr-1" vertex="1"><mxGeometry x="520" y="355" width="20" height="30" as="geometry"/></mxCell><mxCell id="rho3SbjvTa7DO_q7kkdx-28" value="Business description of the role. This chapter is deigned to be visible for everybody - also end users." style="text;html=1;strokeColor=none;fillColor=none;align=left;verticalAlign=middle;whiteSpace=wrap;rounded=0;fontSize=10;fontStyle=1" parent="Ov14lhYo1bep5EIF34hr-1" vertex="1"><mxGeometry x="530" y="40" width="260" height="20" as="geometry"/></mxCell><mxCell id="rho3SbjvTa7DO_q7kkdx-32" value="Selection from approval policies. Just 1 policy." style="text;html=1;strokeColor=none;fillColor=none;align=left;verticalAlign=middle;whiteSpace=wrap;rounded=0;fontSize=10;" parent="Ov14lhYo1bep5EIF34hr-1" vertex="1"><mxGeometry x="540" y="360" width="260" height="20" as="geometry"/></mxCell><mxCell id="rho3SbjvTa7DO_q7kkdx-34" value="Link to the application." style="text;html=1;strokeColor=none;fillColor=none;align=left;verticalAlign=middle;whiteSpace=wrap;rounded=0;fontSize=10;" parent="Ov14lhYo1bep5EIF34hr-1" vertex="1"><mxGeometry x="538" y="180" width="260" height="20" as="geometry"/></mxCell><mxCell id="rho3SbjvTa7DO_q7kkdx-35" value="&lt;span style=&quot;font-size: 14px;&quot;&gt;Application role design screen&lt;/span&gt;" style="text;html=1;strokeColor=none;fillColor=none;align=left;verticalAlign=middle;whiteSpace=wrap;rounded=0;fontStyle=1;fontSize=14;" parent="Ov14lhYo1bep5EIF34hr-1" vertex="1"><mxGeometry x="30" y="10" width="240" height="20" as="geometry"/></mxCell><mxCell id="rho3SbjvTa7DO_q7kkdx-36" value="Environment - PROD/TEST/DEV/ACC" style="text;html=1;strokeColor=none;fillColor=none;align=left;verticalAlign=middle;whiteSpace=wrap;rounded=0;fontSize=10;" parent="Ov14lhYo1bep5EIF34hr-1" vertex="1"><mxGeometry x="538" y="210" width="260" height="20" as="geometry"/></mxCell><mxCell id="rho3SbjvTa7DO_q7kkdx-37" value="Role owner" style="text;html=1;strokeColor=none;fillColor=none;align=left;verticalAlign=middle;whiteSpace=wrap;rounded=0;fontSize=10;" parent="Ov14lhYo1bep5EIF34hr-1" vertex="1"><mxGeometry x="540" y="240" width="260" height="20" as="geometry"/></mxCell><mxCell id="XJHgL66lkJ3qZK1G7boa-0" value="" style="rounded=0;whiteSpace=wrap;html=1;fontSize=14;fillColor=#D4E1F5;" parent="Ov14lhYo1bep5EIF34hr-1" vertex="1"><mxGeometry x="28.63" y="520" width="480" height="480" as="geometry"/></mxCell><mxCell id="XJHgL66lkJ3qZK1G7boa-1" value="&lt;span style=&quot;font-size: 14px&quot;&gt;Technical details - automated provisioning&lt;/span&gt;" style="text;html=1;strokeColor=none;fillColor=none;align=left;verticalAlign=middle;whiteSpace=wrap;rounded=0;fontStyle=1" parent="Ov14lhYo1bep5EIF34hr-1" vertex="1"><mxGeometry x="53.63" y="530" width="310" height="20" as="geometry"/></mxCell><mxCell id="XJHgL66lkJ3qZK1G7boa-2" value="&lt;font style=&quot;font-size: 14px&quot;&gt;Resource&lt;/font&gt;" style="text;html=1;strokeColor=none;fillColor=none;align=left;verticalAlign=middle;whiteSpace=wrap;rounded=0;" parent="Ov14lhYo1bep5EIF34hr-1" vertex="1"><mxGeometry x="68.63" y="550" width="110" height="20" as="geometry"/></mxCell><mxCell id="XJHgL66lkJ3qZK1G7boa-3" value="&lt;font style=&quot;font-size: 14px&quot;&gt;Documentation&lt;/font&gt;" style="text;html=1;strokeColor=none;fillColor=none;align=left;verticalAlign=middle;whiteSpace=wrap;rounded=0;" parent="Ov14lhYo1bep5EIF34hr-1" vertex="1"><mxGeometry x="68.63" y="577.5" width="110" height="20" as="geometry"/></mxCell><mxCell id="XJHgL66lkJ3qZK1G7boa-7" value="" style="rounded=0;whiteSpace=wrap;html=1;" parent="Ov14lhYo1bep5EIF34hr-1" vertex="1"><mxGeometry x="198.63" y="577.5" width="280" height="20" as="geometry"/></mxCell><mxCell id="XJHgL66lkJ3qZK1G7boa-8" value="&lt;font style=&quot;font-size: 13px&quot;&gt;Resource attribute&lt;/font&gt;" style="text;html=1;strokeColor=none;fillColor=none;align=left;verticalAlign=middle;whiteSpace=wrap;rounded=0;fontSize=12;" parent="Ov14lhYo1bep5EIF34hr-1" vertex="1"><mxGeometry x="86.13" y="683.5" width="110" height="20" as="geometry"/></mxCell><mxCell id="XJHgL66lkJ3qZK1G7boa-9" value="" style="rounded=0;whiteSpace=wrap;html=1;" parent="Ov14lhYo1bep5EIF34hr-1" vertex="1"><mxGeometry x="198.63" y="683.5" width="185" height="20" as="geometry"/></mxCell><mxCell id="XJHgL66lkJ3qZK1G7boa-10" value="&lt;font style=&quot;font-size: 13px&quot;&gt;Value&lt;/font&gt;" style="text;html=1;strokeColor=none;fillColor=none;align=left;verticalAlign=middle;whiteSpace=wrap;rounded=0;fontSize=12;" parent="Ov14lhYo1bep5EIF34hr-1" vertex="1"><mxGeometry x="88.63" y="710" width="110" height="20" as="geometry"/></mxCell><mxCell id="XJHgL66lkJ3qZK1G7boa-12" value="Add value" style="rounded=1;whiteSpace=wrap;html=1;fontSize=12;fillColor=none;" parent="Ov14lhYo1bep5EIF34hr-1" vertex="1"><mxGeometry x="396.13" y="735.5" width="80" height="20" as="geometry"/></mxCell><mxCell id="XJHgL66lkJ3qZK1G7boa-13" value="Add attribute" style="rounded=1;whiteSpace=wrap;html=1;fontSize=12;fillColor=none;" parent="Ov14lhYo1bep5EIF34hr-1" vertex="1"><mxGeometry x="88.63" y="735.5" width="110" height="20" as="geometry"/></mxCell><mxCell id="XJHgL66lkJ3qZK1G7boa-14" value="Remove value" style="rounded=1;whiteSpace=wrap;html=1;fontSize=12;fillColor=none;" parent="Ov14lhYo1bep5EIF34hr-1" vertex="1"><mxGeometry x="396.13" y="710" width="80" height="20" as="geometry"/></mxCell><mxCell id="XJHgL66lkJ3qZK1G7boa-15" value="&lt;font style=&quot;font-size: 13px&quot;&gt;Object type&lt;/font&gt;" style="text;html=1;strokeColor=none;fillColor=none;align=left;verticalAlign=middle;whiteSpace=wrap;rounded=0;fontSize=12;" parent="Ov14lhYo1bep5EIF34hr-1" vertex="1"><mxGeometry x="68.63" y="607.5" width="110" height="20" as="geometry"/></mxCell><mxCell id="XJHgL66lkJ3qZK1G7boa-16" value="Add membership" style="rounded=1;whiteSpace=wrap;html=1;fontSize=12;fillColor=none;" parent="Ov14lhYo1bep5EIF34hr-1" vertex="1"><mxGeometry x="91.13" y="874" width="105" height="20" as="geometry"/></mxCell><mxCell id="XJHgL66lkJ3qZK1G7boa-17" value="&lt;font style=&quot;font-size: 13px&quot;&gt;Resource attribute&lt;/font&gt;" style="text;html=1;strokeColor=none;fillColor=none;align=left;verticalAlign=middle;whiteSpace=wrap;rounded=0;fontSize=12;" parent="Ov14lhYo1bep5EIF34hr-1" vertex="1"><mxGeometry x="86.13" y="820" width="110" height="20" as="geometry"/></mxCell><mxCell id="XJHgL66lkJ3qZK1G7boa-18" value="" style="rounded=0;whiteSpace=wrap;html=1;" parent="Ov14lhYo1bep5EIF34hr-1" vertex="1"><mxGeometry x="198.63" y="820" width="185" height="20" as="geometry"/></mxCell><mxCell id="XJHgL66lkJ3qZK1G7boa-19" value="&lt;font style=&quot;font-size: 13px&quot;&gt;Value&lt;/font&gt;" style="text;html=1;strokeColor=none;fillColor=none;align=left;verticalAlign=middle;whiteSpace=wrap;rounded=0;fontSize=12;" parent="Ov14lhYo1bep5EIF34hr-1" vertex="1"><mxGeometry x="88.63" y="850" width="110" height="20" as="geometry"/></mxCell><mxCell id="XJHgL66lkJ3qZK1G7boa-20" value="" style="rounded=0;whiteSpace=wrap;html=1;" parent="Ov14lhYo1bep5EIF34hr-1" vertex="1"><mxGeometry x="198.63" y="849" width="185" height="20" as="geometry"/></mxCell><mxCell id="XJHgL66lkJ3qZK1G7boa-21" value="Remove attr." style="rounded=1;whiteSpace=wrap;html=1;fontSize=12;fillColor=none;" parent="Ov14lhYo1bep5EIF34hr-1" vertex="1"><mxGeometry x="396.13" y="683.5" width="80" height="20" as="geometry"/></mxCell><mxCell id="XJHgL66lkJ3qZK1G7boa-22" value="&lt;font style=&quot;font-size: 13px&quot;&gt;Groups / profiles membership&lt;/font&gt;" style="text;html=1;strokeColor=none;fillColor=none;align=left;verticalAlign=middle;whiteSpace=wrap;rounded=0;fontSize=12;" parent="Ov14lhYo1bep5EIF34hr-1" vertex="1"><mxGeometry x="68.63" y="766" width="180" height="20" as="geometry"/></mxCell><mxCell id="XJHgL66lkJ3qZK1G7boa-23" value="&lt;font style=&quot;font-size: 13px&quot;&gt;Resource attributes&lt;/font&gt;" style="text;html=1;strokeColor=none;fillColor=none;align=left;verticalAlign=middle;whiteSpace=wrap;rounded=0;fontSize=12;" parent="Ov14lhYo1bep5EIF34hr-1" vertex="1"><mxGeometry x="68.63" y="635" width="180" height="20" as="geometry"/></mxCell><mxCell id="XJHgL66lkJ3qZK1G7boa-24" value="Remove value" style="rounded=1;whiteSpace=wrap;html=1;fontSize=12;fillColor=none;" parent="Ov14lhYo1bep5EIF34hr-1" vertex="1"><mxGeometry x="396.13" y="848" width="80" height="20" as="geometry"/></mxCell><mxCell id="XJHgL66lkJ3qZK1G7boa-25" value="Remove attr." style="rounded=1;whiteSpace=wrap;html=1;fontSize=12;fillColor=none;" parent="Ov14lhYo1bep5EIF34hr-1" vertex="1"><mxGeometry x="396.13" y="820" width="80" height="20" as="geometry"/></mxCell><mxCell id="XJHgL66lkJ3qZK1G7boa-26" value="&lt;font style=&quot;font-size: 13px&quot;&gt;Strength&lt;/font&gt;" style="text;html=1;strokeColor=none;fillColor=none;align=left;verticalAlign=middle;whiteSpace=wrap;rounded=0;fontSize=12;" parent="Ov14lhYo1bep5EIF34hr-1" vertex="1"><mxGeometry x="88.63" y="660" width="110" height="20" as="geometry"/></mxCell><mxCell id="XJHgL66lkJ3qZK1G7boa-27" value="&lt;font style=&quot;font-size: 14px&quot;&gt;Additional configuration&lt;/font&gt;" style="text;html=1;strokeColor=none;fillColor=none;align=left;verticalAlign=middle;whiteSpace=wrap;rounded=0;" parent="Ov14lhYo1bep5EIF34hr-1" vertex="1"><mxGeometry x="68.63" y="900" width="150" height="20" as="geometry"/></mxCell><mxCell id="XJHgL66lkJ3qZK1G7boa-28" value="&lt;b&gt;...&lt;/b&gt;" style="rounded=1;whiteSpace=wrap;html=1;fontSize=14;fillColor=none;" parent="Ov14lhYo1bep5EIF34hr-1" vertex="1"><mxGeometry x="228.63" y="900" width="40" height="20" as="geometry"/></mxCell><mxCell id="XJHgL66lkJ3qZK1G7boa-29" value="&amp;lt;Additional configuration is present&amp;gt;" style="text;html=1;strokeColor=none;fillColor=none;align=left;verticalAlign=middle;whiteSpace=wrap;rounded=0;fontSize=10;" parent="Ov14lhYo1bep5EIF34hr-1" vertex="1"><mxGeometry x="286.63" y="900" width="172" height="20" as="geometry"/></mxCell><mxCell id="XJHgL66lkJ3qZK1G7boa-30" value="Add value" style="rounded=1;whiteSpace=wrap;html=1;fontSize=12;fillColor=none;" parent="Ov14lhYo1bep5EIF34hr-1" vertex="1"><mxGeometry x="396.13" y="874" width="80" height="20" as="geometry"/></mxCell><mxCell id="XJHgL66lkJ3qZK1G7boa-32" value="&lt;font style=&quot;font-size: 10px&quot;&gt;Show mappings&lt;/font&gt;" style="rounded=1;whiteSpace=wrap;html=1;fontSize=12;fillColor=none;" parent="Ov14lhYo1bep5EIF34hr-1" vertex="1"><mxGeometry x="396.13" y="608" width="80" height="20" as="geometry"/></mxCell><mxCell id="XJHgL66lkJ3qZK1G7boa-33" value="&lt;font style=&quot;font-size: 13px&quot;&gt;Strength&lt;/font&gt;" style="text;html=1;strokeColor=none;fillColor=none;align=left;verticalAlign=middle;whiteSpace=wrap;rounded=0;fontSize=12;" parent="Ov14lhYo1bep5EIF34hr-1" vertex="1"><mxGeometry x="86.13" y="793" width="110" height="20" as="geometry"/></mxCell><mxCell id="XJHgL66lkJ3qZK1G7boa-34" value="" style="group" parent="Ov14lhYo1bep5EIF34hr-1" vertex="1" connectable="0"><mxGeometry x="198.63" y="607.5" width="187" height="20" as="geometry"/></mxCell><mxCell id="XJHgL66lkJ3qZK1G7boa-35" value="" style="rounded=0;whiteSpace=wrap;html=1;" parent="XJHgL66lkJ3qZK1G7boa-34" vertex="1"><mxGeometry width="187" height="20" as="geometry"/></mxCell><mxCell id="XJHgL66lkJ3qZK1G7boa-36" value="" style="triangle;whiteSpace=wrap;html=1;fontSize=14;rotation=90;fillColor=#4D4D4D;" parent="XJHgL66lkJ3qZK1G7boa-34" vertex="1"><mxGeometry x="173" y="5" width="10" height="10" as="geometry"/></mxCell><mxCell id="XJHgL66lkJ3qZK1G7boa-37" value="" style="group" parent="Ov14lhYo1bep5EIF34hr-1" vertex="1" connectable="0"><mxGeometry x="198.63" y="655" width="187" height="20" as="geometry"/></mxCell><mxCell id="XJHgL66lkJ3qZK1G7boa-38" value="&lt;font style=&quot;font-size: 11px&quot;&gt;Normal / Strong / Weak&lt;/font&gt;" style="rounded=0;whiteSpace=wrap;html=1;align=left;" parent="XJHgL66lkJ3qZK1G7boa-37" vertex="1"><mxGeometry width="187" height="20" as="geometry"/></mxCell><mxCell id="XJHgL66lkJ3qZK1G7boa-39" value="" style="triangle;whiteSpace=wrap;html=1;fontSize=14;rotation=90;fillColor=#4D4D4D;" parent="XJHgL66lkJ3qZK1G7boa-37" vertex="1"><mxGeometry x="173" y="5" width="10" height="10" as="geometry"/></mxCell><mxCell id="XJHgL66lkJ3qZK1G7boa-40" value="" style="group" parent="Ov14lhYo1bep5EIF34hr-1" vertex="1" connectable="0"><mxGeometry x="198.63" y="793" width="187" height="20" as="geometry"/></mxCell><mxCell id="XJHgL66lkJ3qZK1G7boa-41" value="&lt;font style=&quot;font-size: 11px&quot;&gt;Normal / Strong / Weak&lt;/font&gt;" style="rounded=0;whiteSpace=wrap;html=1;align=left;" parent="XJHgL66lkJ3qZK1G7boa-40" vertex="1"><mxGeometry width="187" height="20" as="geometry"/></mxCell><mxCell id="XJHgL66lkJ3qZK1G7boa-42" value="" style="triangle;whiteSpace=wrap;html=1;fontSize=14;rotation=90;fillColor=#4D4D4D;" parent="XJHgL66lkJ3qZK1G7boa-40" vertex="1"><mxGeometry x="173" y="5" width="10" height="10" as="geometry"/></mxCell><mxCell id="XJHgL66lkJ3qZK1G7boa-43" value="" style="endArrow=none;html=1;rounded=0;fontSize=14;dashed=1;" parent="Ov14lhYo1bep5EIF34hr-1" edge="1"><mxGeometry width="50" height="50" relative="1" as="geometry"><mxPoint x="38.63" y="930" as="sourcePoint"/><mxPoint x="498.63" y="930" as="targetPoint"/></mxGeometry></mxCell><mxCell id="XJHgL66lkJ3qZK1G7boa-44" value="&lt;b&gt;Add resource&lt;/b&gt;" style="rounded=1;whiteSpace=wrap;html=1;fontSize=14;fillColor=none;" parent="Ov14lhYo1bep5EIF34hr-1" vertex="1"><mxGeometry x="68.63" y="942.5" width="130" height="20" as="geometry"/></mxCell><mxCell id="XJHgL66lkJ3qZK1G7boa-47" value="" style="group" parent="Ov14lhYo1bep5EIF34hr-1" vertex="1" connectable="0"><mxGeometry x="198.63" y="710" width="186" height="20" as="geometry"/></mxCell><mxCell id="XJHgL66lkJ3qZK1G7boa-11" value="" style="rounded=0;whiteSpace=wrap;html=1;" parent="XJHgL66lkJ3qZK1G7boa-47" vertex="1"><mxGeometry x="1" width="185" height="20" as="geometry"/></mxCell><mxCell id="XJHgL66lkJ3qZK1G7boa-31" value="&amp;lt;complex expression&amp;gt;" style="text;html=1;strokeColor=none;fillColor=none;align=left;verticalAlign=middle;whiteSpace=wrap;rounded=0;fontSize=10;" parent="XJHgL66lkJ3qZK1G7boa-47" vertex="1"><mxGeometry width="125" height="20" as="geometry"/></mxCell><mxCell id="XJHgL66lkJ3qZK1G7boa-48" value="&lt;span style=&quot;font-size: 14px&quot;&gt;Resource 1&lt;/span&gt;" style="text;html=1;strokeColor=default;fillColor=none;align=center;verticalAlign=middle;whiteSpace=wrap;rounded=0;fontStyle=1;rotation=-90;" parent="Ov14lhYo1bep5EIF34hr-1" vertex="1"><mxGeometry x="-134.62" y="727.75" width="372.5" height="20" as="geometry"/></mxCell><mxCell id="XJHgL66lkJ3qZK1G7boa-50" value="&lt;span style=&quot;color: rgb(0 , 0 , 0) ; font-family: &amp;#34;helvetica&amp;#34; ; font-size: 10px ; font-style: normal ; font-weight: 400 ; letter-spacing: normal ; text-align: left ; text-indent: 0px ; text-transform: none ; word-spacing: 0px ; background-color: rgb(248 , 249 , 250) ; display: inline ; float: none&quot;&gt;Show the entitlement part of the role definition in XML. Directly edit elements and code that is not possible via UI.&lt;br&gt;If there is additional configuration, the info message appears.&lt;br&gt;&lt;/span&gt;" style="text;whiteSpace=wrap;html=1;fontSize=10;" parent="Ov14lhYo1bep5EIF34hr-1" vertex="1"><mxGeometry x="536.63" y="883.75" width="272" height="52.5" as="geometry"/></mxCell><mxCell id="XJHgL66lkJ3qZK1G7boa-51" value="" style="shape=curlyBracket;whiteSpace=wrap;html=1;rounded=1;fontSize=14;fillColor=none;" parent="Ov14lhYo1bep5EIF34hr-1" vertex="1"><mxGeometry x="516.63" y="700" width="20" height="40" as="geometry"/></mxCell><mxCell id="XJHgL66lkJ3qZK1G7boa-52" value="This note&amp;nbsp; provides&amp;nbsp; fast overview what the particular inducement is configuring.&lt;br&gt;E.g.: &quot;Creates account on LDAP and assign the user to group &quot;XYZ&quot;." style="text;html=1;strokeColor=none;fillColor=none;align=left;verticalAlign=middle;whiteSpace=wrap;rounded=0;fontSize=10;" parent="Ov14lhYo1bep5EIF34hr-1" vertex="1"><mxGeometry x="538.63" y="558" width="260" height="42" as="geometry"/></mxCell><mxCell id="XJHgL66lkJ3qZK1G7boa-53" value="" style="rounded=0;whiteSpace=wrap;html=1;fillColor=#f5f5f5;fontColor=#333333;strokeColor=#666666;" parent="Ov14lhYo1bep5EIF34hr-1" vertex="1"><mxGeometry x="200" y="390" width="280" height="20" as="geometry"/></mxCell><mxCell id="XJHgL66lkJ3qZK1G7boa-54" value="Description level of the user access." style="text;html=1;strokeColor=none;fillColor=none;align=left;verticalAlign=middle;whiteSpace=wrap;rounded=0;fontSize=10;" parent="Ov14lhYo1bep5EIF34hr-1" vertex="1"><mxGeometry x="540" y="270" width="260" height="20" as="geometry"/></mxCell><mxCell id="XJHgL66lkJ3qZK1G7boa-55" value="&lt;font style=&quot;font-size: 12px&quot;&gt;Attribute 1&lt;/font&gt;" style="text;html=1;strokeColor=none;fillColor=none;align=left;verticalAlign=middle;whiteSpace=wrap;rounded=0;fontStyle=1;rotation=-90;fontSize=11;" parent="Ov14lhYo1bep5EIF34hr-1" vertex="1"><mxGeometry x="43.63" y="680" width="70" height="20" as="geometry"/></mxCell><mxCell id="XJHgL66lkJ3qZK1G7boa-56" value="&lt;font style=&quot;font-size: 12px&quot;&gt;Membership 1&lt;/font&gt;" style="text;html=1;strokeColor=none;fillColor=none;align=left;verticalAlign=middle;whiteSpace=wrap;rounded=0;fontStyle=1;rotation=-90;fontSize=11;" parent="Ov14lhYo1bep5EIF34hr-1" vertex="1"><mxGeometry x="33.63" y="820" width="90" height="20" as="geometry"/></mxCell><mxCell id="XJHgL66lkJ3qZK1G7boa-57" value="&lt;span style=&quot;color: rgb(0 , 0 , 0) ; font-family: &amp;#34;helvetica&amp;#34; ; font-size: 10px ; font-style: normal ; font-weight: 400 ; letter-spacing: normal ; text-align: left ; text-indent: 0px ; text-transform: none ; word-spacing: 0px ; background-color: rgb(248 , 249 , 250) ; display: inline ; float: none&quot;&gt;Value of the attribute. &lt;br&gt;If the value requires script and can't be displayed, then &amp;lt;complex expression&amp;gt; message is listed. In this case, the value is editable via additional configuration button.&lt;br&gt;&lt;/span&gt;" style="text;whiteSpace=wrap;html=1;fontSize=10;" parent="Ov14lhYo1bep5EIF34hr-1" vertex="1"><mxGeometry x="538.63" y="693.75" width="272" height="52.5" as="geometry"/></mxCell><mxCell id="vNaVFOmlH6i1ZV8qr2Hq-1" value="" style="group" parent="Ov14lhYo1bep5EIF34hr-1" vertex="1" connectable="0"><mxGeometry x="198.63" y="550" width="187" height="20" as="geometry"/></mxCell><mxCell id="vNaVFOmlH6i1ZV8qr2Hq-2" value="" style="rounded=0;whiteSpace=wrap;html=1;" parent="vNaVFOmlH6i1ZV8qr2Hq-1" vertex="1"><mxGeometry width="187" height="20" as="geometry"/></mxCell><mxCell id="vNaVFOmlH6i1ZV8qr2Hq-3" value="" style="triangle;whiteSpace=wrap;html=1;fontSize=14;rotation=90;fillColor=#4D4D4D;" parent="vNaVFOmlH6i1ZV8qr2Hq-1" vertex="1"><mxGeometry x="173" y="5" width="10" height="10" as="geometry"/></mxCell><mxCell id="vNaVFOmlH6i1ZV8qr2Hq-4" value="&lt;font style=&quot;font-size: 11px&quot;&gt;Remove res.&lt;/font&gt;" style="rounded=1;whiteSpace=wrap;html=1;fontSize=12;fillColor=none;" parent="Ov14lhYo1bep5EIF34hr-1" vertex="1"><mxGeometry x="396.13" y="550" width="80" height="20" as="geometry"/></mxCell><mxCell id="vNaVFOmlH6i1ZV8qr2Hq-6" value="" style="group" parent="Ov14lhYo1bep5EIF34hr-1" vertex="1" connectable="0"><mxGeometry x="198.63" y="1040" width="187" height="20" as="geometry"/></mxCell><mxCell id="vNaVFOmlH6i1ZV8qr2Hq-7" value="" style="rounded=0;whiteSpace=wrap;html=1;" parent="vNaVFOmlH6i1ZV8qr2Hq-6" vertex="1"><mxGeometry width="187" height="20" as="geometry"/></mxCell><mxCell id="vNaVFOmlH6i1ZV8qr2Hq-8" value="" style="triangle;whiteSpace=wrap;html=1;fontSize=14;rotation=90;fillColor=#4D4D4D;" parent="vNaVFOmlH6i1ZV8qr2Hq-6" vertex="1"><mxGeometry x="173" y="5" width="10" height="10" as="geometry"/></mxCell><mxCell id="vNaVFOmlH6i1ZV8qr2Hq-9" value="&lt;font style=&quot;font-size: 11px&quot;&gt;Remove task&lt;/font&gt;" style="rounded=1;whiteSpace=wrap;html=1;fontSize=12;fillColor=none;" parent="Ov14lhYo1bep5EIF34hr-1" vertex="1"><mxGeometry x="396.13" y="1040" width="80" height="20" as="geometry"/></mxCell><mxCell id="jZka0nsg8WtvyMBm_Ev0-0" value="Working procedure for manual deprovisioning (or link to some wiki)" style="text;html=1;strokeColor=none;fillColor=none;align=left;verticalAlign=middle;whiteSpace=wrap;rounded=0;fontSize=10;" parent="Ov14lhYo1bep5EIF34hr-1" vertex="1"><mxGeometry x="536.63" y="1215" width="210" height="20" as="geometry"/></mxCell><mxCell id="jZka0nsg8WtvyMBm_Ev0-1" value="Working procedure for assignment updates (or link to some wiki) - if needed." style="text;html=1;strokeColor=none;fillColor=none;align=left;verticalAlign=middle;whiteSpace=wrap;rounded=0;fontSize=10;" parent="Ov14lhYo1bep5EIF34hr-1" vertex="1"><mxGeometry x="542.63" y="1275" width="210" height="20" as="geometry"/></mxCell><mxCell id="jZka0nsg8WtvyMBm_Ev0-2" value="Number for risk level" style="text;html=1;strokeColor=none;fillColor=none;align=left;verticalAlign=middle;whiteSpace=wrap;rounded=0;fontSize=10;" parent="Ov14lhYo1bep5EIF34hr-1" vertex="1"><mxGeometry x="540" y="300" width="260" height="20" as="geometry"/></mxCell><mxCell id="jZka0nsg8WtvyMBm_Ev0-3" value="" style="shape=curlyBracket;whiteSpace=wrap;html=1;rounded=1;fontSize=14;fillColor=none;size=0.5;" parent="Ov14lhYo1bep5EIF34hr-1" vertex="1"><mxGeometry x="520" y="325" width="20" height="30" as="geometry"/></mxCell><mxCell id="jZka0nsg8WtvyMBm_Ev0-4" value="Information whether the role is requestable." style="text;html=1;strokeColor=none;fillColor=none;align=left;verticalAlign=middle;whiteSpace=wrap;rounded=0;fontSize=10;" parent="Ov14lhYo1bep5EIF34hr-1" vertex="1"><mxGeometry x="540" y="330" width="260" height="20" as="geometry"/></mxCell><mxCell id="sjc8c0RwJxfS_LPdlvGB-0" value="Technical description of inducements for manual connectors. This is designed to be filled by application engineer." style="text;html=1;strokeColor=none;fillColor=none;align=left;verticalAlign=middle;whiteSpace=wrap;rounded=0;fontSize=10;fontStyle=1" parent="Ov14lhYo1bep5EIF34hr-1" vertex="1"><mxGeometry x="518.63" y="1010" width="260" height="20" as="geometry"/></mxCell><mxCell id="sjc8c0RwJxfS_LPdlvGB-1" value="" style="shape=curlyBracket;whiteSpace=wrap;html=1;rounded=1;fontSize=14;fillColor=none;" parent="Ov14lhYo1bep5EIF34hr-1" vertex="1"><mxGeometry x="518.63" y="602.5" width="20" height="30" as="geometry"/></mxCell><mxCell id="sjc8c0RwJxfS_LPdlvGB-2" value="&lt;span style=&quot;color: rgb(0 , 0 , 0) ; font-family: &amp;#34;helvetica&amp;#34; ; font-size: 10px ; font-style: normal ; font-weight: 400 ; letter-spacing: normal ; text-align: left ; text-indent: 0px ; text-transform: none ; word-spacing: 0px ; background-color: rgb(248 , 249 , 250) ; display: inline ; float: none&quot;&gt;Easy explanation of kind/intent combination.&amp;nbsp;&lt;br&gt;Show mappings button displays modal window with mappinngs. In human readable table. No XML.&lt;br&gt;&lt;/span&gt;" style="text;whiteSpace=wrap;html=1;fontSize=10;" parent="Ov14lhYo1bep5EIF34hr-1" vertex="1"><mxGeometry x="542.63" y="597.5" width="272" height="52.5" as="geometry"/></mxCell><mxCell id="sjc8c0RwJxfS_LPdlvGB-4" value="" style="group" parent="Ov14lhYo1bep5EIF34hr-1" vertex="1" connectable="0"><mxGeometry x="200" y="360" width="280" height="20" as="geometry"/></mxCell><mxCell id="sjc8c0RwJxfS_LPdlvGB-5" value="" style="rounded=0;whiteSpace=wrap;html=1;" parent="sjc8c0RwJxfS_LPdlvGB-4" vertex="1"><mxGeometry width="280" height="20" as="geometry"/></mxCell><mxCell id="sjc8c0RwJxfS_LPdlvGB-6" value="" style="triangle;whiteSpace=wrap;html=1;fontSize=14;rotation=90;fillColor=#4D4D4D;" parent="sjc8c0RwJxfS_LPdlvGB-4" vertex="1"><mxGeometry x="265" y="5" width="10" height="10" as="geometry"/></mxCell><mxCell id="mctU-JoKN27F5jXycGap-0" value="&lt;span style=&quot;font-size: 25px;&quot;&gt;To be updated&lt;/span&gt;" style="text;html=1;strokeColor=none;fillColor=none;align=left;verticalAlign=middle;whiteSpace=wrap;rounded=0;fontStyle=1;rotation=-40;fontColor=#999999;fontSize=25;" parent="Ov14lhYo1bep5EIF34hr-1" vertex="1"><mxGeometry x="138.63" y="1150" width="190" height="20" as="geometry"/></mxCell><mxCell id="Xkqg-Cd9CKXZLZdOpcqc-0" value="&lt;font style=&quot;font-size: 14px&quot;&gt;How to use&lt;/font&gt;" style="text;html=1;strokeColor=none;fillColor=none;align=left;verticalAlign=middle;whiteSpace=wrap;rounded=0;" parent="Ov14lhYo1bep5EIF34hr-1" vertex="1"><mxGeometry x="80" y="420" width="110" height="20" as="geometry"/></mxCell><mxCell id="Xkqg-Cd9CKXZLZdOpcqc-1" value="" style="rounded=0;whiteSpace=wrap;html=1;" parent="Ov14lhYo1bep5EIF34hr-1" vertex="1"><mxGeometry x="200" y="420" width="280" height="70" as="geometry"/></mxCell><mxCell id="Xkqg-Cd9CKXZLZdOpcqc-2" value="" style="shape=curlyBracket;whiteSpace=wrap;html=1;rounded=1;fontSize=14;fillColor=none;" parent="Ov14lhYo1bep5EIF34hr-1" vertex="1"><mxGeometry x="520" y="420" width="20" height="70" as="geometry"/></mxCell><mxCell id="Xkqg-Cd9CKXZLZdOpcqc-3" value="Mesage for end-user. Information how to use the rple when assigned.&amp;nbsp;&lt;br&gt;This message may be part of the notifikcation message when the role is assigned." style="text;html=1;strokeColor=none;fillColor=none;align=left;verticalAlign=middle;whiteSpace=wrap;rounded=0;fontSize=10;" parent="Ov14lhYo1bep5EIF34hr-1" vertex="1"><mxGeometry x="540" y="430" width="260" height="50" as="geometry"/></mxCell><mxCell id="laSPvBU0yeE-vc1FOFz9-0" value="" style="triangle;whiteSpace=wrap;html=1;fontSize=14;rotation=90;fillColor=#4D4D4D;" parent="Ov14lhYo1bep5EIF34hr-1" vertex="1"><mxGeometry x="466.13" y="185" width="10" height="10" as="geometry"/></mxCell><mxCell id="laSPvBU0yeE-vc1FOFz9-1" value="" style="triangle;whiteSpace=wrap;html=1;fontSize=14;rotation=90;fillColor=#4D4D4D;" parent="Ov14lhYo1bep5EIF34hr-1" vertex="1"><mxGeometry x="466.13" y="245" width="10" height="10" as="geometry"/></mxCell></root></mxGraphModel></diagram><diagram id="DcHJ0d5En50AZ5JyDiQ7" name="business-role-design"><mxGraphModel dx="1498" dy="1102" grid="1" gridSize="10" guides="1" tooltips="1" connect="1" arrows="1" fold="1" page="1" pageScale="1" pageWidth="827" pageHeight="1169" math="0" shadow="0"><root><mxCell id="_cB4VMLEHOyOmG8bbSMr-0"/><mxCell id="_cB4VMLEHOyOmG8bbSMr-1" parent="_cB4VMLEHOyOmG8bbSMr-0"/><mxCell id="K13zoFI1vD1HfiOspiNl-2" value="" style="rounded=0;whiteSpace=wrap;html=1;fontSize=14;fillColor=#D5E8D4;" parent="_cB4VMLEHOyOmG8bbSMr-1" vertex="1"><mxGeometry x="30" y="40" width="480" height="390" as="geometry"/></mxCell><mxCell id="K13zoFI1vD1HfiOspiNl-3" value="" style="rounded=0;whiteSpace=wrap;html=1;" parent="_cB4VMLEHOyOmG8bbSMr-1" vertex="1"><mxGeometry x="190" y="70" width="280" height="20" as="geometry"/></mxCell><mxCell id="K13zoFI1vD1HfiOspiNl-4" value="&lt;font style=&quot;font-size: 14px&quot;&gt;Role name&lt;/font&gt;" style="text;html=1;strokeColor=none;fillColor=none;align=left;verticalAlign=middle;whiteSpace=wrap;rounded=0;" parent="_cB4VMLEHOyOmG8bbSMr-1" vertex="1"><mxGeometry x="80" y="70" width="110" height="20" as="geometry"/></mxCell><mxCell id="K13zoFI1vD1HfiOspiNl-5" value="" style="rounded=0;whiteSpace=wrap;html=1;" parent="_cB4VMLEHOyOmG8bbSMr-1" vertex="1"><mxGeometry x="190" y="100" width="280" height="70" as="geometry"/></mxCell><mxCell id="K13zoFI1vD1HfiOspiNl-6" value="&lt;font style=&quot;font-size: 14px&quot;&gt;Description&lt;/font&gt;" style="text;html=1;strokeColor=none;fillColor=none;align=left;verticalAlign=middle;whiteSpace=wrap;rounded=0;" parent="_cB4VMLEHOyOmG8bbSMr-1" vertex="1"><mxGeometry x="80" y="100" width="110" height="20" as="geometry"/></mxCell><mxCell id="K13zoFI1vD1HfiOspiNl-7" value="&lt;font style=&quot;font-size: 14px&quot;&gt;Role type&lt;/font&gt;" style="text;html=1;strokeColor=none;fillColor=none;align=left;verticalAlign=middle;whiteSpace=wrap;rounded=0;" parent="_cB4VMLEHOyOmG8bbSMr-1" vertex="1"><mxGeometry x="80" y="180" width="110" height="20" as="geometry"/></mxCell><mxCell id="K13zoFI1vD1HfiOspiNl-8" value="" style="rounded=0;whiteSpace=wrap;html=1;" parent="_cB4VMLEHOyOmG8bbSMr-1" vertex="1"><mxGeometry x="190" y="180" width="280" height="20" as="geometry"/></mxCell><mxCell id="K13zoFI1vD1HfiOspiNl-9" value="&lt;font style=&quot;font-size: 14px&quot;&gt;Environment&lt;/font&gt;" style="text;html=1;strokeColor=none;fillColor=none;align=left;verticalAlign=middle;whiteSpace=wrap;rounded=0;" parent="_cB4VMLEHOyOmG8bbSMr-1" vertex="1"><mxGeometry x="80" y="210" width="110" height="20" as="geometry"/></mxCell><mxCell id="K13zoFI1vD1HfiOspiNl-10" value="&lt;font style=&quot;font-size: 14px&quot;&gt;Owner&lt;/font&gt;" style="text;html=1;strokeColor=none;fillColor=none;align=left;verticalAlign=middle;whiteSpace=wrap;rounded=0;" parent="_cB4VMLEHOyOmG8bbSMr-1" vertex="1"><mxGeometry x="80" y="240" width="110" height="20" as="geometry"/></mxCell><mxCell id="K13zoFI1vD1HfiOspiNl-11" value="&lt;font style=&quot;font-size: 14px&quot;&gt;Access level&lt;/font&gt;" style="text;html=1;strokeColor=none;fillColor=none;align=left;verticalAlign=middle;whiteSpace=wrap;rounded=0;" parent="_cB4VMLEHOyOmG8bbSMr-1" vertex="1"><mxGeometry x="80" y="270" width="110" height="20" as="geometry"/></mxCell><mxCell id="K13zoFI1vD1HfiOspiNl-12" value="&lt;font style=&quot;font-size: 14px&quot;&gt;Risk level&lt;/font&gt;" style="text;html=1;strokeColor=none;fillColor=none;align=left;verticalAlign=middle;whiteSpace=wrap;rounded=0;" parent="_cB4VMLEHOyOmG8bbSMr-1" vertex="1"><mxGeometry x="80" y="300" width="110" height="20" as="geometry"/></mxCell><mxCell id="K13zoFI1vD1HfiOspiNl-13" value="" style="rounded=0;whiteSpace=wrap;html=1;" parent="_cB4VMLEHOyOmG8bbSMr-1" vertex="1"><mxGeometry x="190" y="240" width="280" height="20" as="geometry"/></mxCell><mxCell id="K13zoFI1vD1HfiOspiNl-14" value="" style="rounded=0;whiteSpace=wrap;html=1;fillColor=#f5f5f5;fontColor=#333333;strokeColor=#666666;" parent="_cB4VMLEHOyOmG8bbSMr-1" vertex="1"><mxGeometry x="190" y="300" width="40" height="20" as="geometry"/></mxCell><mxCell id="K13zoFI1vD1HfiOspiNl-15" value="&lt;span style=&quot;font-size: 14px&quot;&gt;Business description&lt;/span&gt;" style="text;html=1;strokeColor=none;fillColor=none;align=left;verticalAlign=middle;whiteSpace=wrap;rounded=0;fontStyle=1" parent="_cB4VMLEHOyOmG8bbSMr-1" vertex="1"><mxGeometry x="40" y="40" width="180" height="20" as="geometry"/></mxCell><mxCell id="K13zoFI1vD1HfiOspiNl-16" value="&lt;font style=&quot;font-size: 14px&quot;&gt;Approval policy&lt;/font&gt;" style="text;html=1;strokeColor=none;fillColor=none;align=left;verticalAlign=middle;whiteSpace=wrap;rounded=0;" parent="_cB4VMLEHOyOmG8bbSMr-1" vertex="1"><mxGeometry x="80" y="360" width="110" height="20" as="geometry"/></mxCell><mxCell id="K13zoFI1vD1HfiOspiNl-17" value="&lt;font style=&quot;font-size: 14px&quot;&gt;Requestable&lt;/font&gt;" style="text;html=1;strokeColor=none;fillColor=none;align=left;verticalAlign=middle;whiteSpace=wrap;rounded=0;" parent="_cB4VMLEHOyOmG8bbSMr-1" vertex="1"><mxGeometry x="80" y="330" width="110" height="20" as="geometry"/></mxCell><mxCell id="K13zoFI1vD1HfiOspiNl-18" value="" style="group" parent="_cB4VMLEHOyOmG8bbSMr-1" vertex="1" connectable="0"><mxGeometry x="190" y="330" width="80" height="20" as="geometry"/></mxCell><mxCell id="K13zoFI1vD1HfiOspiNl-19" value="" style="rounded=0;whiteSpace=wrap;html=1;" parent="K13zoFI1vD1HfiOspiNl-18" vertex="1"><mxGeometry width="80" height="20" as="geometry"/></mxCell><mxCell id="K13zoFI1vD1HfiOspiNl-20" value="" style="triangle;whiteSpace=wrap;html=1;fontSize=14;rotation=90;fillColor=#4D4D4D;" parent="K13zoFI1vD1HfiOspiNl-18" vertex="1"><mxGeometry x="65" y="5" width="10" height="10" as="geometry"/></mxCell><mxCell id="K13zoFI1vD1HfiOspiNl-21" value="" style="group;align=left;" parent="_cB4VMLEHOyOmG8bbSMr-1" vertex="1" connectable="0"><mxGeometry x="190" y="270" width="280" height="20" as="geometry"/></mxCell><mxCell id="K13zoFI1vD1HfiOspiNl-22" value="Standard user / Power user / Privileged user&amp;nbsp;" style="rounded=0;whiteSpace=wrap;html=1;align=left;fillColor=#f5f5f5;fontColor=#333333;strokeColor=#666666;" parent="K13zoFI1vD1HfiOspiNl-21" vertex="1"><mxGeometry width="280" height="20" as="geometry"/></mxCell><mxCell id="K13zoFI1vD1HfiOspiNl-23" value="" style="triangle;whiteSpace=wrap;html=1;fontSize=14;rotation=90;fillColor=#4D4D4D;" parent="K13zoFI1vD1HfiOspiNl-21" vertex="1"><mxGeometry x="265" y="5" width="10" height="10" as="geometry"/></mxCell><mxCell id="K13zoFI1vD1HfiOspiNl-27" value="" style="shape=curlyBracket;whiteSpace=wrap;html=1;rounded=1;fontSize=14;fillColor=none;" parent="_cB4VMLEHOyOmG8bbSMr-1" vertex="1"><mxGeometry x="520" y="385" width="20" height="30" as="geometry"/></mxCell><mxCell id="K13zoFI1vD1HfiOspiNl-36" value="" style="shape=curlyBracket;whiteSpace=wrap;html=1;rounded=1;fontSize=14;fillColor=none;" parent="_cB4VMLEHOyOmG8bbSMr-1" vertex="1"><mxGeometry x="520" y="467.5" width="20" height="30" as="geometry"/></mxCell><mxCell id="K13zoFI1vD1HfiOspiNl-48" value="Listing of included roles. This is designed to be filled by role owner." style="text;html=1;strokeColor=none;fillColor=none;align=left;verticalAlign=middle;whiteSpace=wrap;rounded=0;fontSize=10;fontStyle=1" parent="_cB4VMLEHOyOmG8bbSMr-1" vertex="1"><mxGeometry x="530" y="440" width="260" height="20" as="geometry"/></mxCell><mxCell id="K13zoFI1vD1HfiOspiNl-51" value="&lt;font style=&quot;font-size: 14px&quot;&gt;Lifecycle state&lt;/font&gt;" style="text;html=1;strokeColor=none;fillColor=none;align=left;verticalAlign=middle;whiteSpace=wrap;rounded=0;" parent="_cB4VMLEHOyOmG8bbSMr-1" vertex="1"><mxGeometry x="80" y="390" width="110" height="20" as="geometry"/></mxCell><mxCell id="K13zoFI1vD1HfiOspiNl-52" value="Lifecycle state of the Role object. It will be read only." style="text;html=1;strokeColor=none;fillColor=none;align=left;verticalAlign=middle;whiteSpace=wrap;rounded=0;fontSize=10;" parent="_cB4VMLEHOyOmG8bbSMr-1" vertex="1"><mxGeometry x="540" y="390" width="260" height="20" as="geometry"/></mxCell><mxCell id="K13zoFI1vD1HfiOspiNl-64" value="" style="group" parent="_cB4VMLEHOyOmG8bbSMr-1" vertex="1" connectable="0"><mxGeometry x="190" y="210" width="280" height="20" as="geometry"/></mxCell><mxCell id="K13zoFI1vD1HfiOspiNl-65" value="&lt;font style=&quot;font-size: 11px&quot;&gt;PROD / ACC / TEST / DEV&lt;/font&gt;" style="rounded=0;whiteSpace=wrap;html=1;align=left;" parent="K13zoFI1vD1HfiOspiNl-64" vertex="1"><mxGeometry width="280" height="20" as="geometry"/></mxCell><mxCell id="K13zoFI1vD1HfiOspiNl-66" value="" style="triangle;whiteSpace=wrap;html=1;fontSize=14;rotation=90;fillColor=#4D4D4D;" parent="K13zoFI1vD1HfiOspiNl-64" vertex="1"><mxGeometry x="265" y="5" width="10" height="10" as="geometry"/></mxCell><mxCell id="K13zoFI1vD1HfiOspiNl-80" value="" style="shape=curlyBracket;whiteSpace=wrap;html=1;rounded=1;fontSize=14;fillColor=none;size=0.5;" parent="_cB4VMLEHOyOmG8bbSMr-1" vertex="1"><mxGeometry x="518" y="175" width="20" height="30" as="geometry"/></mxCell><mxCell id="K13zoFI1vD1HfiOspiNl-81" value="" style="shape=curlyBracket;whiteSpace=wrap;html=1;rounded=1;fontSize=14;fillColor=none;size=0.5;" parent="_cB4VMLEHOyOmG8bbSMr-1" vertex="1"><mxGeometry x="520" y="205" width="20" height="30" as="geometry"/></mxCell><mxCell id="K13zoFI1vD1HfiOspiNl-82" value="" style="shape=curlyBracket;whiteSpace=wrap;html=1;rounded=1;fontSize=14;fillColor=none;size=0.5;" parent="_cB4VMLEHOyOmG8bbSMr-1" vertex="1"><mxGeometry x="518" y="235" width="20" height="30" as="geometry"/></mxCell><mxCell id="K13zoFI1vD1HfiOspiNl-83" value="" style="shape=curlyBracket;whiteSpace=wrap;html=1;rounded=1;fontSize=14;fillColor=none;size=0.5;" parent="_cB4VMLEHOyOmG8bbSMr-1" vertex="1"><mxGeometry x="520" y="265" width="20" height="30" as="geometry"/></mxCell><mxCell id="K13zoFI1vD1HfiOspiNl-84" value="" style="shape=curlyBracket;whiteSpace=wrap;html=1;rounded=1;fontSize=14;fillColor=none;size=0.5;" parent="_cB4VMLEHOyOmG8bbSMr-1" vertex="1"><mxGeometry x="520" y="295" width="20" height="30" as="geometry"/></mxCell><mxCell id="K13zoFI1vD1HfiOspiNl-85" value="" style="shape=curlyBracket;whiteSpace=wrap;html=1;rounded=1;fontSize=14;fillColor=none;size=0.5;" parent="_cB4VMLEHOyOmG8bbSMr-1" vertex="1"><mxGeometry x="520" y="355" width="20" height="30" as="geometry"/></mxCell><mxCell id="K13zoFI1vD1HfiOspiNl-86" value="Business description of the role. This chapter is designed to be visible for everybody - also end users." style="text;html=1;strokeColor=none;fillColor=none;align=left;verticalAlign=middle;whiteSpace=wrap;rounded=0;fontSize=10;fontStyle=1" parent="_cB4VMLEHOyOmG8bbSMr-1" vertex="1"><mxGeometry x="530" y="40" width="260" height="20" as="geometry"/></mxCell><mxCell id="K13zoFI1vD1HfiOspiNl-89" value="Selection from approval policies. Just 1 policy. No policy combination." style="text;html=1;strokeColor=none;fillColor=none;align=left;verticalAlign=middle;whiteSpace=wrap;rounded=0;fontSize=10;" parent="_cB4VMLEHOyOmG8bbSMr-1" vertex="1"><mxGeometry x="540" y="360" width="260" height="20" as="geometry"/></mxCell><mxCell id="K13zoFI1vD1HfiOspiNl-91" value="&lt;span style=&quot;font-size: 14px;&quot;&gt;Business role design screen&lt;/span&gt;" style="text;html=1;strokeColor=none;fillColor=none;align=left;verticalAlign=middle;whiteSpace=wrap;rounded=0;fontStyle=1;fontSize=14;" parent="_cB4VMLEHOyOmG8bbSMr-1" vertex="1"><mxGeometry x="30" y="10" width="240" height="20" as="geometry"/></mxCell><mxCell id="K13zoFI1vD1HfiOspiNl-92" value="Environment - PROD/TEST/DEV/ACC" style="text;html=1;strokeColor=none;fillColor=none;align=left;verticalAlign=middle;whiteSpace=wrap;rounded=0;fontSize=10;" parent="_cB4VMLEHOyOmG8bbSMr-1" vertex="1"><mxGeometry x="538" y="210" width="260" height="20" as="geometry"/></mxCell><mxCell id="K13zoFI1vD1HfiOspiNl-93" value="Role owner" style="text;html=1;strokeColor=none;fillColor=none;align=left;verticalAlign=middle;whiteSpace=wrap;rounded=0;fontSize=10;" parent="_cB4VMLEHOyOmG8bbSMr-1" vertex="1"><mxGeometry x="540" y="240" width="260" height="20" as="geometry"/></mxCell><mxCell id="K13zoFI1vD1HfiOspiNl-95" value="" style="rounded=0;whiteSpace=wrap;html=1;fontSize=14;fillColor=#D5E8D4;" parent="_cB4VMLEHOyOmG8bbSMr-1" vertex="1"><mxGeometry x="30" y="440" width="480" height="270" as="geometry"/></mxCell><mxCell id="K13zoFI1vD1HfiOspiNl-96" value="&lt;span style=&quot;font-size: 14px&quot;&gt;Content - list of roles&lt;/span&gt;" style="text;html=1;strokeColor=none;fillColor=none;align=left;verticalAlign=middle;whiteSpace=wrap;rounded=0;fontStyle=1" parent="_cB4VMLEHOyOmG8bbSMr-1" vertex="1"><mxGeometry x="55" y="450" width="310" height="20" as="geometry"/></mxCell><mxCell id="K13zoFI1vD1HfiOspiNl-97" value="&lt;font style=&quot;font-size: 14px&quot;&gt;Role name&lt;/font&gt;" style="text;html=1;strokeColor=none;fillColor=none;align=left;verticalAlign=middle;whiteSpace=wrap;rounded=0;" parent="_cB4VMLEHOyOmG8bbSMr-1" vertex="1"><mxGeometry x="70" y="470" width="110" height="20" as="geometry"/></mxCell><mxCell id="K13zoFI1vD1HfiOspiNl-98" value="&lt;font style=&quot;font-size: 14px&quot;&gt;Role type&lt;/font&gt;" style="text;html=1;strokeColor=none;fillColor=none;align=left;verticalAlign=middle;whiteSpace=wrap;rounded=0;" parent="_cB4VMLEHOyOmG8bbSMr-1" vertex="1"><mxGeometry x="70" y="497.5" width="110" height="20" as="geometry"/></mxCell><mxCell id="K13zoFI1vD1HfiOspiNl-99" value="" style="group" parent="_cB4VMLEHOyOmG8bbSMr-1" vertex="1" connectable="0"><mxGeometry x="190" y="470" width="280" height="20" as="geometry"/></mxCell><mxCell id="K13zoFI1vD1HfiOspiNl-100" value="" style="rounded=0;whiteSpace=wrap;html=1;" parent="K13zoFI1vD1HfiOspiNl-99" vertex="1"><mxGeometry width="280" height="20" as="geometry"/></mxCell><mxCell id="K13zoFI1vD1HfiOspiNl-101" value="" style="triangle;whiteSpace=wrap;html=1;fontSize=14;rotation=90;fillColor=#4D4D4D;" parent="K13zoFI1vD1HfiOspiNl-99" vertex="1"><mxGeometry x="265" y="5" width="10" height="10" as="geometry"/></mxCell><mxCell id="K13zoFI1vD1HfiOspiNl-121" value="&lt;font style=&quot;font-size: 14px&quot;&gt;Additional configuration&lt;/font&gt;" style="text;html=1;strokeColor=none;fillColor=none;align=left;verticalAlign=middle;whiteSpace=wrap;rounded=0;" parent="_cB4VMLEHOyOmG8bbSMr-1" vertex="1"><mxGeometry x="70" y="630" width="150" height="20" as="geometry"/></mxCell><mxCell id="K13zoFI1vD1HfiOspiNl-122" value="&lt;b&gt;...&lt;/b&gt;" style="rounded=1;whiteSpace=wrap;html=1;fontSize=14;fillColor=none;" parent="_cB4VMLEHOyOmG8bbSMr-1" vertex="1"><mxGeometry x="230" y="630" width="40" height="20" as="geometry"/></mxCell><mxCell id="K13zoFI1vD1HfiOspiNl-123" value="&amp;lt;Additional configuration is present&amp;gt;" style="text;html=1;strokeColor=none;fillColor=none;align=left;verticalAlign=middle;whiteSpace=wrap;rounded=0;fontSize=10;" parent="_cB4VMLEHOyOmG8bbSMr-1" vertex="1"><mxGeometry x="288" y="630" width="172" height="20" as="geometry"/></mxCell><mxCell id="K13zoFI1vD1HfiOspiNl-136" value="" style="endArrow=none;html=1;rounded=0;fontSize=14;dashed=1;" parent="_cB4VMLEHOyOmG8bbSMr-1" edge="1"><mxGeometry width="50" height="50" relative="1" as="geometry"><mxPoint x="38" y="660" as="sourcePoint"/><mxPoint x="498" y="660" as="targetPoint"/></mxGeometry></mxCell><mxCell id="K13zoFI1vD1HfiOspiNl-137" value="&lt;b&gt;Add role&lt;/b&gt;" style="rounded=1;whiteSpace=wrap;html=1;fontSize=14;fillColor=none;" parent="_cB4VMLEHOyOmG8bbSMr-1" vertex="1"><mxGeometry x="65" y="670" width="130" height="20" as="geometry"/></mxCell><mxCell id="K13zoFI1vD1HfiOspiNl-141" value="&lt;span style=&quot;font-size: 14px&quot;&gt;Role 1&lt;/span&gt;" style="text;html=1;strokeColor=default;fillColor=none;align=center;verticalAlign=middle;whiteSpace=wrap;rounded=0;fontStyle=1;rotation=-90;" parent="_cB4VMLEHOyOmG8bbSMr-1" vertex="1"><mxGeometry x="3.37" y="511.12" width="99.25" height="20" as="geometry"/></mxCell><mxCell id="K13zoFI1vD1HfiOspiNl-143" value="" style="shape=curlyBracket;whiteSpace=wrap;html=1;rounded=1;fontSize=14;fillColor=none;" parent="_cB4VMLEHOyOmG8bbSMr-1" vertex="1"><mxGeometry x="518" y="620" width="20" height="40" as="geometry"/></mxCell><mxCell id="K13zoFI1vD1HfiOspiNl-145" value="" style="rounded=0;whiteSpace=wrap;html=1;fillColor=#f5f5f5;fontColor=#333333;strokeColor=#666666;" parent="_cB4VMLEHOyOmG8bbSMr-1" vertex="1"><mxGeometry x="190" y="390" width="280" height="20" as="geometry"/></mxCell><mxCell id="K13zoFI1vD1HfiOspiNl-146" value="Read only. Description level of the user access. This is computed field on business roles." style="text;html=1;strokeColor=none;fillColor=none;align=left;verticalAlign=middle;whiteSpace=wrap;rounded=0;fontSize=10;" parent="_cB4VMLEHOyOmG8bbSMr-1" vertex="1"><mxGeometry x="540" y="270" width="260" height="20" as="geometry"/></mxCell><mxCell id="K13zoFI1vD1HfiOspiNl-150" value="Some archetype of business role - role categorization." style="text;html=1;strokeColor=none;fillColor=none;align=left;verticalAlign=middle;whiteSpace=wrap;rounded=0;fontSize=10;" parent="_cB4VMLEHOyOmG8bbSMr-1" vertex="1"><mxGeometry x="538" y="175" width="260" height="20" as="geometry"/></mxCell><mxCell id="K13zoFI1vD1HfiOspiNl-151" value="Read only. Risk level of the role. This is computed field on business roles." style="text;html=1;strokeColor=none;fillColor=none;align=left;verticalAlign=middle;whiteSpace=wrap;rounded=0;fontSize=10;" parent="_cB4VMLEHOyOmG8bbSMr-1" vertex="1"><mxGeometry x="540" y="300" width="260" height="20" as="geometry"/></mxCell><mxCell id="K13zoFI1vD1HfiOspiNl-152" value="&lt;font style=&quot;font-size: 14px&quot;&gt;Application&lt;/font&gt;" style="text;html=1;strokeColor=none;fillColor=none;align=left;verticalAlign=middle;whiteSpace=wrap;rounded=0;" parent="_cB4VMLEHOyOmG8bbSMr-1" vertex="1"><mxGeometry x="70" y="528.5" width="110" height="20" as="geometry"/></mxCell><mxCell id="K13zoFI1vD1HfiOspiNl-153" value="&lt;font style=&quot;font-size: 14px&quot;&gt;Role description&lt;/font&gt;" style="text;html=1;strokeColor=none;fillColor=none;align=left;verticalAlign=middle;whiteSpace=wrap;rounded=0;" parent="_cB4VMLEHOyOmG8bbSMr-1" vertex="1"><mxGeometry x="70" y="590" width="110" height="20" as="geometry"/></mxCell><mxCell id="K13zoFI1vD1HfiOspiNl-156" value="" style="rounded=0;whiteSpace=wrap;html=1;fillColor=#f5f5f5;fontColor=#333333;strokeColor=#666666;" parent="_cB4VMLEHOyOmG8bbSMr-1" vertex="1"><mxGeometry x="190" y="500" width="280" height="20" as="geometry"/></mxCell><mxCell id="K13zoFI1vD1HfiOspiNl-157" value="" style="rounded=0;whiteSpace=wrap;html=1;fillColor=#f5f5f5;fontColor=#333333;strokeColor=#666666;" parent="_cB4VMLEHOyOmG8bbSMr-1" vertex="1"><mxGeometry x="190" y="528.5" width="280" height="20" as="geometry"/></mxCell><mxCell id="K13zoFI1vD1HfiOspiNl-158" value="" style="rounded=0;whiteSpace=wrap;html=1;fillColor=#f5f5f5;fontColor=#333333;strokeColor=#666666;" parent="_cB4VMLEHOyOmG8bbSMr-1" vertex="1"><mxGeometry x="190" y="590" width="280" height="20" as="geometry"/></mxCell><mxCell id="Vot58cozQ7KffPM8BTFq-0" value="" style="rounded=0;whiteSpace=wrap;html=1;fontSize=14;fillColor=#D5E8D4;" parent="_cB4VMLEHOyOmG8bbSMr-1" vertex="1"><mxGeometry x="30" y="720" width="480" height="40" as="geometry"/></mxCell><mxCell id="Vot58cozQ7KffPM8BTFq-1" value="&lt;span style=&quot;font-size: 14px&quot;&gt;Additional role configuration&lt;/span&gt;" style="text;html=1;strokeColor=none;fillColor=none;align=left;verticalAlign=middle;whiteSpace=wrap;rounded=0;fontStyle=1" parent="_cB4VMLEHOyOmG8bbSMr-1" vertex="1"><mxGeometry x="40" y="730" width="210" height="20" as="geometry"/></mxCell><mxCell id="Vot58cozQ7KffPM8BTFq-2" value="&lt;b&gt;...&lt;/b&gt;" style="rounded=1;whiteSpace=wrap;html=1;fontSize=14;fillColor=none;" parent="_cB4VMLEHOyOmG8bbSMr-1" vertex="1"><mxGeometry x="240" y="730" width="40" height="20" as="geometry"/></mxCell><mxCell id="Vot58cozQ7KffPM8BTFq-3" value="&amp;lt;Additional configuration is present&amp;gt;" style="text;html=1;strokeColor=none;fillColor=none;align=left;verticalAlign=middle;whiteSpace=wrap;rounded=0;fontSize=10;" parent="_cB4VMLEHOyOmG8bbSMr-1" vertex="1"><mxGeometry x="288" y="730" width="210" height="20" as="geometry"/></mxCell><mxCell id="Vot58cozQ7KffPM8BTFq-4" value="Additional advanced configuration of the role object. E.g. SoD policies here.&lt;br&gt;Probably full display of XML here." style="text;html=1;strokeColor=none;fillColor=none;align=left;verticalAlign=middle;whiteSpace=wrap;rounded=0;fontSize=10;" parent="_cB4VMLEHOyOmG8bbSMr-1" vertex="1"><mxGeometry x="540" y="730" width="260" height="20" as="geometry"/></mxCell><mxCell id="Vot58cozQ7KffPM8BTFq-5" value="" style="shape=curlyBracket;whiteSpace=wrap;html=1;rounded=1;fontSize=14;fillColor=none;" parent="_cB4VMLEHOyOmG8bbSMr-1" vertex="1"><mxGeometry x="520" y="725" width="20" height="30" as="geometry"/></mxCell><mxCell id="M77t-R3VEehjcumgERxE-0" value="" style="group" parent="_cB4VMLEHOyOmG8bbSMr-1" vertex="1" connectable="0"><mxGeometry x="190" y="360" width="280" height="20" as="geometry"/></mxCell><mxCell id="M77t-R3VEehjcumgERxE-1" value="" style="rounded=0;whiteSpace=wrap;html=1;" parent="M77t-R3VEehjcumgERxE-0" vertex="1"><mxGeometry width="280" height="20" as="geometry"/></mxCell><mxCell id="M77t-R3VEehjcumgERxE-2" value="" style="triangle;whiteSpace=wrap;html=1;fontSize=14;rotation=90;fillColor=#4D4D4D;" parent="M77t-R3VEehjcumgERxE-0" vertex="1"><mxGeometry x="265" y="5" width="10" height="10" as="geometry"/></mxCell><mxCell id="M77t-R3VEehjcumgERxE-3" value="Selection of roles." style="text;html=1;strokeColor=none;fillColor=none;align=left;verticalAlign=middle;whiteSpace=wrap;rounded=0;fontSize=10;" parent="_cB4VMLEHOyOmG8bbSMr-1" vertex="1"><mxGeometry x="540" y="467.5" width="260" height="20" as="geometry"/></mxCell><mxCell id="M77t-R3VEehjcumgERxE-4" value="" style="shape=curlyBracket;whiteSpace=wrap;html=1;rounded=1;fontSize=14;fillColor=none;" parent="_cB4VMLEHOyOmG8bbSMr-1" vertex="1"><mxGeometry x="520" y="498.5" width="20" height="30" as="geometry"/></mxCell><mxCell id="M77t-R3VEehjcumgERxE-5" value="Read only. Identification of business / appliction role." style="text;html=1;strokeColor=none;fillColor=none;align=left;verticalAlign=middle;whiteSpace=wrap;rounded=0;fontSize=10;" parent="_cB4VMLEHOyOmG8bbSMr-1" vertex="1"><mxGeometry x="540" y="503.5" width="260" height="20" as="geometry"/></mxCell><mxCell id="M77t-R3VEehjcumgERxE-6" value="" style="shape=curlyBracket;whiteSpace=wrap;html=1;rounded=1;fontSize=14;fillColor=none;" parent="_cB4VMLEHOyOmG8bbSMr-1" vertex="1"><mxGeometry x="518" y="528.5" width="20" height="30" as="geometry"/></mxCell><mxCell id="M77t-R3VEehjcumgERxE-7" value="Read only. Identification of application that this role is providing access to." style="text;html=1;strokeColor=none;fillColor=none;align=left;verticalAlign=middle;whiteSpace=wrap;rounded=0;fontSize=10;" parent="_cB4VMLEHOyOmG8bbSMr-1" vertex="1"><mxGeometry x="540" y="533.5" width="260" height="20" as="geometry"/></mxCell><mxCell id="M77t-R3VEehjcumgERxE-8" value="&lt;font style=&quot;font-size: 14px&quot;&gt;Access level&lt;/font&gt;" style="text;html=1;strokeColor=none;fillColor=none;align=left;verticalAlign=middle;whiteSpace=wrap;rounded=0;" parent="_cB4VMLEHOyOmG8bbSMr-1" vertex="1"><mxGeometry x="70" y="560" width="110" height="20" as="geometry"/></mxCell><mxCell id="M77t-R3VEehjcumgERxE-9" value="" style="group;align=left;" parent="_cB4VMLEHOyOmG8bbSMr-1" vertex="1" connectable="0"><mxGeometry x="190" y="560" width="280" height="20" as="geometry"/></mxCell><mxCell id="M77t-R3VEehjcumgERxE-10" value="Standard user / Power user / Privileged user&amp;nbsp;" style="rounded=0;whiteSpace=wrap;html=1;align=left;fillColor=#f5f5f5;fontColor=#333333;strokeColor=#666666;" parent="M77t-R3VEehjcumgERxE-9" vertex="1"><mxGeometry width="280" height="20" as="geometry"/></mxCell><mxCell id="M77t-R3VEehjcumgERxE-11" value="" style="triangle;whiteSpace=wrap;html=1;fontSize=14;rotation=90;fillColor=#4D4D4D;" parent="M77t-R3VEehjcumgERxE-9" vertex="1"><mxGeometry x="265" y="5" width="10" height="10" as="geometry"/></mxCell><mxCell id="M77t-R3VEehjcumgERxE-12" value="" style="shape=curlyBracket;whiteSpace=wrap;html=1;rounded=1;fontSize=14;fillColor=none;" parent="_cB4VMLEHOyOmG8bbSMr-1" vertex="1"><mxGeometry x="518" y="558.5" width="20" height="21.5" as="geometry"/></mxCell><mxCell id="M77t-R3VEehjcumgERxE-13" value="Read only. Access level of the included role - for easy identifikcation of privileged access." style="text;html=1;strokeColor=none;fillColor=none;align=left;verticalAlign=middle;whiteSpace=wrap;rounded=0;fontSize=10;" parent="_cB4VMLEHOyOmG8bbSMr-1" vertex="1"><mxGeometry x="540" y="558.5" width="260" height="20" as="geometry"/></mxCell><mxCell id="M77t-R3VEehjcumgERxE-14" value="" style="shape=curlyBracket;whiteSpace=wrap;html=1;rounded=1;fontSize=14;fillColor=none;" parent="_cB4VMLEHOyOmG8bbSMr-1" vertex="1"><mxGeometry x="520" y="589.25" width="20" height="21.5" as="geometry"/></mxCell><mxCell id="M77t-R3VEehjcumgERxE-15" value="Read only. Description of the included role." style="text;html=1;strokeColor=none;fillColor=none;align=left;verticalAlign=middle;whiteSpace=wrap;rounded=0;fontSize=10;" parent="_cB4VMLEHOyOmG8bbSMr-1" vertex="1"><mxGeometry x="538" y="590.75" width="260" height="20" as="geometry"/></mxCell><mxCell id="RZAUofl1pjDzqJQm3hEt-0" value="&lt;span style=&quot;color: rgb(0 , 0 , 0) ; font-family: &amp;#34;helvetica&amp;#34; ; font-size: 10px ; font-style: normal ; font-weight: 400 ; letter-spacing: normal ; text-align: left ; text-indent: 0px ; text-transform: none ; word-spacing: 0px ; background-color: rgb(248 , 249 , 250) ; display: inline ; float: none&quot;&gt;Show the entitlement part of the role definition in XML. Directly edit elements and code that is not possible via UI.&lt;br&gt;If there is additional configuration, the info message appears.&lt;br&gt;&lt;/span&gt;" style="text;whiteSpace=wrap;html=1;fontSize=10;" parent="_cB4VMLEHOyOmG8bbSMr-1" vertex="1"><mxGeometry x="540" y="610.75" width="272" height="52.5" as="geometry"/></mxCell><mxCell id="3Wo7UN2ZqoAqc_LTmbMy-0" value="" style="shape=curlyBracket;whiteSpace=wrap;html=1;rounded=1;fontSize=14;fillColor=none;size=0.5;" parent="_cB4VMLEHOyOmG8bbSMr-1" vertex="1"><mxGeometry x="520" y="325" width="20" height="30" as="geometry"/></mxCell><mxCell id="dp0cpgyaRZsQa2ACZV8J-0" value="Information whether the role is requestable." style="text;html=1;strokeColor=none;fillColor=none;align=left;verticalAlign=middle;whiteSpace=wrap;rounded=0;fontSize=10;" parent="_cB4VMLEHOyOmG8bbSMr-1" vertex="1"><mxGeometry x="540" y="330" width="260" height="20" as="geometry"/></mxCell></root></mxGraphModel></diagram><diagram id="RUmHF4ThMh5UYP9bnNYr" name="Application-design"><mxGraphModel dx="1498" dy="1102" grid="1" gridSize="10" guides="1" tooltips="1" connect="1" arrows="1" fold="1" page="1" pageScale="1" pageWidth="827" pageHeight="1169" math="0" shadow="0"><root><mxCell id="f_sBxYvKpefhAlj5SfTx-0"/><mxCell id="f_sBxYvKpefhAlj5SfTx-1" parent="f_sBxYvKpefhAlj5SfTx-0"/><mxCell id="99tcs1cTfXrCBO05YwLo-0" value="" style="rounded=0;whiteSpace=wrap;html=1;fontSize=14;fillColor=#D4E1F5;" parent="f_sBxYvKpefhAlj5SfTx-1" vertex="1"><mxGeometry x="30" y="40" width="480" height="280" as="geometry"/></mxCell><mxCell id="99tcs1cTfXrCBO05YwLo-1" value="" style="rounded=0;whiteSpace=wrap;html=1;" parent="f_sBxYvKpefhAlj5SfTx-1" vertex="1"><mxGeometry x="200" y="70" width="280" height="20" as="geometry"/></mxCell><mxCell id="99tcs1cTfXrCBO05YwLo-2" value="&lt;font style=&quot;font-size: 14px&quot;&gt;Application name&lt;/font&gt;" style="text;html=1;strokeColor=none;fillColor=none;align=left;verticalAlign=middle;whiteSpace=wrap;rounded=0;" parent="f_sBxYvKpefhAlj5SfTx-1" vertex="1"><mxGeometry x="80" y="70" width="110" height="20" as="geometry"/></mxCell><mxCell id="99tcs1cTfXrCBO05YwLo-3" value="" style="rounded=0;whiteSpace=wrap;html=1;" parent="f_sBxYvKpefhAlj5SfTx-1" vertex="1"><mxGeometry x="200" y="140" width="280" height="70" as="geometry"/></mxCell><mxCell id="99tcs1cTfXrCBO05YwLo-4" value="&lt;font style=&quot;font-size: 14px&quot;&gt;Description&lt;/font&gt;" style="text;html=1;strokeColor=none;fillColor=none;align=left;verticalAlign=middle;whiteSpace=wrap;rounded=0;" parent="f_sBxYvKpefhAlj5SfTx-1" vertex="1"><mxGeometry x="80" y="140" width="110" height="20" as="geometry"/></mxCell><mxCell id="99tcs1cTfXrCBO05YwLo-7" value="&lt;font style=&quot;font-size: 14px&quot;&gt;Application link&lt;/font&gt;" style="text;html=1;strokeColor=none;fillColor=none;align=left;verticalAlign=middle;whiteSpace=wrap;rounded=0;" parent="f_sBxYvKpefhAlj5SfTx-1" vertex="1"><mxGeometry x="80" y="110" width="110" height="20" as="geometry"/></mxCell><mxCell id="cgyAHUjNPsE0ah3FJzX2-0" value="" style="group" parent="f_sBxYvKpefhAlj5SfTx-1" vertex="1" connectable="0"><mxGeometry x="200" y="110" width="280" height="20" as="geometry"/></mxCell><mxCell id="cgyAHUjNPsE0ah3FJzX2-1" value="" style="rounded=0;whiteSpace=wrap;html=1;" parent="cgyAHUjNPsE0ah3FJzX2-0" vertex="1"><mxGeometry width="280" height="20" as="geometry"/></mxCell><mxCell id="cgyAHUjNPsE0ah3FJzX2-2" value="" style="triangle;whiteSpace=wrap;html=1;fontSize=14;rotation=90;fillColor=#4D4D4D;" parent="cgyAHUjNPsE0ah3FJzX2-0" vertex="1"><mxGeometry x="265" y="5" width="10" height="10" as="geometry"/></mxCell><mxCell id="XdaVZIXVnWIUlIn9T61f-0" value="&lt;font style=&quot;font-size: 14px&quot;&gt;Application owner&lt;/font&gt;" style="text;html=1;strokeColor=none;fillColor=none;align=left;verticalAlign=middle;whiteSpace=wrap;rounded=0;" parent="f_sBxYvKpefhAlj5SfTx-1" vertex="1"><mxGeometry x="80" y="225" width="110" height="20" as="geometry"/></mxCell><mxCell id="NI4_0mvfQ4-j9PWEaxZk-0" value="&lt;font style=&quot;font-size: 14px&quot;&gt;Lifecycle state&lt;/font&gt;" style="text;html=1;strokeColor=none;fillColor=none;align=left;verticalAlign=middle;whiteSpace=wrap;rounded=0;" parent="f_sBxYvKpefhAlj5SfTx-1" vertex="1"><mxGeometry x="80" y="260" width="110" height="20" as="geometry"/></mxCell><mxCell id="SwkO7GmoEvJsivPoRkBC-0" value="" style="shape=curlyBracket;whiteSpace=wrap;html=1;rounded=1;fontSize=14;fillColor=none;size=0.5;" parent="f_sBxYvKpefhAlj5SfTx-1" vertex="1"><mxGeometry x="520" y="105" width="20" height="30" as="geometry"/></mxCell><mxCell id="SwkO7GmoEvJsivPoRkBC-1" value="Link to the application in application inventory." style="text;html=1;strokeColor=none;fillColor=none;align=left;verticalAlign=middle;whiteSpace=wrap;rounded=0;fontSize=10;" parent="f_sBxYvKpefhAlj5SfTx-1" vertex="1"><mxGeometry x="540" y="110" width="260" height="20" as="geometry"/></mxCell><mxCell id="SwkO7GmoEvJsivPoRkBC-2" value="" style="shape=curlyBracket;whiteSpace=wrap;html=1;rounded=1;fontSize=14;fillColor=none;size=0.5;" parent="f_sBxYvKpefhAlj5SfTx-1" vertex="1"><mxGeometry x="520" y="70" width="20" height="30" as="geometry"/></mxCell><mxCell id="SwkO7GmoEvJsivPoRkBC-3" value="Name of the application - how it will be represented in MP" style="text;html=1;strokeColor=none;fillColor=none;align=left;verticalAlign=middle;whiteSpace=wrap;rounded=0;fontSize=10;" parent="f_sBxYvKpefhAlj5SfTx-1" vertex="1"><mxGeometry x="540" y="75" width="260" height="20" as="geometry"/></mxCell><mxCell id="SwkO7GmoEvJsivPoRkBC-4" value="" style="shape=curlyBracket;whiteSpace=wrap;html=1;rounded=1;fontSize=14;fillColor=none;size=0.5;" parent="f_sBxYvKpefhAlj5SfTx-1" vertex="1"><mxGeometry x="520" y="220" width="20" height="30" as="geometry"/></mxCell><mxCell id="u5mB55aeKldKz4_mlb6P-1" value="Owner of the application" style="text;html=1;strokeColor=none;fillColor=none;align=left;verticalAlign=middle;whiteSpace=wrap;rounded=0;fontSize=10;" parent="f_sBxYvKpefhAlj5SfTx-1" vertex="1"><mxGeometry x="540" y="225" width="260" height="20" as="geometry"/></mxCell><mxCell id="u5mB55aeKldKz4_mlb6P-2" value="" style="shape=curlyBracket;whiteSpace=wrap;html=1;rounded=1;fontSize=14;fillColor=none;size=0.5;" parent="f_sBxYvKpefhAlj5SfTx-1" vertex="1"><mxGeometry x="520" y="260" width="20" height="30" as="geometry"/></mxCell><mxCell id="u5mB55aeKldKz4_mlb6P-3" value="LIfecycle state of the application" style="text;html=1;strokeColor=none;fillColor=none;align=left;verticalAlign=middle;whiteSpace=wrap;rounded=0;fontSize=10;" parent="f_sBxYvKpefhAlj5SfTx-1" vertex="1"><mxGeometry x="540" y="260" width="260" height="20" as="geometry"/></mxCell><mxCell id="u5mB55aeKldKz4_mlb6P-7" value="" style="group" parent="f_sBxYvKpefhAlj5SfTx-1" vertex="1" connectable="0"><mxGeometry x="200" y="260" width="280" height="20" as="geometry"/></mxCell><mxCell id="u5mB55aeKldKz4_mlb6P-5" value="" style="rounded=0;whiteSpace=wrap;html=1;" parent="u5mB55aeKldKz4_mlb6P-7" vertex="1"><mxGeometry width="280" height="20" as="geometry"/></mxCell><mxCell id="u5mB55aeKldKz4_mlb6P-6" value="" style="triangle;whiteSpace=wrap;html=1;fontSize=14;rotation=90;fillColor=#4D4D4D;" parent="u5mB55aeKldKz4_mlb6P-7" vertex="1"><mxGeometry x="266.13" y="5" width="10" height="10" as="geometry"/></mxCell><mxCell id="u5mB55aeKldKz4_mlb6P-8" value="" style="group" parent="f_sBxYvKpefhAlj5SfTx-1" vertex="1" connectable="0"><mxGeometry x="200" y="225" width="280" height="20" as="geometry"/></mxCell><mxCell id="XdaVZIXVnWIUlIn9T61f-1" value="" style="rounded=0;whiteSpace=wrap;html=1;" parent="u5mB55aeKldKz4_mlb6P-8" vertex="1"><mxGeometry width="280" height="20" as="geometry"/></mxCell><mxCell id="u5mB55aeKldKz4_mlb6P-0" value="" style="triangle;whiteSpace=wrap;html=1;fontSize=14;rotation=90;fillColor=#4D4D4D;" parent="u5mB55aeKldKz4_mlb6P-8" vertex="1"><mxGeometry x="266.13" y="5" width="10" height="10" as="geometry"/></mxCell><mxCell id="WZjgConUEqRTUvEtvCTV-0" value="" style="shape=curlyBracket;whiteSpace=wrap;html=1;rounded=1;fontSize=14;fillColor=none;size=0.5;" parent="f_sBxYvKpefhAlj5SfTx-1" vertex="1"><mxGeometry x="520" y="140" width="20" height="70" as="geometry"/></mxCell><mxCell id="WZjgConUEqRTUvEtvCTV-1" value="Description of the application. Free text." style="text;html=1;strokeColor=none;fillColor=none;align=left;verticalAlign=middle;whiteSpace=wrap;rounded=0;fontSize=10;" parent="f_sBxYvKpefhAlj5SfTx-1" vertex="1"><mxGeometry x="540" y="160" width="260" height="20" as="geometry"/></mxCell></root></mxGraphModel></diagram><diagram id="q__2ZyEX36pWFefSSxb7" name="Page-10"><mxGraphModel dx="1096" dy="859" grid="1" gridSize="10" guides="1" tooltips="1" connect="1" arrows="1" fold="1" page="1" pageScale="1" pageWidth="1169" pageHeight="827" math="0" shadow="0"><root><mxCell id="xxmjLEwCIwiusfFzF2nf-0"/><mxCell id="xxmjLEwCIwiusfFzF2nf-1" parent="xxmjLEwCIwiusfFzF2nf-0"/><mxCell id="SzK1DfxiV7dZpXTTiicx-0" value="Role engineering and maintenance" style="shape=table;childLayout=tableLayout;startSize=40;collapsible=0;recursiveResize=0;expand=0;fontStyle=1;" parent="xxmjLEwCIwiusfFzF2nf-1" vertex="1"><mxGeometry x="10" y="40" width="1200" height="560" as="geometry"/></mxCell><mxCell id="SzK1DfxiV7dZpXTTiicx-1" value="Author" style="shape=tableRow;horizontal=0;startSize=60;swimlaneHead=0;swimlaneBody=0;top=0;left=0;bottom=0;right=0;dropTarget=0;fillColor=none;collapsible=0;recursiveResize=0;expand=0;fontStyle=1;" parent="SzK1DfxiV7dZpXTTiicx-0" vertex="1"><mxGeometry y="40" width="1200" height="200" as="geometry"/></mxCell><mxCell id="SzK1DfxiV7dZpXTTiicx-2" value="DRAFT" style="swimlane;swimlaneHead=0;swimlaneBody=0;fontStyle=0;connectable=0;fillColor=#F5F5F5;startSize=40;collapsible=0;recursiveResize=0;expand=0;fontStyle=1;" parent="SzK1DfxiV7dZpXTTiicx-1" vertex="1"><mxGeometry x="60" width="162" height="200" as="geometry"><mxRectangle width="162" height="200" as="alternateBounds"/></mxGeometry></mxCell><mxCell id="SzK1DfxiV7dZpXTTiicx-3" value="Create and Prepare Role" style="rounded=0;whiteSpace=wrap;html=1;strokeWidth=2;" parent="SzK1DfxiV7dZpXTTiicx-2" vertex="1"><mxGeometry x="30" y="60" width="100" height="30" as="geometry"/></mxCell><mxCell id="SzK1DfxiV7dZpXTTiicx-4" value="ADMIN REVIEW" style="swimlane;swimlaneHead=0;swimlaneBody=0;fontStyle=0;connectable=0;fillColor=#FFE6CC;startSize=40;collapsible=0;recursiveResize=0;expand=0;fontStyle=1;" parent="SzK1DfxiV7dZpXTTiicx-1" vertex="1"><mxGeometry x="222" width="164" height="200" as="geometry"><mxRectangle width="164" height="200" as="alternateBounds"/></mxGeometry></mxCell><mxCell id="SzK1DfxiV7dZpXTTiicx-5" value="PROPOSED" style="swimlane;swimlaneHead=0;swimlaneBody=0;fontStyle=0;connectable=0;fillColor=#FFF2CC;startSize=40;collapsible=0;recursiveResize=0;expand=0;fontStyle=1;" parent="SzK1DfxiV7dZpXTTiicx-1" vertex="1"><mxGeometry x="386" width="162" height="200" as="geometry"><mxRectangle width="162" height="200" as="alternateBounds"/></mxGeometry></mxCell><mxCell id="SzK1DfxiV7dZpXTTiicx-6" value="ACTIVE" style="swimlane;swimlaneHead=0;swimlaneBody=0;fontStyle=0;connectable=0;fillColor=#97D077;startSize=40;collapsible=0;recursiveResize=0;expand=0;fontStyle=1;labelBackgroundColor=none;" parent="SzK1DfxiV7dZpXTTiicx-1" vertex="1"><mxGeometry x="548" width="164" height="200" as="geometry"><mxRectangle width="164" height="200" as="alternateBounds"/></mxGeometry></mxCell><mxCell id="0CBD8LwKuE3w2LLNMGKN-21" value="Active role life" style="rounded=0;whiteSpace=wrap;html=1;strokeWidth=2;" parent="SzK1DfxiV7dZpXTTiicx-6" vertex="1"><mxGeometry x="32" y="70" width="100" height="30" as="geometry"/></mxCell><mxCell id="0CBD8LwKuE3w2LLNMGKN-6" value="ACTIVE-UPDATED" style="swimlane;swimlaneHead=0;swimlaneBody=0;fontStyle=0;connectable=0;fillColor=#B9E0A5;startSize=40;collapsible=0;recursiveResize=0;expand=0;fontStyle=1;labelBackgroundColor=none;" parent="SzK1DfxiV7dZpXTTiicx-1" vertex="1"><mxGeometry x="712" width="162" height="200" as="geometry"><mxRectangle width="162" height="200" as="alternateBounds"/></mxGeometry></mxCell><mxCell id="0CBD8LwKuE3w2LLNMGKN-9" value="DEPRECATED" style="swimlane;swimlaneHead=0;swimlaneBody=0;fontStyle=0;connectable=0;fillColor=#C0C0C0;startSize=40;collapsible=0;recursiveResize=0;expand=0;fontStyle=1;labelBackgroundColor=none;" parent="SzK1DfxiV7dZpXTTiicx-1" vertex="1"><mxGeometry x="874" width="164" height="200" as="geometry"><mxRectangle width="164" height="200" as="alternateBounds"/></mxGeometry></mxCell><mxCell id="0CBD8LwKuE3w2LLNMGKN-34" value="Deprecated role" style="rounded=0;whiteSpace=wrap;html=1;strokeWidth=2;" parent="0CBD8LwKuE3w2LLNMGKN-9" vertex="1"><mxGeometry x="36" y="110" width="100" height="30" as="geometry"/></mxCell><mxCell id="0CBD8LwKuE3w2LLNMGKN-12" value="ARCHIVED" style="swimlane;swimlaneHead=0;swimlaneBody=0;fontStyle=0;connectable=0;fillColor=#E6E6E6;startSize=40;collapsible=0;recursiveResize=0;expand=0;fontStyle=1;labelBackgroundColor=none;" parent="SzK1DfxiV7dZpXTTiicx-1" vertex="1"><mxGeometry x="1038" width="162" height="200" as="geometry"><mxRectangle width="162" height="200" as="alternateBounds"/></mxGeometry></mxCell><mxCell id="0CBD8LwKuE3w2LLNMGKN-35" value="Archived role" style="rounded=0;whiteSpace=wrap;html=1;strokeWidth=2;" parent="0CBD8LwKuE3w2LLNMGKN-12" vertex="1"><mxGeometry x="31" y="70" width="100" height="30" as="geometry"/></mxCell><mxCell id="udDKQMesrrOwcgen66qW-7" value="" style="endArrow=classic;html=1;rounded=1;fontSize=14;edgeStyle=orthogonalEdgeStyle;exitX=1;exitY=0.5;exitDx=0;exitDy=0;strokeWidth=2;entryX=0;entryY=0.5;entryDx=0;entryDy=0;" parent="SzK1DfxiV7dZpXTTiicx-1" source="0CBD8LwKuE3w2LLNMGKN-21" target="0CBD8LwKuE3w2LLNMGKN-34" edge="1"><mxGeometry width="50" height="50" relative="1" as="geometry"><mxPoint x="758" y="100" as="sourcePoint"/><mxPoint x="828" y="120" as="targetPoint"/><Array as="points"><mxPoint x="740" y="85"/><mxPoint x="740" y="125"/></Array></mxGeometry></mxCell><mxCell id="udDKQMesrrOwcgen66qW-8" value="Deprecate" style="edgeLabel;html=1;align=center;verticalAlign=middle;resizable=0;points=[];fontColor=default;" parent="udDKQMesrrOwcgen66qW-7" vertex="1" connectable="0"><mxGeometry x="-0.4109" relative="1" as="geometry"><mxPoint as="offset"/></mxGeometry></mxCell><mxCell id="udDKQMesrrOwcgen66qW-9" value="" style="endArrow=classic;html=1;rounded=1;fontSize=14;edgeStyle=orthogonalEdgeStyle;exitX=1;exitY=0.25;exitDx=0;exitDy=0;strokeWidth=2;entryX=0;entryY=0.5;entryDx=0;entryDy=0;" parent="SzK1DfxiV7dZpXTTiicx-1" source="0CBD8LwKuE3w2LLNMGKN-21" target="0CBD8LwKuE3w2LLNMGKN-35" edge="1"><mxGeometry width="50" height="50" relative="1" as="geometry"><mxPoint x="690" y="95" as="sourcePoint"/><mxPoint x="916" y="95" as="targetPoint"/><Array as="points"><mxPoint x="700" y="78"/><mxPoint x="1020" y="78"/><mxPoint x="1020" y="85"/></Array></mxGeometry></mxCell><mxCell id="udDKQMesrrOwcgen66qW-10" value="Archive" style="edgeLabel;html=1;align=center;verticalAlign=middle;resizable=0;points=[];fontColor=default;" parent="udDKQMesrrOwcgen66qW-9" vertex="1" connectable="0"><mxGeometry x="-0.4109" relative="1" as="geometry"><mxPoint as="offset"/></mxGeometry></mxCell><mxCell id="SzK1DfxiV7dZpXTTiicx-7" value="IGA &#10;Admin." style="shape=tableRow;horizontal=0;startSize=60;swimlaneHead=0;swimlaneBody=0;top=0;left=0;bottom=0;right=0;dropTarget=0;fillColor=none;collapsible=0;recursiveResize=0;expand=0;fontStyle=1;" parent="SzK1DfxiV7dZpXTTiicx-0" vertex="1"><mxGeometry y="240" width="1200" height="160" as="geometry"/></mxCell><mxCell id="SzK1DfxiV7dZpXTTiicx-8" value="" style="swimlane;swimlaneHead=0;swimlaneBody=0;fontStyle=0;connectable=0;fillColor=none;startSize=0;collapsible=0;recursiveResize=0;expand=0;fontStyle=1;" parent="SzK1DfxiV7dZpXTTiicx-7" vertex="1"><mxGeometry x="60" width="162" height="160" as="geometry"><mxRectangle width="162" height="160" as="alternateBounds"/></mxGeometry></mxCell><mxCell id="SzK1DfxiV7dZpXTTiicx-9" value="" style="swimlane;swimlaneHead=0;swimlaneBody=0;fontStyle=0;connectable=0;fillColor=none;startSize=0;collapsible=0;recursiveResize=0;expand=0;fontStyle=1;" parent="SzK1DfxiV7dZpXTTiicx-8" vertex="1"><mxGeometry x="6.5" y="-30" width="201" height="70" as="geometry"><mxRectangle width="201" height="70" as="alternateBounds"/></mxGeometry></mxCell><mxCell id="SzK1DfxiV7dZpXTTiicx-10" value="" style="swimlane;swimlaneHead=0;swimlaneBody=0;fontStyle=0;connectable=0;fillColor=none;startSize=0;collapsible=0;recursiveResize=0;expand=0;fontStyle=1;" parent="SzK1DfxiV7dZpXTTiicx-7" vertex="1"><mxGeometry x="222" width="164" height="160" as="geometry"><mxRectangle width="164" height="160" as="alternateBounds"/></mxGeometry></mxCell><mxCell id="SzK1DfxiV7dZpXTTiicx-11" value="Review Role" style="rounded=0;whiteSpace=wrap;html=1;strokeWidth=2;" parent="SzK1DfxiV7dZpXTTiicx-10" vertex="1"><mxGeometry x="30" y="20" width="100" height="30" as="geometry"/></mxCell><mxCell id="SzK1DfxiV7dZpXTTiicx-12" value="" style="swimlane;swimlaneHead=0;swimlaneBody=0;fontStyle=0;connectable=0;fillColor=none;startSize=0;collapsible=0;recursiveResize=0;expand=0;fontStyle=1;" parent="SzK1DfxiV7dZpXTTiicx-7" vertex="1"><mxGeometry x="386" width="162" height="160" as="geometry"><mxRectangle width="162" height="160" as="alternateBounds"/></mxGeometry></mxCell><mxCell id="SzK1DfxiV7dZpXTTiicx-13" style="swimlane;swimlaneHead=0;swimlaneBody=0;fontStyle=0;connectable=0;fillColor=none;startSize=0;collapsible=0;recursiveResize=0;expand=0;fontStyle=1;" parent="SzK1DfxiV7dZpXTTiicx-7" vertex="1"><mxGeometry x="548" width="164" height="160" as="geometry"><mxRectangle width="164" height="160" as="alternateBounds"/></mxGeometry></mxCell><mxCell id="0CBD8LwKuE3w2LLNMGKN-7" style="swimlane;swimlaneHead=0;swimlaneBody=0;fontStyle=0;connectable=0;fillColor=none;startSize=0;collapsible=0;recursiveResize=0;expand=0;fontStyle=1;" parent="SzK1DfxiV7dZpXTTiicx-7" vertex="1"><mxGeometry x="712" width="162" height="160" as="geometry"><mxRectangle width="162" height="160" as="alternateBounds"/></mxGeometry></mxCell><mxCell id="0CBD8LwKuE3w2LLNMGKN-10" style="swimlane;swimlaneHead=0;swimlaneBody=0;fontStyle=0;connectable=0;fillColor=none;startSize=0;collapsible=0;recursiveResize=0;expand=0;fontStyle=1;" parent="SzK1DfxiV7dZpXTTiicx-7" vertex="1"><mxGeometry x="874" width="164" height="160" as="geometry"><mxRectangle width="164" height="160" as="alternateBounds"/></mxGeometry></mxCell><mxCell id="0CBD8LwKuE3w2LLNMGKN-13" style="swimlane;swimlaneHead=0;swimlaneBody=0;fontStyle=0;connectable=0;fillColor=none;startSize=0;collapsible=0;recursiveResize=0;expand=0;fontStyle=1;" parent="SzK1DfxiV7dZpXTTiicx-7" vertex="1"><mxGeometry x="1038" width="162" height="160" as="geometry"><mxRectangle width="162" height="160" as="alternateBounds"/></mxGeometry></mxCell><mxCell id="SzK1DfxiV7dZpXTTiicx-14" value="Role &#10;Manager" style="shape=tableRow;horizontal=0;startSize=60;swimlaneHead=0;swimlaneBody=0;top=0;left=0;bottom=0;right=0;dropTarget=0;fillColor=none;collapsible=0;recursiveResize=0;expand=0;fontStyle=1;" parent="SzK1DfxiV7dZpXTTiicx-0" vertex="1"><mxGeometry y="400" width="1200" height="160" as="geometry"/></mxCell><mxCell id="SzK1DfxiV7dZpXTTiicx-15" value="" style="swimlane;swimlaneHead=0;swimlaneBody=0;fontStyle=0;connectable=0;fillColor=none;startSize=0;collapsible=0;recursiveResize=0;expand=0;fontStyle=1;" parent="SzK1DfxiV7dZpXTTiicx-14" vertex="1"><mxGeometry x="60" width="162" height="160" as="geometry"><mxRectangle width="162" height="160" as="alternateBounds"/></mxGeometry></mxCell><mxCell id="SzK1DfxiV7dZpXTTiicx-16" value="" style="swimlane;swimlaneHead=0;swimlaneBody=0;fontStyle=0;connectable=0;fillColor=none;startSize=0;collapsible=0;recursiveResize=0;expand=0;fontStyle=1;" parent="SzK1DfxiV7dZpXTTiicx-14" vertex="1"><mxGeometry x="222" width="164" height="160" as="geometry"><mxRectangle width="164" height="160" as="alternateBounds"/></mxGeometry></mxCell><mxCell id="SzK1DfxiV7dZpXTTiicx-17" value="" style="swimlane;swimlaneHead=0;swimlaneBody=0;fontStyle=0;connectable=0;fillColor=none;startSize=0;collapsible=0;recursiveResize=0;expand=0;fontStyle=1;" parent="SzK1DfxiV7dZpXTTiicx-14" vertex="1"><mxGeometry x="386" width="162" height="160" as="geometry"><mxRectangle width="162" height="160" as="alternateBounds"/></mxGeometry></mxCell><mxCell id="SzK1DfxiV7dZpXTTiicx-18" value="Review Role" style="rounded=0;whiteSpace=wrap;html=1;strokeWidth=2;" parent="SzK1DfxiV7dZpXTTiicx-17" vertex="1"><mxGeometry x="30" y="20" width="100" height="30" as="geometry"/></mxCell><mxCell id="SzK1DfxiV7dZpXTTiicx-19" style="swimlane;swimlaneHead=0;swimlaneBody=0;fontStyle=0;connectable=0;fillColor=none;startSize=0;collapsible=0;recursiveResize=0;expand=0;fontStyle=1;" parent="SzK1DfxiV7dZpXTTiicx-14" vertex="1"><mxGeometry x="548" width="164" height="160" as="geometry"><mxRectangle width="164" height="160" as="alternateBounds"/></mxGeometry></mxCell><mxCell id="0CBD8LwKuE3w2LLNMGKN-8" style="swimlane;swimlaneHead=0;swimlaneBody=0;fontStyle=0;connectable=0;fillColor=none;startSize=0;collapsible=0;recursiveResize=0;expand=0;fontStyle=1;" parent="SzK1DfxiV7dZpXTTiicx-14" vertex="1"><mxGeometry x="712" width="162" height="160" as="geometry"><mxRectangle width="162" height="160" as="alternateBounds"/></mxGeometry></mxCell><mxCell id="udDKQMesrrOwcgen66qW-0" value="Active role waiting for review" style="rounded=0;whiteSpace=wrap;html=1;strokeWidth=2;" parent="0CBD8LwKuE3w2LLNMGKN-8" vertex="1"><mxGeometry x="31" y="20" width="100" height="30" as="geometry"/></mxCell><mxCell id="0CBD8LwKuE3w2LLNMGKN-11" style="swimlane;swimlaneHead=0;swimlaneBody=0;fontStyle=0;connectable=0;fillColor=none;startSize=0;collapsible=0;recursiveResize=0;expand=0;fontStyle=1;" parent="SzK1DfxiV7dZpXTTiicx-14" vertex="1"><mxGeometry x="874" width="164" height="160" as="geometry"><mxRectangle width="164" height="160" as="alternateBounds"/></mxGeometry></mxCell><mxCell id="0CBD8LwKuE3w2LLNMGKN-14" style="swimlane;swimlaneHead=0;swimlaneBody=0;fontStyle=0;connectable=0;fillColor=none;startSize=0;collapsible=0;recursiveResize=0;expand=0;fontStyle=1;" parent="SzK1DfxiV7dZpXTTiicx-14" vertex="1"><mxGeometry x="1038" width="162" height="160" as="geometry"><mxRectangle width="162" height="160" as="alternateBounds"/></mxGeometry></mxCell><mxCell id="SzK1DfxiV7dZpXTTiicx-26" value="" style="endArrow=classic;html=1;rounded=1;fontSize=14;edgeStyle=orthogonalEdgeStyle;exitX=1;exitY=0.5;exitDx=0;exitDy=0;entryX=0;entryY=0.5;entryDx=0;entryDy=0;strokeWidth=2;" parent="SzK1DfxiV7dZpXTTiicx-0" source="SzK1DfxiV7dZpXTTiicx-3" target="SzK1DfxiV7dZpXTTiicx-11" edge="1"><mxGeometry width="50" height="50" relative="1" as="geometry"><mxPoint x="240" y="315" as="sourcePoint"/><mxPoint x="240" y="455" as="targetPoint"/><Array as="points"><mxPoint x="210" y="115"/><mxPoint x="210" y="275"/></Array></mxGeometry></mxCell><mxCell id="0CBD8LwKuE3w2LLNMGKN-19" value="Send for &lt;br&gt;admin review" style="edgeLabel;html=1;align=center;verticalAlign=middle;resizable=0;points=[];fontColor=default;" parent="SzK1DfxiV7dZpXTTiicx-26" vertex="1" connectable="0"><mxGeometry x="-0.0961" relative="1" as="geometry"><mxPoint y="-45" as="offset"/></mxGeometry></mxCell><mxCell id="SzK1DfxiV7dZpXTTiicx-27" value="" style="endArrow=classic;html=1;rounded=1;fontSize=14;edgeStyle=orthogonalEdgeStyle;exitX=1;exitY=0.5;exitDx=0;exitDy=0;entryX=0;entryY=0.5;entryDx=0;entryDy=0;strokeWidth=2;" parent="SzK1DfxiV7dZpXTTiicx-0" source="SzK1DfxiV7dZpXTTiicx-11" target="SzK1DfxiV7dZpXTTiicx-18" edge="1"><mxGeometry width="50" height="50" relative="1" as="geometry"><mxPoint x="457" y="190" as="sourcePoint"/><mxPoint x="532" y="260" as="targetPoint"/><Array as="points"><mxPoint x="370" y="275"/><mxPoint x="370" y="435"/></Array></mxGeometry></mxCell><mxCell id="0CBD8LwKuE3w2LLNMGKN-20" value="Send for &lt;br&gt;approval" style="edgeLabel;html=1;align=center;verticalAlign=middle;resizable=0;points=[];fontColor=default;" parent="SzK1DfxiV7dZpXTTiicx-27" vertex="1" connectable="0"><mxGeometry x="-0.0149" y="1" relative="1" as="geometry"><mxPoint y="-57" as="offset"/></mxGeometry></mxCell><mxCell id="SzK1DfxiV7dZpXTTiicx-25" value="" style="endArrow=classic;html=1;rounded=1;fontSize=14;edgeStyle=orthogonalEdgeStyle;strokeWidth=2;exitX=1;exitY=0.5;exitDx=0;exitDy=0;entryX=0;entryY=0.5;entryDx=0;entryDy=0;" parent="SzK1DfxiV7dZpXTTiicx-0" source="SzK1DfxiV7dZpXTTiicx-18" target="0CBD8LwKuE3w2LLNMGKN-21" edge="1"><mxGeometry width="50" height="50" relative="1" as="geometry"><mxPoint x="660" y="400" as="sourcePoint"/><mxPoint x="580" y="435" as="targetPoint"/><Array as="points"><mxPoint x="530" y="435"/><mxPoint x="530" y="125"/></Array></mxGeometry></mxCell><mxCell id="0CBD8LwKuE3w2LLNMGKN-22" value="Approve" style="edgeLabel;html=1;align=center;verticalAlign=middle;resizable=0;points=[];fontColor=default;" parent="SzK1DfxiV7dZpXTTiicx-25" vertex="1" connectable="0"><mxGeometry x="-0.2157" y="2" relative="1" as="geometry"><mxPoint y="108" as="offset"/></mxGeometry></mxCell><mxCell id="0CBD8LwKuE3w2LLNMGKN-25" value="" style="endArrow=classic;html=1;rounded=1;fontSize=14;edgeStyle=orthogonalEdgeStyle;exitX=0.5;exitY=1;exitDx=0;exitDy=0;strokeWidth=2;entryX=0.25;entryY=1;entryDx=0;entryDy=0;" parent="SzK1DfxiV7dZpXTTiicx-0" source="SzK1DfxiV7dZpXTTiicx-18" target="SzK1DfxiV7dZpXTTiicx-3" edge="1"><mxGeometry width="50" height="50" relative="1" as="geometry"><mxPoint x="450" y="450" as="sourcePoint"/><mxPoint x="520" y="470" as="targetPoint"/><Array as="points"><mxPoint x="466" y="490"/><mxPoint x="115" y="490"/></Array></mxGeometry></mxCell><mxCell id="0CBD8LwKuE3w2LLNMGKN-26" value="Return to requestor" style="edgeLabel;html=1;align=center;verticalAlign=middle;resizable=0;points=[];fontColor=default;" parent="0CBD8LwKuE3w2LLNMGKN-25" vertex="1" connectable="0"><mxGeometry x="-0.4531" y="-1" relative="1" as="geometry"><mxPoint x="92" as="offset"/></mxGeometry></mxCell><mxCell id="0CBD8LwKuE3w2LLNMGKN-27" value="" style="endArrow=classic;html=1;rounded=1;fontSize=14;edgeStyle=orthogonalEdgeStyle;exitX=0.25;exitY=1;exitDx=0;exitDy=0;strokeWidth=2;entryX=0.428;entryY=0.994;entryDx=0;entryDy=0;entryPerimeter=0;" parent="SzK1DfxiV7dZpXTTiicx-0" source="SzK1DfxiV7dZpXTTiicx-11" target="SzK1DfxiV7dZpXTTiicx-3" edge="1"><mxGeometry width="50" height="50" relative="1" as="geometry"><mxPoint x="252" y="330" as="sourcePoint"/><mxPoint x="322" y="350" as="targetPoint"/><Array as="points"><mxPoint x="277" y="320"/><mxPoint x="133" y="320"/></Array></mxGeometry></mxCell><mxCell id="0CBD8LwKuE3w2LLNMGKN-28" value="Return to requestor" style="edgeLabel;html=1;align=center;verticalAlign=middle;resizable=0;points=[];fontColor=default;" parent="0CBD8LwKuE3w2LLNMGKN-27" vertex="1" connectable="0"><mxGeometry x="-0.649" y="2" relative="1" as="geometry"><mxPoint x="-24" y="-2" as="offset"/></mxGeometry></mxCell><mxCell id="0CBD8LwKuE3w2LLNMGKN-29" value="" style="endArrow=classic;html=1;rounded=1;fontSize=14;edgeStyle=orthogonalEdgeStyle;exitX=0.25;exitY=1;exitDx=0;exitDy=0;strokeWidth=2;entryX=0.5;entryY=1;entryDx=0;entryDy=0;" parent="SzK1DfxiV7dZpXTTiicx-0" source="SzK1DfxiV7dZpXTTiicx-18" target="SzK1DfxiV7dZpXTTiicx-11" edge="1"><mxGeometry width="50" height="50" relative="1" as="geometry"><mxPoint x="282" y="450" as="sourcePoint"/><mxPoint x="352" y="470" as="targetPoint"/><Array as="points"><mxPoint x="441" y="470"/><mxPoint x="302" y="470"/></Array></mxGeometry></mxCell><mxCell id="0CBD8LwKuE3w2LLNMGKN-30" value="Return to review" style="edgeLabel;html=1;align=center;verticalAlign=middle;resizable=0;points=[];fontColor=default;" parent="0CBD8LwKuE3w2LLNMGKN-29" vertex="1" connectable="0"><mxGeometry x="-0.5324" y="1" relative="1" as="geometry"><mxPoint x="6" as="offset"/></mxGeometry></mxCell><mxCell id="udDKQMesrrOwcgen66qW-1" value="" style="endArrow=classic;html=1;rounded=1;fontSize=14;edgeStyle=orthogonalEdgeStyle;exitX=1;exitY=0.75;exitDx=0;exitDy=0;strokeWidth=2;entryX=0;entryY=0.5;entryDx=0;entryDy=0;" parent="SzK1DfxiV7dZpXTTiicx-0" source="0CBD8LwKuE3w2LLNMGKN-21" target="udDKQMesrrOwcgen66qW-0" edge="1"><mxGeometry width="50" height="50" relative="1" as="geometry"><mxPoint x="720" y="160" as="sourcePoint"/><mxPoint x="790" y="180" as="targetPoint"/><Array as="points"><mxPoint x="700" y="133"/><mxPoint x="700" y="435"/></Array></mxGeometry></mxCell><mxCell id="udDKQMesrrOwcgen66qW-2" value="Update" style="edgeLabel;html=1;align=center;verticalAlign=middle;resizable=0;points=[];fontColor=default;" parent="udDKQMesrrOwcgen66qW-1" vertex="1" connectable="0"><mxGeometry x="-0.1787" y="-1" relative="1" as="geometry"><mxPoint y="-88" as="offset"/></mxGeometry></mxCell><mxCell id="udDKQMesrrOwcgen66qW-3" value="" style="endArrow=classic;html=1;rounded=1;fontSize=14;edgeStyle=orthogonalEdgeStyle;exitX=0.5;exitY=1;exitDx=0;exitDy=0;strokeWidth=2;entryX=0.5;entryY=1;entryDx=0;entryDy=0;" parent="SzK1DfxiV7dZpXTTiicx-0" source="udDKQMesrrOwcgen66qW-0" target="0CBD8LwKuE3w2LLNMGKN-21" edge="1"><mxGeometry width="50" height="50" relative="1" as="geometry"><mxPoint x="758" y="470" as="sourcePoint"/><mxPoint x="828" y="490" as="targetPoint"/><Array as="points"><mxPoint x="793" y="470"/><mxPoint x="630" y="470"/></Array></mxGeometry></mxCell><mxCell id="udDKQMesrrOwcgen66qW-4" value="Approve changes" style="edgeLabel;html=1;align=center;verticalAlign=middle;resizable=0;points=[];fontColor=default;" parent="udDKQMesrrOwcgen66qW-3" vertex="1" connectable="0"><mxGeometry x="-0.6777" y="2" relative="1" as="geometry"><mxPoint y="-1" as="offset"/></mxGeometry></mxCell><mxCell id="udDKQMesrrOwcgen66qW-5" value="" style="endArrow=classic;html=1;rounded=1;fontSize=14;edgeStyle=orthogonalEdgeStyle;exitX=0.75;exitY=1;exitDx=0;exitDy=0;strokeWidth=2;entryX=0.25;entryY=1;entryDx=0;entryDy=0;" parent="SzK1DfxiV7dZpXTTiicx-0" source="udDKQMesrrOwcgen66qW-0" target="0CBD8LwKuE3w2LLNMGKN-21" edge="1"><mxGeometry width="50" height="50" relative="1" as="geometry"><mxPoint x="803" y="460" as="sourcePoint"/><mxPoint x="640" y="150" as="targetPoint"/><Array as="points"><mxPoint x="818" y="490"/><mxPoint x="605" y="490"/></Array></mxGeometry></mxCell><mxCell id="udDKQMesrrOwcgen66qW-6" value="Reject changes" style="edgeLabel;html=1;align=center;verticalAlign=middle;resizable=0;points=[];fontColor=default;" parent="udDKQMesrrOwcgen66qW-5" vertex="1" connectable="0"><mxGeometry x="-0.6777" y="2" relative="1" as="geometry"><mxPoint y="-1" as="offset"/></mxGeometry></mxCell><mxCell id="udDKQMesrrOwcgen66qW-11" value="" style="endArrow=classic;html=1;rounded=1;fontSize=14;edgeStyle=orthogonalEdgeStyle;exitX=0.791;exitY=0.995;exitDx=0;exitDy=0;strokeWidth=2;exitPerimeter=0;" parent="SzK1DfxiV7dZpXTTiicx-0" source="SzK1DfxiV7dZpXTTiicx-18" target="0CBD8LwKuE3w2LLNMGKN-35" edge="1"><mxGeometry width="50" height="50" relative="1" as="geometry"><mxPoint x="340" y="600" as="sourcePoint"/><mxPoint x="410" y="620" as="targetPoint"/><Array as="points"><mxPoint x="495" y="520"/><mxPoint x="1119" y="520"/></Array></mxGeometry></mxCell><mxCell id="udDKQMesrrOwcgen66qW-12" value="Reject" style="edgeLabel;html=1;align=center;verticalAlign=middle;resizable=0;points=[];fontColor=default;" parent="udDKQMesrrOwcgen66qW-11" vertex="1" connectable="0"><mxGeometry x="-0.9095" relative="1" as="geometry"><mxPoint as="offset"/></mxGeometry></mxCell><mxCell id="udDKQMesrrOwcgen66qW-13" value="" style="endArrow=classic;html=1;rounded=1;fontSize=14;edgeStyle=orthogonalEdgeStyle;strokeWidth=2;exitX=0.5;exitY=0;exitDx=0;exitDy=0;entryX=0.5;entryY=0;entryDx=0;entryDy=0;" parent="SzK1DfxiV7dZpXTTiicx-0" source="SzK1DfxiV7dZpXTTiicx-11" target="0CBD8LwKuE3w2LLNMGKN-35" edge="1"><mxGeometry width="50" height="50" relative="1" as="geometry"><mxPoint x="380" y="110" as="sourcePoint"/><mxPoint x="500" y="150" as="targetPoint"/><Array as="points"><mxPoint x="302" y="90"/><mxPoint x="1119" y="90"/></Array></mxGeometry></mxCell><mxCell id="udDKQMesrrOwcgen66qW-14" value="Reject" style="edgeLabel;html=1;align=center;verticalAlign=middle;resizable=0;points=[];fontColor=default;" parent="udDKQMesrrOwcgen66qW-13" vertex="1" connectable="0"><mxGeometry x="-0.0149" y="1" relative="1" as="geometry"><mxPoint x="-326" y="101" as="offset"/></mxGeometry></mxCell></root></mxGraphModel></diagram></mxfile>